<svg xmlns="http://www.w3.org/2000/svg" height="1024" preserveAspectRatio="none" style="display: block;" version="1.1" viewBox="0 0 2048 2048" width="1024">
<path d="M 0 0 L 2048 0 L 2048 2048 L 0 2048 L 0 0 z" fill="rgb(255,255,254)" transform="translate(0,0)"></path>
<path d="M 910.659 379.283 C 916.114 378.441 916.732 378.388 921.773 380.315 L 1604.52 648.824 L 1809.22 730.042 L 1893.29 763.298 C 1909.23 769.438 1928.76 775.781 1943.93 782.842 L 1943.81 834.089 C 1933.01 836.649 1922.2 839.152 1911.37 841.596 C 1893.96 835.217 1876.67 828.492 1859.53 821.426 C 1835.99 822.947 1783.41 841.828 1760.66 851.087 C 1758.75 923.888 1760.69 1004.66 1760.77 1078.23 C 1761.29 1205.44 1760.99 1332.66 1759.88 1459.86 C 1777.36 1462.39 1805.9 1463.8 1823.96 1465.02 L 1933.31 1472.35 C 1891.9 1489.37 1851.45 1508.08 1810.54 1526.19 L 1697.51 1575.01 L 1128.07 1824.55 L 978.674 1890.74 C 944.493 1906.13 910.721 1922.27 876.228 1936.95 C 852.116 1929.82 823.048 1918.77 799.187 1910.16 C 772.339 1900.67 745.434 1891.34 718.475 1882.18 L 355.422 1757.28 C 314.817 1743.32 275.31 1729 234.373 1715.4 C 239.362 1713.91 244.645 1712.77 249.713 1711.47 C 298.12 1699.03 346.484 1686.07 394.811 1673.39 L 394.505 1707.48 C 378.352 1712.01 360.908 1715.98 344.443 1720.38 C 378.06 1728.85 409.489 1741.11 442.009 1752.93 L 559.747 1795.41 C 663.934 1832.74 769.069 1867.37 872.781 1904.95 L 1481.72 1638.87 C 1560.68 1605.21 1640.52 1572.72 1718.8 1537.55 C 1749.01 1523.97 1787.95 1509.44 1816.24 1492.68 C 1795.81 1490.42 1775.35 1488.52 1754.86 1486.96 C 1754.9 1492.6 1755.52 1499.98 1753.71 1505.02 C 1746.91 1512.81 1734.94 1513.67 1725.01 1515.2 C 1723.77 1516.76 1723.27 1517.81 1722.53 1519.67 C 1722.15 1518.38 1721.78 1517.09 1721.4 1515.8 C 1704.62 1513.09 1693.21 1515.52 1679.74 1502.99 L 1680.51 1483.43 C 1626.58 1477.68 1570.69 1476.64 1516.53 1472.17 C 1507.01 1471.38 1494.14 1480.88 1484.9 1480.07 C 1475.57 1479.25 1465.34 1477.27 1455.99 1475.71 L 1391.12 1464.52 L 1391.04 1485.7 C 1396.62 1486.49 1399.11 1486.85 1403.35 1490.5 C 1405.95 1497.94 1395.1 1499.78 1389.54 1501.65 C 1378.9 1499.33 1357.52 1497.14 1349.56 1492.15 C 1300.97 1504.35 1252.42 1519.74 1203.95 1532.91 C 1177.31 1540.15 1152.62 1548.51 1125.26 1554.77 L 1125.57 1684.04 C 1125.64 1704.42 1126.37 1730.01 1125.29 1749.96 C 1109.77 1757.72 1084.36 1764.62 1069.79 1772.75 C 1052.59 1767.47 1031.33 1760.89 1014.65 1754.57 C 1013.46 1740.72 1014.52 1709.58 1014.58 1694.35 C 1014.62 1659.73 1014.36 1625.12 1013.8 1590.51 C 993.68 1594.01 953.547 1607.35 933.08 1613.97 C 932.428 1618.32 932.09 1623.06 931.686 1627.46 C 937.794 1627.92 947.841 1627.52 948.61 1635.29 C 947.294 1637.65 946.249 1638.67 943.801 1639.84 C 922.581 1649.94 900.69 1636.49 880.919 1629.96 C 800.235 1655.42 719.15 1679.59 637.694 1702.45 C 637.644 1710.02 637.421 1717.73 637.282 1725.31 C 643.464 1726.71 651.684 1727.64 654.495 1733.89 C 652.875 1741.4 639.965 1743.18 633.386 1743.48 C 629.22 1740.61 601.257 1737.58 593.011 1732.8 C 582.721 1726.83 581.809 1731.92 575.517 1718.48 C 570.309 1720.35 564.35 1722.24 559.029 1723.77 C 526.278 1733.18 493.238 1745.17 460.367 1753.9 C 444.633 1747.26 431.361 1741.93 415.307 1735.89 C 414.461 1705.88 415.519 1670.37 415.676 1639.88 L 415.803 1476.25 L 414.949 835.092 C 400.467 831.951 383.833 831.762 369.068 829.434 C 332.425 823.657 294.788 821.179 258.226 815.605 C 257.782 791.167 258.286 766.66 257.7 742.119 C 267.337 729.689 285.424 711.881 296.747 700.843 C 314.48 683.232 332.701 666.119 351.391 649.527 C 517.806 501.182 693.198 419.87 910.659 379.283 z" fill="rgb(5,52,34)" transform="translate(0,0)"></path>
<path d="M 489.948 810.735 L 1014.04 890.64 C 1014.7 1020.56 1014.7 1150.48 1014.02 1280.39 C 995.406 1283.12 976.746 1285.56 958.052 1287.71 L 490.243 1347.4 L 489.948 810.735 z" fill="rgb(255,255,254)" transform="translate(0,0)"></path>
<path d="M 726.384 913.445 C 747.955 913.276 768.18 916.556 787.99 925.227 C 885.808 968.043 905.57 1105.33 835.589 1181.47 C 809.394 1210.26 772.768 1227.37 733.878 1228.98 C 696.606 1229.25 660.474 1216.81 632.998 1191.44 C 532.701 1098.85 584.642 920.644 726.384 913.445 z" fill="rgb(5,52,34)" transform="translate(0,0)"></path>
<path d="M 640.103 964.182 C 686.6 919.112 749.396 915.132 803.108 950.071 C 808.451 953.952 814.534 957.965 818.918 962.755 L 818.592 964.346 L 814.546 966.28 C 813.489 971.06 815.963 970.911 814.332 974.572 C 811.085 974.976 810.437 974.771 807.239 974.417 C 805.512 979.897 808.625 979.631 806.414 984.602 L 801.5 983.089 L 799.941 984.353 C 799.57 991.306 803.757 990.225 802.717 995.709 C 797.459 998.89 795.653 993.18 792.891 997.531 C 792.865 1001.17 793.117 1001.3 796.231 1004.45 L 797.518 1005.74 L 797.545 1008.04 C 792.642 1010.96 790.134 1004.5 788.164 1012.13 C 790.503 1018.27 793.207 1016.15 793.873 1021.43 L 792.441 1022.77 C 787.8 1022.27 787.574 1021.38 784.73 1023.38 C 784.04 1028.76 785.666 1029.46 789.095 1033.52 L 789.504 1035.81 L 788.339 1036.78 C 785.381 1036.24 784.218 1035.42 782.202 1036.54 C 780.894 1042.58 781.235 1042.12 786.163 1045.96 C 787.146 1049.58 787.052 1047.73 785.943 1051.71 C 780.622 1052.94 781.897 1048.6 779.22 1051.68 C 778.867 1059.88 784.061 1060.27 783.831 1066.47 C 780.812 1067.04 781.668 1066.88 778.477 1066.56 C 776.658 1069.12 777.289 1067.66 777.58 1071.49 C 779.405 1073.57 780.311 1074.44 782.376 1076.29 C 782.785 1079.62 783.225 1078.19 781.735 1080.84 L 777.756 1081.67 C 776.481 1084.15 776.547 1083.96 776.936 1086.74 C 779.127 1088.85 779.891 1089.4 782.286 1091.13 C 783.09 1094.21 783.253 1092.81 782.147 1095.51 L 777.903 1095.89 C 776.236 1099.3 776.791 1097.46 777.148 1101.91 C 779.102 1103.54 780.408 1103.54 782.929 1104.11 C 784.611 1106.31 784.294 1106.55 784.425 1109.43 L 783.313 1110.5 L 779.16 1110.04 L 778.035 1111.28 C 778.26 1115.39 777.578 1113.67 779.743 1116.78 C 785.373 1118.25 786.684 1117.4 787.268 1124.04 L 786.122 1125.1 L 781.046 1123.96 L 780.045 1124.76 C 781.55 1133.61 787.323 1129.91 790.825 1136.55 L 790.616 1138.26 C 787.777 1138.61 786.452 1138.65 783.657 1138.68 L 782.971 1140 C 785.549 1145.43 786.542 1144.71 792.482 1145.32 C 794.797 1147.67 793.977 1146.31 794.866 1149.63 C 790.947 1153.76 790.556 1149.53 788.048 1153.96 C 789.849 1159.08 791.613 1158.01 797.032 1158.19 C 799.729 1160.11 798.653 1158.91 800.133 1162.12 C 796.884 1166.18 796.172 1162.33 793.403 1166.44 C 794.326 1170.75 793.178 1169.34 796.252 1171.36 C 801.011 1171.57 801.192 1170.77 804.303 1173.09 C 803.66 1178.61 801.15 1175.28 802.046 1180.44 C 805.463 1184.12 807.316 1184.04 811.952 1186.17 C 788.122 1206.57 752.514 1217.69 721.275 1215.06 C 698.462 1213.15 677.54 1204.96 658.366 1192.71 C 655.29 1190.75 648.632 1186.9 647.005 1183.76 C 649.227 1181.24 650.507 1179.7 653.114 1177.5 C 657.972 1178.01 657.058 1178.72 659.884 1176.5 C 659.844 1171 654.915 1173.33 657.186 1169.51 L 658.42 1169.08 C 661.33 1168.04 663.128 1167.83 664.82 1165.38 L 665.203 1163.47 C 663.003 1161.8 663.984 1162.54 660.271 1162.46 L 660.553 1161.07 C 663.262 1159.5 664.92 1159.61 668.02 1159.32 C 670.261 1157.56 669.645 1158.72 670.226 1155.97 C 667.94 1155.05 666.663 1155.4 664.169 1155.55 L 663.246 1154.41 C 665.978 1147.97 670.143 1151.35 674.044 1146.44 L 673.607 1144.41 C 670.832 1143.6 670.351 1143.59 667.436 1143.34 L 666.648 1141.8 C 668.357 1137.1 669.661 1138.29 674.531 1139.19 L 675.77 1138.43 C 675.659 1134.22 674.509 1134.01 670.982 1131.36 L 671.243 1129.64 C 676.306 1127.65 676.631 1128.64 678.861 1125.07 L 678.804 1122.98 C 676.725 1121.56 676.034 1121.62 673.545 1121 C 673.134 1118.13 672.978 1119.57 674.901 1116.7 C 677.075 1115.81 679.077 1114.99 681.223 1114.02 C 681.734 1110.58 682.146 1112.02 680.445 1109.45 L 676.321 1107.95 C 676.536 1103.64 679.14 1102.78 682.616 1100.67 C 684.08 1097.51 684.135 1098.99 683.325 1096.15 L 682.08 1096.12 C 680.503 1096.08 679.195 1095.98 677.633 1095.85 C 676.656 1093.1 676.82 1094.53 677.888 1091.41 C 681.89 1088.41 686.019 1087.11 683.212 1081.59 C 680.562 1081.7 680.501 1081.94 678.034 1083.07 C 676.495 1080.72 677.01 1082.08 677.71 1078.34 C 681.177 1074.31 683.018 1073.6 683.812 1069 L 683.204 1067.58 C 680.613 1068.15 680.356 1068.51 678.021 1069.87 L 676.618 1069.38 C 675.375 1063.22 681.327 1063.56 681.903 1057.49 L 680.861 1054.55 C 675.357 1054.35 676.907 1058.17 673.878 1056.04 C 673.907 1048.31 681.556 1046.72 678.19 1040.34 C 675.496 1040.85 675.182 1041.21 672.709 1042.5 C 669.277 1037.45 675.752 1034.16 675.388 1027.72 L 673.71 1026.39 C 671.264 1026.94 669.996 1027.26 667.475 1027.51 C 665.451 1021.06 674.197 1017.45 669.515 1011.34 C 667.257 1012.03 666.409 1012.41 664.254 1013.4 C 662.003 1011.53 662.789 1012.69 662.317 1009.57 C 665.132 1004.55 666.018 1004.82 665.487 999.754 C 660.366 997.024 659.6 1004.55 656.316 995.039 C 657.929 990.6 659.965 988.333 659.218 984.212 L 657.943 982.912 L 656.442 984.259 C 654.793 985.725 654.484 986.006 652.451 987.014 C 649.699 984.839 650.899 986.14 649.317 982.41 C 649.703 978.813 649.893 977.92 650.816 974.406 C 650.002 971.497 650.874 972.403 648.712 971.12 L 646.13 972.922 C 642.715 971.353 641.858 968.06 640.103 964.182 z" fill="rgb(255,255,254)" transform="translate(0,0)"></path>
<path d="M 825.901 974.217 C 831.499 975.286 835.418 980.185 838.455 984.921 C 860.762 1019.7 869.804 1061.05 861.496 1101.63 C 856.343 1126.8 840.832 1163.61 819.191 1178.02 C 818.261 1177.25 817.341 1176.46 816.429 1175.66 C 813.251 1172.84 813.315 1172.96 813.118 1169.84 C 815.721 1166.68 819.08 1161.44 814.948 1157.98 L 808.678 1162.17 L 807.152 1161.46 C 806.44 1158.48 806.042 1158.26 806.95 1155.45 C 811.612 1152.92 812.488 1153.24 812.042 1147.97 C 809.267 1144.74 807.722 1150.24 802.763 1148.23 L 801.8 1145.51 C 802.788 1141.52 805.016 1141.95 808.763 1137.45 L 808.342 1135.27 L 806.501 1134.4 C 800.324 1136.37 799.908 1137.52 796.267 1132.29 C 800.534 1127.81 803.716 1129.48 805.863 1122.29 L 805.042 1121.41 C 801.903 1122.54 799.971 1123.5 796.614 1123.49 L 795.251 1122.04 C 795.029 1117.58 794.425 1119.44 796.298 1116.05 C 799.217 1114.51 801.539 1113.81 802.931 1110.95 C 801.642 1105.4 795.588 1109.58 792.6 1105.47 C 793.749 1102.73 801.693 1095.85 804.443 1093.23 C 799.381 1093.66 797.501 1094.93 793.161 1093.17 L 792.55 1091.57 C 795.616 1086.85 801.566 1084.28 800.88 1078.67 C 797.456 1079.89 794.853 1081.14 791.987 1078.18 C 793.677 1073.22 801.082 1071.08 802.122 1066.74 C 798.087 1064.41 797.532 1067.45 792.811 1064.93 L 792.971 1062.97 C 796.394 1057.65 798.984 1058.71 803.023 1054.43 C 801.732 1051.3 799.689 1052.66 795.105 1049.32 L 795.23 1047.01 C 797.552 1044.27 798.492 1044.85 802.814 1043.7 C 805.297 1040.84 804.441 1042.49 805.006 1038.36 L 803.957 1037.27 L 798.198 1037.56 L 797.279 1036.46 C 798.386 1032.05 797.225 1033.65 800.16 1031.03 C 803.375 1030.56 805.604 1030.69 807.765 1028.41 C 807.545 1024.95 808.085 1026.62 805.255 1023.58 C 802.475 1023.01 803.182 1023.55 801.148 1022 L 802.492 1018.65 C 807.514 1015.41 805.378 1019.58 811.67 1017.57 C 813.393 1014.4 813.369 1015.92 812.612 1012.95 C 808.924 1009.65 807.19 1012.03 804.25 1009.68 C 806.101 1006.98 805.883 1007.06 808.836 1005.71 C 814.665 1005.99 815.074 1006.88 818.066 1001.96 L 817.634 1000.76 L 811.666 998.589 L 810.975 996.979 L 812.942 995.064 C 816.943 995.269 821.316 996.634 822.803 992.514 C 821.204 991.17 820.806 991.023 818.947 990.195 L 817.16 989.411 L 817.113 987.585 C 820.45 984.829 828.865 985.451 830.669 981.785 C 827.666 981.469 827.217 981.543 824.312 980.476 C 823.689 977.497 824.347 977.65 825.901 974.217 z" fill="rgb(255,255,254)" transform="translate(0,0)"></path>
<path d="M 647.005 1183.76 C 581.219 1140.17 579.519 1029.31 631.105 973.438 C 633.033 975.896 636.492 979.488 636.541 982.27 C 633.873 984.099 633.307 984.008 630.197 984.743 C 635.054 989.072 642.889 991.06 645.134 994.474 C 643.017 996.608 643.498 995.988 640.572 997.365 L 640.129 998.903 C 642.951 1001.58 647.096 1002.87 650.78 1004.37 C 650.418 1010.61 642.987 1010.65 647.138 1015.32 C 650.258 1016.18 651.601 1016.72 654.897 1016.7 C 656.414 1020.17 656.467 1018.58 655.52 1021.61 L 650.682 1023.85 C 650.375 1026.78 650.294 1025.3 651.947 1028.35 C 654.454 1029.61 654.723 1029.37 657.605 1029.47 C 659.466 1031.62 659.757 1031.5 660.026 1034.24 C 658.242 1036.63 657.887 1036.59 655.303 1038.21 C 654.933 1041 654.793 1039.58 656.656 1042.42 L 657.52 1042.71 C 660.089 1043.57 660.906 1043.68 663.052 1045.42 L 663.822 1047.99 C 660.774 1052.84 658.907 1048.42 656.986 1053.48 C 659.756 1059.1 664.4 1055.42 665.962 1062.04 C 663.343 1063.94 663.408 1063.54 660.069 1064.15 C 658.217 1066.43 658.874 1065.07 659.226 1068.96 C 662.599 1072.9 664.722 1070.29 667.561 1074.79 L 667.803 1077.48 C 664.926 1078.54 664.762 1078.16 661.554 1077.95 L 660.21 1078.9 C 659.955 1082.31 659.635 1080.74 661.224 1083.79 C 663.888 1084.93 665.406 1085.43 667.757 1087.21 C 668.315 1090.12 668.615 1088.79 667.246 1091.35 C 664.084 1090.96 663.751 1090.71 660.855 1089.62 L 659.649 1090.37 C 660.609 1098.99 668.104 1098.41 667.125 1102.65 C 664.033 1102.76 663.319 1102.52 660.323 1101.99 L 658.82 1103 C 658.65 1108.46 665.148 1109.62 665.773 1114.4 C 662.671 1115.23 661.924 1114.49 658.471 1113.57 L 657.14 1114.56 C 657.314 1121.93 663.807 1123.07 662.971 1126.85 C 659.946 1127.59 657.546 1126.52 654.463 1125.68 L 652.988 1126.51 C 653.433 1134.74 661.33 1130.08 657.728 1140.06 C 654.901 1140.31 654.579 1139.72 651.728 1138.52 L 649.415 1138.83 C 648.92 1142.67 651.051 1145.1 653.504 1148.28 C 654.138 1149.11 654.781 1149.92 655.432 1150.73 L 655.019 1152.36 L 655.645 1151.51 L 654.726 1149.6 L 654.14 1152.52 C 651.723 1152.16 644.471 1150.79 642.518 1151.22 L 641.796 1152.27 C 643.995 1157.56 647.198 1159.13 648.05 1163.98 C 645.07 1166.97 642.244 1164.17 639.284 1162.25 L 637.827 1161.33 C 637.529 1161.13 637.231 1160.93 636.932 1160.73 C 640.341 1169.57 643.244 1175.5 647.005 1183.76 z" fill="rgb(255,255,254)" transform="translate(0,0)"></path>
<path d="M 1674.68 861.059 L 1677.31 861.528 C 1679.33 866.821 1678.37 935.808 1678.45 945.729 L 1678.79 1454.15 C 1672.19 1453.82 1665.31 1453.27 1658.7 1452.73 C 1619.66 1449.57 1580.13 1448.64 1541.15 1445.18 C 1535.51 1445.01 1529.67 1444.49 1524.03 1444.09 L 1523.76 954.603 C 1544.79 927.44 1588.85 895.406 1620.24 880.423 C 1635.74 873.027 1658.06 865.801 1674.68 861.059 z" fill="rgb(255,255,254)" transform="translate(0,0)"></path>
<path d="M 1125.64 904.764 C 1143.19 905.712 1183.84 912.896 1202 915.641 L 1280.66 926.814 C 1307.18 930.718 1335 935.33 1361.51 938.33 L 1361.88 1239.67 L 1332.24 1243.55 C 1322.53 1244.94 1312.78 1246.1 1303.03 1247.22 C 1244 1254.01 1184.73 1262.99 1125.68 1269.09 L 1125.64 904.764 z" fill="rgb(255,255,254)" transform="translate(0,0)"></path>
<path d="M 929.263 418.188 C 947.727 426.372 972.227 434.647 991.778 441.962 L 1112.57 487.157 C 1249.8 539.445 1387.35 590.874 1525.22 641.44 C 1627.34 679.246 1728.32 722.038 1829.96 761.189 C 1860.39 772.909 1891.31 786.268 1922.03 796.884 L 1922.17 820.672 C 1877.85 805.397 1832.88 786.163 1787.6 770.451 L 1330.77 615.28 L 1116.62 541.584 C 1083.4 530.38 1052.82 518.946 1018.87 508.699 C 989.258 500.004 959.477 491.908 929.541 484.415 C 928.508 464.648 929.185 438.444 929.263 418.188 z" fill="rgb(255,255,254)" transform="translate(0,0)"></path>
<path d="M 348.438 747.812 C 359.712 747.676 389.383 754.545 401.817 756.371 C 457.434 764.542 512.621 775.951 568.088 785.242 C 630.08 795.626 693.495 804.055 755.457 814.285 L 944.934 845.988 C 968.165 849.935 991.843 854.755 1014.92 858.376 L 1014.89 878.531 C 994.831 876.273 975.216 871.875 955.32 869.091 C 797.602 847.025 640.213 817.765 482.282 797.531 L 482.158 1136.5 L 482.029 1734.36 C 475.157 1737.11 466.206 1739.46 458.947 1741.57 C 457.188 1694.67 457.838 1643.92 457.763 1596.85 L 457.939 1342.07 L 456.796 794.262 C 419.358 787.472 377.819 782.415 339.627 776.026 C 340.95 763.178 340.649 758.213 348.438 747.812 z" fill="rgb(255,255,254)" transform="translate(0,0)"></path>
<path d="M 1065.94 637.168 L 1069.09 637.751 C 1071.12 641.009 1070.64 644.316 1070.65 648.618 C 1070.78 708.347 1070.76 768.153 1070.81 827.874 L 1070.53 1213.07 C 1070.23 1391.79 1072.98 1573.24 1070.6 1751.64 C 1062.53 1749.27 1054.3 1746.61 1046.24 1744.12 L 1036.02 1741.05 C 1033.94 1614.42 1036.17 1485.01 1035.83 1358.04 C 1035.11 1209.6 1035.18 1061.15 1036.04 912.711 C 1036.2 824.86 1035.65 734.697 1036.78 646.977 C 1046.26 643.027 1056 639.749 1065.94 637.168 z" fill="rgb(255,255,254)" transform="translate(0,0)"></path>
<path d="M 891.683 409.255 C 894.95 408.748 893.694 408.286 895.888 409.701 C 897.243 427.051 896.033 462.049 896.046 481.254 C 881.665 482.832 865.96 483.01 851.239 484.594 C 803.027 489.782 742.55 500.282 696.562 515.879 C 582.054 554.714 470.414 624.574 380.496 705.271 C 371.715 713.152 335.747 745.999 330.441 752.382 C 328.546 764.999 326.738 784.664 326.629 797.213 C 313.156 796.92 298.331 797.678 284.75 798.129 C 282.95 798.21 283.347 798.094 281.512 797.468 C 278.805 791.217 280.024 760.543 280.134 751.534 C 441.196 573.795 655.958 453.594 891.683 409.255 z" fill="rgb(255,255,254)" transform="translate(0,0)"></path>
<path d="M 1373 918.628 C 1407.42 925.721 1441.27 930.688 1476 938.353 L 1475.98 1248.77 C 1470.64 1249.62 1444.47 1246.7 1437.91 1246 C 1416.41 1243.59 1394.89 1241.33 1373.35 1239.25 C 1372.21 1203.31 1372.89 1163.87 1372.84 1127.64 L 1373 918.628 z" fill="rgb(255,255,254)" transform="translate(0,0)"></path>
<path d="M 1075.9 641.396 C 1083.36 644.307 1095.44 650.447 1103.17 654.089 L 1103.98 1739.25 C 1102.29 1740.11 1099.56 1741.08 1097.73 1741.81 L 1075.65 1751.06 L 1075.9 641.396 z" fill="rgb(255,255,254)" transform="translate(0,0)"></path>
<path d="M 675.857 1367.81 C 690.576 1365.19 706.805 1363.38 721.151 1360.54 L 721.019 1486.54 C 706.156 1489.97 691.219 1493.07 676.22 1495.84 L 671.747 1496.61 C 656.984 1499.59 642.163 1502.28 627.293 1504.68 L 622.546 1505.5 C 612.307 1508.62 587.896 1512.52 575.994 1514.97 L 576.058 1381.46 C 591.1 1379.83 607.875 1377.29 622.915 1375.08 L 627.115 1374.54 C 641.687 1372.21 657.258 1370.35 671.946 1368.35 L 675.857 1367.81 z" fill="rgb(255,255,254)" transform="translate(0,0)"></path>
<path d="M 622.915 1375.08 L 627.115 1374.54 C 627.127 1416.66 626.261 1462.85 627.293 1504.68 L 622.546 1505.5 C 612.307 1508.62 587.896 1512.52 575.994 1514.97 L 576.058 1381.46 C 591.1 1379.83 607.875 1377.29 622.915 1375.08 z" fill="rgb(255,255,254)" transform="translate(0,0)"></path>
<path d="M 622.915 1375.08 L 627.115 1374.54 C 627.127 1416.66 626.261 1462.85 627.293 1504.68 L 622.546 1505.5 L 622.915 1375.08 z" fill="rgb(20,47,36)" transform="translate(0,0)"></path>
<path d="M 675.857 1367.81 C 690.576 1365.19 706.805 1363.38 721.151 1360.54 L 721.019 1486.54 C 706.156 1489.97 691.219 1493.07 676.22 1495.84 C 675.461 1481.94 675.963 1464.4 675.955 1450.05 L 675.857 1367.81 z" fill="rgb(255,255,254)" transform="translate(0,0)"></path>
<path d="M 671.946 1368.35 L 675.857 1367.81 L 675.955 1450.05 C 675.963 1464.4 675.461 1481.94 676.22 1495.84 L 671.747 1496.61 C 671.887 1454.04 672.394 1410.88 671.946 1368.35 z" fill="rgb(21,68,50)" transform="translate(0,0)"></path>
<path d="M 1726.56 777.254 L 1754.93 786.631 C 1755.4 788.02 1755.39 788.686 1756.26 789.59 C 1762.3 787.857 1781.48 794.347 1787.62 796.873 L 1776.63 804.098 C 1762.94 812.893 1749.91 821.216 1735.86 829.405 C 1730.58 828.383 1724.81 827.153 1719.54 826.333 C 1720.57 854.17 1719.92 884.794 1719.92 912.958 L 1719.99 1063.96 L 1720.02 1502.47 C 1713.96 1501.13 1706.6 1499.69 1700.78 1497.88 C 1698.43 1471.69 1699.77 1425.28 1699.85 1398.15 L 1699.98 1228.32 L 1699.87 940.941 C 1700.01 905.949 1698.43 865.347 1699.78 831.069 L 1699.94 828.07 C 1695.95 822.849 1685.34 822.29 1677.63 819.641 L 1676.62 819.283 L 1726.56 777.254 z" fill="rgb(255,255,254)" transform="translate(0,0)"></path>
<path d="M 1726.56 777.254 L 1754.93 786.631 C 1739.12 798.472 1714.48 815.761 1699.94 828.07 C 1695.95 822.849 1685.34 822.29 1677.63 819.641 L 1676.62 819.283 L 1726.56 777.254 z" fill="rgb(255,255,254)" transform="translate(0,0)"></path>
<path d="M 1754.93 786.631 C 1755.4 788.02 1755.39 788.686 1756.26 789.59 C 1753.03 795.077 1706.79 828.831 1699.78 831.069 L 1699.94 828.07 C 1714.48 815.761 1739.12 798.472 1754.93 786.631 z" fill="rgb(20,47,36)" transform="translate(0,0)"></path>
<path d="M 1355.39 776.433 C 1368.42 780.221 1383.56 782.917 1396.22 787.066 L 1399.55 790.258 C 1400.7 789.791 1401.85 789.325 1403 788.858 C 1412.72 790.856 1429.78 794.003 1438.76 798.111 L 1443.76 800.348 C 1448.96 799.283 1476.17 807.158 1483.12 808.781 C 1451.89 836.437 1416.94 862.013 1384.12 887.793 C 1376.88 893.482 1369.25 899.011 1361.56 904.072 C 1351.19 901.883 1333.43 898.544 1323.03 897.746 L 1321.97 896.608 C 1320.04 896.426 1318.8 896.096 1316.98 895.45 C 1312.62 897.077 1283.37 890.705 1276.17 889.664 C 1274.47 888.115 1273.55 886.993 1272.05 885.288 C 1270.81 886.078 1268.44 887.665 1266.95 887.475 C 1253.6 885.768 1240.16 883.372 1226.8 881.563 C 1237.48 871.284 1256.49 857.163 1268.4 847.463 C 1297.65 823.65 1326.78 801.098 1355.39 776.433 z" fill="rgb(255,255,254)" transform="translate(0,0)"></path>
<path d="M 1355.39 776.433 C 1368.42 780.221 1383.56 782.917 1396.22 787.066 C 1386.56 795.24 1375.95 803.522 1365.84 811.205 C 1334.51 835.016 1304.1 862.687 1272.05 885.288 C 1270.81 886.078 1268.44 887.665 1266.95 887.475 C 1253.6 885.768 1240.16 883.372 1226.8 881.563 C 1237.48 871.284 1256.49 857.163 1268.4 847.463 C 1297.65 823.65 1326.78 801.098 1355.39 776.433 z" fill="rgb(255,255,254)" transform="translate(0,0)"></path>
<path d="M 1443.76 800.348 C 1448.96 799.283 1476.17 807.158 1483.12 808.781 C 1451.89 836.437 1416.94 862.013 1384.12 887.793 C 1376.88 893.482 1369.25 899.011 1361.56 904.072 C 1351.19 901.883 1333.43 898.544 1323.03 897.746 C 1324.26 895.239 1323.65 895.982 1325.9 894.261 C 1365.72 863.762 1404.61 831.793 1443.76 800.348 z" fill="rgb(255,255,254)" transform="translate(0,0)"></path>
<path d="M 1396.22 787.066 L 1399.55 790.258 C 1388.56 800.422 1277.38 886.676 1276.17 889.664 C 1274.47 888.115 1273.55 886.993 1272.05 885.288 C 1304.1 862.687 1334.51 835.016 1365.84 811.205 C 1375.95 803.522 1386.56 795.24 1396.22 787.066 z" fill="rgb(20,47,36)" transform="translate(0,0)"></path>
<path d="M 1438.76 798.111 L 1443.76 800.348 C 1404.61 831.793 1365.72 863.762 1325.9 894.261 C 1323.65 895.982 1324.26 895.239 1323.03 897.746 L 1321.97 896.608 C 1320.04 896.426 1318.8 896.096 1316.98 895.45 C 1320.02 892.438 1324.87 889.033 1328.39 886.344 C 1351.36 868.795 1373.71 850.483 1396.11 832.222 C 1410.07 820.843 1425.27 809.961 1438.76 798.111 z" fill="rgb(20,47,36)" transform="translate(0,0)"></path>
<path d="M 1012.92 1434.5 C 1014.6 1436.27 1013.93 1461.57 1013.91 1465.64 C 1000.35 1467 984.137 1471.11 970.753 1474.13 L 903.279 1489.62 L 704.06 1535.2 L 649.719 1547.95 C 643.212 1549.49 619.956 1555.59 614.752 1555.07 C 595.965 1553.2 567.968 1543.94 549.214 1538.84 L 529.126 1533.49 C 579.494 1522.19 629.027 1513.34 679.666 1503.46 L 826.472 1473.51 L 941.982 1449.11 C 963.71 1444.41 991.23 1437.71 1012.92 1434.5 z" fill="rgb(255,255,254)" transform="translate(0,0)"></path>
<path d="M 684.882 608.797 C 710.607 615.674 736.466 622.043 762.443 627.901 C 759.108 631.858 755.117 635.868 751.313 639.386 C 701.534 685.409 650.735 730.329 601.28 776.7 C 600.111 776.731 598.942 776.763 597.773 776.795 L 517.384 763.186 C 556.034 725.854 594.228 688.509 634.555 652.988 C 651.217 638.312 667.583 622.69 684.882 608.797 z" fill="rgb(255,255,254)" transform="translate(0,0)"></path>
<path d="M 628.221 596.774 C 633.844 596.982 670.215 606.332 677.414 608.101 C 619.2 657.607 566.623 711.163 510.214 761.969 C 498.873 759.785 485.46 758.016 473.907 756.205 C 456.041 752.771 434.388 750.059 416.138 747.28 C 424.366 737.829 445.735 719.693 455.754 711.312 C 508.508 666.442 566.402 627.994 628.221 596.774 z" fill="rgb(255,255,254)" transform="translate(0,0)"></path>
<path d="M 769.609 630.075 C 793.241 636.57 816.945 642.802 840.715 648.771 C 825.936 664.419 687.975 789.184 680.767 789.791 C 656.768 786.972 630.954 781.487 606.566 777.951 C 656.672 733.172 705.321 686.49 755.747 642.006 C 760.443 637.863 764.552 633.83 769.609 630.075 z" fill="rgb(255,255,254)" transform="translate(0,0)"></path>
<path d="M 954.982 537.337 C 962.142 536.373 1026.94 554.144 1036.89 557.717 L 1042.2 559.59 C 1051.43 560.366 1100.18 576.86 1109.48 581.303 L 1113.24 583.671 C 1116.26 582.168 1126.44 585.845 1130.42 587.006 C 1125.08 589.735 1090.56 606.147 1086.73 606.768 L 1082.8 605.574 C 1066.9 616.884 1046.26 631.938 1029.71 641.668 C 1012.9 636.57 984.275 629.041 969.018 623.537 C 968.498 621.341 968.141 621.394 966.737 619.36 C 961.259 622.683 956.318 621.141 950.571 618.438 C 939.719 613.334 890.347 603.233 884.134 598.126 C 897.924 585.517 912.894 573.392 927.15 561.245 C 936.264 553.479 945.748 544.709 954.982 537.337 z" fill="rgb(255,255,254)" transform="translate(0,0)"></path>
<path d="M 1036.89 557.717 L 1042.2 559.59 C 1051.43 560.366 1100.18 576.86 1109.48 581.303 L 1113.24 583.671 C 1116.26 582.168 1126.44 585.845 1130.42 587.006 C 1125.08 589.735 1090.56 606.147 1086.73 606.768 L 1082.8 605.574 C 1066.9 616.884 1046.26 631.938 1029.71 641.668 C 1012.9 636.57 984.275 629.041 969.018 623.537 C 968.498 621.341 968.141 621.394 966.737 619.36 C 967.545 618.271 984.91 603.632 987.19 601.654 C 1003.83 587.094 1020.4 572.448 1036.89 557.717 z" fill="rgb(255,255,254)" transform="translate(0,0)"></path>
<path d="M 1036.89 557.717 L 1042.2 559.59 C 1021.03 579.986 988.482 603.345 969.018 623.537 C 968.498 621.341 968.141 621.394 966.737 619.36 C 967.545 618.271 984.91 603.632 987.19 601.654 C 1003.83 587.094 1020.4 572.448 1036.89 557.717 z" fill="rgb(20,47,36)" transform="translate(0,0)"></path>
<path d="M 1113.24 583.671 C 1116.26 582.168 1126.44 585.845 1130.42 587.006 C 1125.08 589.735 1090.56 606.147 1086.73 606.768 C 1091.94 601.291 1106.32 590.094 1113.24 583.671 z" fill="rgb(255,255,254)" transform="translate(0,0)"></path>
<path d="M 1109.48 581.303 L 1113.24 583.671 C 1106.32 590.094 1091.94 601.291 1086.73 606.768 L 1082.8 605.574 C 1089.87 599.416 1103.81 587.877 1109.48 581.303 z" fill="rgb(20,47,36)" transform="translate(0,0)"></path>
<path d="M 1009.08 1320.31 C 1010.88 1320.12 1011.63 1319.64 1013.39 1318.98 C 1013.78 1319.65 1014.18 1320.32 1014.58 1320.99 C 1014.08 1338.15 1016.93 1414.88 1014.21 1426.92 L 1007.98 1427.11 C 999.097 1428.98 989.661 1430.79 980.87 1432.87 L 975.908 1434.02 C 965.918 1436.13 951.99 1439.44 942.113 1440.53 L 937.909 1441.16 C 933.413 1443.63 905.75 1448.88 901.182 1448.77 C 900.264 1448.07 899.784 1448.13 898.54 1447.81 C 896.945 1441.46 897.478 1386.55 897.799 1377.42 C 898.921 1368.85 898.501 1347.28 898.774 1337.34 C 899.491 1341 899.48 1345.21 899.651 1348.99 L 900.777 1350.69 L 900.933 1335.4 C 913.377 1333.7 925.802 1331.86 938.206 1329.89 L 941.997 1329.15 C 949.758 1328.78 967.617 1325.83 976.034 1324.67 L 979.759 1324.47 C 984.467 1322.62 1003.68 1320.36 1009.08 1320.31 z" fill="rgb(255,255,254)" transform="translate(0,0)"></path>
<path d="M 938.206 1329.89 C 938.01 1363.7 936.484 1408.12 937.909 1441.16 C 933.413 1443.63 905.75 1448.88 901.182 1448.77 C 900.264 1448.07 899.784 1448.13 898.54 1447.81 C 896.945 1441.46 897.478 1386.55 897.799 1377.42 C 898.921 1368.85 898.501 1347.28 898.774 1337.34 C 899.491 1341 899.48 1345.21 899.651 1348.99 L 900.777 1350.69 L 900.933 1335.4 C 913.377 1333.7 925.802 1331.86 938.206 1329.89 z" fill="rgb(255,255,254)" transform="translate(0,0)"></path>
<path d="M 897.799 1377.42 C 898.921 1368.85 898.501 1347.28 898.774 1337.34 C 899.491 1341 899.48 1345.21 899.651 1348.99 L 900.777 1350.69 L 901.182 1448.77 C 900.264 1448.07 899.784 1448.13 898.54 1447.81 C 896.945 1441.46 897.478 1386.55 897.799 1377.42 z" fill="rgb(12,20,15)" transform="translate(0,0)"></path>
<path d="M 1009.08 1320.31 C 1010.88 1320.12 1011.63 1319.64 1013.39 1318.98 C 1013.78 1319.65 1014.18 1320.32 1014.58 1320.99 C 1014.08 1338.15 1016.93 1414.88 1014.21 1426.92 L 1007.98 1427.11 C 999.097 1428.98 989.661 1430.79 980.87 1432.87 C 978.827 1428.08 979.846 1338.91 979.759 1324.47 C 984.467 1322.62 1003.68 1320.36 1009.08 1320.31 z" fill="rgb(255,255,254)" transform="translate(0,0)"></path>
<path d="M 1009.08 1320.31 C 1010.88 1320.12 1011.63 1319.64 1013.39 1318.98 C 1013.78 1319.65 1014.18 1320.32 1014.58 1320.99 C 1014.08 1338.15 1016.93 1414.88 1014.21 1426.92 L 1007.98 1427.11 C 1008.2 1395.37 1007.12 1351 1009.08 1320.31 z" fill="rgb(21,68,50)" transform="translate(0,0)"></path>
<path d="M 1013.39 1318.98 C 1013.78 1319.65 1014.18 1320.32 1014.58 1320.99 C 1014.08 1338.15 1016.93 1414.88 1014.21 1426.92 L 1012.63 1425.41 C 1011.02 1418.36 1011.7 1322.75 1013.39 1318.98 z" fill="rgb(255,255,254)" transform="translate(0,0)"></path>
<path d="M 938.206 1329.89 L 941.997 1329.15 L 941.868 1401.01 C 941.861 1412.59 941.467 1429.36 942.113 1440.53 L 937.909 1441.16 C 936.484 1408.12 938.01 1363.7 938.206 1329.89 z" fill="rgb(20,47,36)" transform="translate(0,0)"></path>
<path d="M 976.034 1324.67 L 979.759 1324.47 C 979.846 1338.91 978.827 1428.08 980.87 1432.87 L 975.908 1434.02 L 976.034 1324.67 z" fill="rgb(21,68,50)" transform="translate(0,0)"></path>
<path d="M 847.916 650.731 C 857.445 651.383 906.789 665.162 918.094 668.104 C 869.437 714.719 816.758 757.525 766.41 802.303 C 765.522 802.344 764.635 802.385 763.748 802.426 C 738.778 799.35 715.039 795.335 690.211 791.36 C 708.228 774.766 726.323 759.292 744.356 742.954 C 778.432 711.718 812.955 680.974 847.916 650.731 z" fill="rgb(255,255,254)" transform="translate(0,0)"></path>
<path d="M 489.972 1394.34 L 521.176 1389.44 L 520.966 1480.53 C 520.957 1487.91 521.201 1522.36 519.648 1527.85 C 517.996 1528.65 516.338 1529.19 514.568 1529.68 C 512.306 1535.22 513.777 1558.4 513.731 1565.38 C 513.71 1568.63 518.059 1570.57 521.099 1572.77 L 522.719 1575.47 C 523.202 1575.27 525.007 1574.43 525.439 1574.4 C 540.087 1582.88 555.208 1591.41 569.671 1600.14 C 568.195 1613.76 569.059 1643.62 568.817 1659.14 C 559.826 1662.01 534.302 1670.36 525.692 1670.56 L 521.103 1672.11 C 512.358 1675.12 499.306 1677.74 490.079 1679.77 L 489.972 1394.34 z" fill="rgb(255,255,254)" transform="translate(0,0)"></path>
<path d="M 525.439 1574.4 C 540.087 1582.88 555.208 1591.41 569.671 1600.14 C 568.195 1613.76 569.059 1643.62 568.817 1659.14 C 559.826 1662.01 534.302 1670.36 525.692 1670.56 C 526.332 1642.1 526.437 1602.65 525.439 1574.4 z" fill="rgb(255,255,254)" transform="translate(0,0)"></path>
<path d="M 521.099 1572.77 L 522.719 1575.47 C 523.202 1575.27 525.007 1574.43 525.439 1574.4 C 526.437 1602.65 526.332 1642.1 525.692 1670.56 L 521.103 1672.11 L 521.099 1572.77 z" fill="rgb(20,47,36)" transform="translate(0,0)"></path>
<path d="M 925.038 669.793 C 940.215 671.889 973.359 682.235 989.24 686.797 L 988.094 688.058 C 981.84 694.828 967.374 707.134 959.896 713.735 C 942.153 729.428 924.262 744.953 906.225 760.308 C 897.433 767.814 844.935 815.379 838.675 815.62 C 816.159 811.51 793.585 807.726 770.959 804.269 C 783.132 795.857 803.51 776.418 815.503 766.246 C 852.316 735.021 887.975 700.561 925.038 669.793 z" fill="rgb(255,255,254)" transform="translate(0,0)"></path>
<path d="M 1012.92 1292.54 C 1013.76 1295.29 1013.52 1306.68 1013.54 1310.28 C 839.125 1332.64 664.94 1356.75 491.01 1382.6 L 490.11 1381.88 C 489.09 1376.41 489.54 1366.37 489.614 1360.41 L 891.629 1308.02 C 931.687 1302.94 972.904 1296.94 1012.92 1292.54 z" fill="rgb(255,255,254)" transform="translate(0,0)"></path>
<path d="M 817.39 1347.08 C 829.161 1344.78 844.667 1342.87 856.726 1341.53 L 856.023 1458.86 C 843.056 1462.1 830.795 1464.59 817.686 1467.22 L 813.527 1467.71 C 808.807 1469.44 780.127 1474.48 773.363 1475.75 C 773.265 1470.33 773.136 1464.9 772.976 1459.48 C 771.286 1464.75 773.025 1468.59 771.279 1474.49 C 769.741 1470.57 770.584 1438.85 769.913 1430.92 L 769.797 1429.69 C 768.917 1420.88 769.454 1393.58 769.795 1384.2 C 770.535 1377.65 769.765 1357.86 770.849 1354.93 L 772.246 1356.8 C 771.495 1361.83 771.23 1362.71 772.869 1367.47 L 773.087 1353.49 C 785.271 1351.59 801.588 1348.6 813.535 1347.78 L 817.39 1347.08 z" fill="rgb(255,255,254)" transform="translate(0,0)"></path>
<path d="M 817.39 1347.08 C 829.161 1344.78 844.667 1342.87 856.726 1341.53 L 856.023 1458.86 C 843.056 1462.1 830.795 1464.59 817.686 1467.22 L 813.527 1467.71 L 813.535 1347.78 L 817.39 1347.08 z" fill="rgb(255,255,254)" transform="translate(0,0)"></path>
<path d="M 813.535 1347.78 L 817.39 1347.08 C 816.75 1386.45 817.336 1427.76 817.686 1467.22 L 813.527 1467.71 L 813.535 1347.78 z" fill="rgb(20,47,36)" transform="translate(0,0)"></path>
<path d="M 769.795 1384.2 C 770.535 1377.65 769.765 1357.86 770.849 1354.93 L 772.246 1356.8 C 771.495 1361.83 771.23 1362.71 772.869 1367.47 C 773.09 1387.77 773.203 1408.06 773.209 1428.35 C 773.228 1435.14 773.683 1453.11 772.976 1459.48 C 771.286 1464.75 773.025 1468.59 771.279 1474.49 C 769.741 1470.57 770.584 1438.85 769.913 1430.92 L 769.797 1429.69 C 768.917 1420.88 769.454 1393.58 769.795 1384.2 z" fill="rgb(12,20,15)" transform="translate(0,0)"></path>
<path d="M 1299.83 1277.42 C 1305.34 1275.8 1316.98 1273.98 1322.62 1274.27 C 1322.62 1280.77 1322.23 1293.95 1322.79 1299.9 C 1321.82 1319.3 1322.35 1341.57 1322.29 1361.26 C 1315.94 1362.61 1306.16 1364.96 1300.01 1365.58 L 1298.05 1366.86 C 1290.7 1367.58 1279.62 1371.07 1274.35 1371.04 L 1271.82 1370 C 1267.83 1374.91 1255.85 1376.11 1248.88 1377.85 C 1247.37 1377.51 1246.14 1377.11 1244.6 1377.78 C 1239.57 1380.52 1227.33 1382.44 1221.06 1383.68 L 1220.76 1288.29 C 1228.62 1287.29 1236.48 1286.38 1244.27 1284.96 L 1247.75 1285.11 C 1252.09 1283.83 1268.17 1280.9 1271.52 1282.76 L 1273.85 1281.07 C 1281.3 1279.73 1288.76 1278.46 1296.23 1277.28 C 1297.06 1277.3 1299.1 1277.29 1299.83 1277.42 z" fill="rgb(255,255,254)" transform="translate(0,0)"></path>
<path d="M 1299.83 1277.42 C 1305.34 1275.8 1316.98 1273.98 1322.62 1274.27 C 1322.62 1280.77 1322.23 1293.95 1322.79 1299.9 C 1321.82 1319.3 1322.35 1341.57 1322.29 1361.26 C 1315.94 1362.61 1306.16 1364.96 1300.01 1365.58 L 1298.05 1366.86 C 1290.7 1367.58 1279.62 1371.07 1274.35 1371.04 L 1271.82 1370 C 1270.19 1363.22 1270.63 1292.32 1271.52 1282.76 L 1273.85 1281.07 C 1281.3 1279.73 1288.76 1278.46 1296.23 1277.28 C 1297.06 1277.3 1299.1 1277.29 1299.83 1277.42 z" fill="rgb(255,255,254)" transform="translate(0,0)"></path>
<path d="M 1299.83 1277.42 C 1305.34 1275.8 1316.98 1273.98 1322.62 1274.27 C 1322.62 1280.77 1322.23 1293.95 1322.79 1299.9 C 1321.82 1319.3 1322.35 1341.57 1322.29 1361.26 C 1315.94 1362.61 1306.16 1364.96 1300.01 1365.58 C 1300.32 1336.38 1299.94 1306.67 1299.83 1277.42 z" fill="rgb(255,255,254)" transform="translate(0,0)"></path>
<path d="M 1273.85 1281.07 C 1274.19 1300.99 1274.24 1320.91 1274.02 1340.83 C 1274 1349.14 1273.61 1362.96 1274.35 1371.04 L 1271.82 1370 C 1270.19 1363.22 1270.63 1292.32 1271.52 1282.76 L 1273.85 1281.07 z" fill="rgb(12,20,15)" transform="translate(0,0)"></path>
<path d="M 1296.23 1277.28 C 1297.06 1277.3 1299.1 1277.29 1299.83 1277.42 C 1299.94 1306.67 1300.32 1336.38 1300.01 1365.58 L 1298.05 1366.86 C 1296.2 1359.62 1297.26 1352.08 1296.86 1345.47 C 1296 1331.26 1298.97 1289.35 1296.23 1277.28 z" fill="rgb(20,47,36)" transform="translate(0,0)"></path>
<path d="M 1244.27 1284.96 C 1244.36 1304.88 1244.31 1324.8 1244.12 1344.72 C 1244.08 1352.3 1243.65 1370.85 1244.6 1377.78 C 1239.57 1380.52 1227.33 1382.44 1221.06 1383.68 L 1220.76 1288.29 C 1228.62 1287.29 1236.48 1286.38 1244.27 1284.96 z" fill="rgb(255,255,254)" transform="translate(0,0)"></path>
<path d="M 1244.27 1284.96 L 1247.75 1285.11 C 1247.76 1296.68 1246.89 1372.7 1248.88 1377.85 C 1247.37 1377.51 1246.14 1377.11 1244.6 1377.78 C 1243.65 1370.85 1244.08 1352.3 1244.12 1344.72 C 1244.31 1324.8 1244.36 1304.88 1244.27 1284.96 z" fill="rgb(21,68,50)" transform="translate(0,0)"></path>
<path d="M 1723.93 831.58 C 1728.51 832.847 1733.05 834.574 1737.53 836.175 C 1739.43 894.201 1738.03 959.245 1738.06 1017.93 L 1738.2 1339.55 L 1738.11 1455.93 C 1738.13 1468.59 1738.49 1484.45 1738.09 1497.31 C 1738.05 1498.64 1737.24 1498.68 1735.78 1499.57 L 1724.32 1502.05 L 1723.93 831.58 z" fill="rgb(255,255,254)" transform="translate(0,0)"></path>
<path d="M 996.681 688.721 C 1003.31 690.837 1010.22 692.355 1016.99 693.976 L 1017.26 739.136 C 984.237 767.481 945.961 801.931 911.988 828.195 C 900.392 825.739 888.399 823.826 876.697 821.811 L 847.041 816.891 C 880.212 790.751 912.211 761.435 944.105 733.698 C 961.65 718.44 978.015 702.715 996.681 688.721 z" fill="rgb(255,255,254)" transform="translate(0,0)"></path>
<path d="M 1125.08 718.06 L 1139.54 721.78 C 1140.87 722.217 1142.85 722.948 1144.14 723.244 C 1156.06 724.25 1184.74 732.134 1197.74 735.452 C 1200.23 737.133 1200.05 737.383 1202.78 738.075 C 1210.35 738.102 1246.5 748.408 1255.16 750.737 C 1225.94 773.264 1196.97 796.132 1168.28 819.335 C 1156.17 829.233 1137.77 846.073 1125.88 854.53 C 1125.53 844.636 1122.64 805.213 1127.62 799.368 C 1127.85 799.099 1128.11 798.861 1128.36 798.607 L 1125.16 795.061 C 1125.35 785.797 1123.65 745.253 1126.39 739.928 L 1125.18 735.017 L 1125.08 718.06 z" fill="rgb(255,255,254)" transform="translate(0,0)"></path>
<path d="M 1125.08 718.06 L 1139.54 721.78 C 1140.87 722.217 1142.85 722.948 1144.14 723.244 C 1156.06 724.25 1184.74 732.134 1197.74 735.452 C 1196.44 738.917 1129.81 793.516 1125.16 795.061 C 1125.35 785.797 1123.65 745.253 1126.39 739.928 L 1125.18 735.017 L 1125.08 718.06 z" fill="rgb(255,255,254)" transform="translate(0,0)"></path>
<path d="M 1125.08 718.06 L 1139.54 721.78 C 1134.9 727.244 1131.1 730.798 1125.18 735.017 L 1125.08 718.06 z" fill="rgb(255,255,254)" transform="translate(0,0)"></path>
<path d="M 1139.54 721.78 C 1140.87 722.217 1142.85 722.948 1144.14 723.244 C 1140.18 727.349 1130.83 737.641 1126.39 739.928 L 1125.18 735.017 C 1131.1 730.798 1134.9 727.244 1139.54 721.78 z" fill="rgb(20,47,36)" transform="translate(0,0)"></path>
<path d="M 1197.74 735.452 C 1200.23 737.133 1200.05 737.383 1202.78 738.075 C 1187.48 751.894 1169.24 765.627 1153.43 779.122 C 1149.08 782.832 1132.19 796.572 1128.36 798.607 L 1125.16 795.061 C 1129.81 793.516 1196.44 738.917 1197.74 735.452 z" fill="rgb(20,47,36)" transform="translate(0,0)"></path>
<path d="M 852.931 527.218 C 888.062 525.23 915.366 526.393 949.687 535.838 L 954.982 537.337 C 945.748 544.709 936.264 553.479 927.15 561.245 C 912.894 573.392 897.924 585.517 884.134 598.126 C 882.875 597.754 880.414 597.549 879.01 597.377 C 870.275 595.952 846.724 587.512 836.596 584.649 C 827.448 582.063 805.601 576.362 798.075 573.282 L 793.053 571.553 C 788.53 572.781 739.971 557.483 732.323 555.175 C 770.474 542.052 802.921 536.997 842.297 529.836 L 843.979 529.907 L 845.464 532.949 L 852.931 527.218 z" fill="rgb(255,255,254)" transform="translate(0,0)"></path>
<path d="M 842.297 529.836 L 843.979 529.907 L 845.464 532.949 C 830.686 546.234 811.912 559.674 798.075 573.282 L 793.053 571.553 C 788.53 572.781 739.971 557.483 732.323 555.175 C 770.474 542.052 802.921 536.997 842.297 529.836 z" fill="rgb(255,255,254)" transform="translate(0,0)"></path>
<path d="M 842.297 529.836 L 843.979 529.907 L 845.464 532.949 C 830.686 546.234 811.912 559.674 798.075 573.282 L 793.053 571.553 C 806.735 557.613 826.853 542.325 842.297 529.836 z" fill="rgb(20,47,36)" transform="translate(0,0)"></path>
<path d="M 949.687 535.838 L 954.982 537.337 C 945.748 544.709 936.264 553.479 927.15 561.245 C 912.894 573.392 897.924 585.517 884.134 598.126 C 882.875 597.754 880.414 597.549 879.01 597.377 C 898.197 578.259 928.392 554.03 949.687 535.838 z" fill="rgb(20,47,36)" transform="translate(0,0)"></path>
<path d="M 1395.68 1270.63 C 1402.39 1270.46 1409.95 1272.03 1415.02 1271.78 L 1417.98 1272.13 C 1422.37 1272.7 1431.19 1273.85 1435.45 1273.7 L 1437.81 1274.48 C 1442.29 1274.69 1453.44 1275.95 1456.65 1275.81 L 1458.9 1276.7 C 1464.41 1276.98 1469.71 1277.1 1475.16 1277.99 C 1475.74 1329.74 1475.95 1381.49 1475.79 1433.24 L 1458.01 1430.64 L 1456.06 1430.18 C 1451.74 1429.53 1441.63 1428.37 1438.11 1426.66 L 1435.53 1426.58 C 1431.53 1426.57 1419.74 1424.59 1415.18 1423.94 C 1428.8 1414.69 1442.34 1405.34 1455.8 1395.88 L 1458.08 1394.67 C 1461.42 1391.45 1467.66 1390.66 1470.3 1385.32 C 1466.47 1375.46 1471.61 1374.66 1469.38 1368.07 C 1468.06 1367.53 1466.87 1367.07 1465.52 1366.59 L 1464.43 1366.21 C 1464.35 1362.05 1469.05 1362.93 1469.4 1358.73 C 1466.24 1356.88 1463.3 1356.96 1459.6 1356.58 L 1456.71 1356.08 C 1451.49 1356.1 1443.03 1355.2 1438 1353.97 L 1435.1 1353.63 C 1429.98 1354.16 1423.54 1354.54 1419.24 1351.82 C 1416.85 1347.77 1417.72 1347.92 1417.71 1342.4 C 1417.28 1344.74 1416.44 1349.68 1415.42 1351.76 C 1409.72 1352.66 1401.27 1351.19 1395.35 1350.43 C 1393.27 1346.57 1393.47 1274.17 1395.68 1270.63 z" fill="rgb(255,255,254)" transform="translate(0,0)"></path>
<path d="M 1458.9 1276.7 C 1464.41 1276.98 1469.71 1277.1 1475.16 1277.99 C 1475.74 1329.74 1475.95 1381.49 1475.79 1433.24 L 1458.01 1430.64 L 1456.06 1430.18 C 1451.74 1429.53 1441.63 1428.37 1438.11 1426.66 L 1435.53 1426.58 C 1431.53 1426.57 1419.74 1424.59 1415.18 1423.94 C 1428.8 1414.69 1442.34 1405.34 1455.8 1395.88 L 1458.08 1394.67 C 1461.42 1391.45 1467.66 1390.66 1470.3 1385.32 C 1466.47 1375.46 1471.61 1374.66 1469.38 1368.07 C 1468.06 1367.53 1466.87 1367.07 1465.52 1366.59 L 1464.43 1366.21 C 1464.35 1362.05 1469.05 1362.93 1469.4 1358.73 C 1466.24 1356.88 1463.3 1356.96 1459.6 1356.58 C 1460.17 1331.65 1459.08 1302.09 1458.9 1276.7 z" fill="rgb(255,255,254)" transform="translate(0,0)"></path>
<path d="M 1455.8 1395.88 C 1456.09 1407.31 1456.17 1418.75 1456.06 1430.18 C 1451.74 1429.53 1441.63 1428.37 1438.11 1426.66 L 1435.53 1426.58 C 1431.53 1426.57 1419.74 1424.59 1415.18 1423.94 C 1428.8 1414.69 1442.34 1405.34 1455.8 1395.88 z" fill="rgb(255,255,254)" transform="translate(0,0)"></path>
<path d="M 1435.53 1426.58 C 1435.33 1421.58 1434.76 1418.21 1436.5 1413.55 L 1437.64 1413.51 C 1439.19 1418.28 1438.5 1421.63 1438.11 1426.66 L 1435.53 1426.58 z" fill="rgb(20,47,36)" transform="translate(0,0)"></path>
<path d="M 1455.8 1395.88 L 1458.08 1394.67 L 1458.01 1430.64 L 1456.06 1430.18 C 1456.17 1418.75 1456.09 1407.31 1455.8 1395.88 z" fill="rgb(171,173,176)" transform="translate(0,0)"></path>
<path d="M 1395.68 1270.63 C 1402.39 1270.46 1409.95 1272.03 1415.02 1271.78 L 1417.98 1272.13 L 1417.9 1283.3 C 1418.04 1303 1417.98 1322.7 1417.71 1342.4 C 1417.28 1344.74 1416.44 1349.68 1415.42 1351.76 C 1409.72 1352.66 1401.27 1351.19 1395.35 1350.43 C 1393.27 1346.57 1393.47 1274.17 1395.68 1270.63 z" fill="rgb(255,255,254)" transform="translate(0,0)"></path>
<path d="M 1414.96 1284.97 C 1416.37 1283.51 1415.8 1284.03 1417.9 1283.3 C 1418.04 1303 1417.98 1322.7 1417.71 1342.4 C 1417.28 1344.74 1416.44 1349.68 1415.42 1351.76 C 1413.94 1340.89 1414.92 1297.92 1414.96 1284.97 z" fill="rgb(12,20,15)" transform="translate(0,0)"></path>
<path d="M 1395.68 1270.63 C 1396.8 1278.55 1396.96 1344.72 1395.35 1350.43 C 1393.27 1346.57 1393.47 1274.17 1395.68 1270.63 z" fill="rgb(20,47,36)" transform="translate(0,0)"></path>
<path d="M 1415.02 1271.78 L 1417.98 1272.13 L 1417.9 1283.3 C 1415.8 1284.03 1416.37 1283.51 1414.96 1284.97 L 1415.02 1271.78 z" fill="rgb(20,47,36)" transform="translate(0,0)"></path>
<path d="M 1417.98 1272.13 C 1422.37 1272.7 1431.19 1273.85 1435.45 1273.7 L 1437.81 1274.48 L 1438 1353.97 L 1435.1 1353.63 C 1429.98 1354.16 1423.54 1354.54 1419.24 1351.82 C 1416.85 1347.77 1417.72 1347.92 1417.71 1342.4 C 1417.98 1322.7 1418.04 1303 1417.9 1283.3 L 1417.98 1272.13 z" fill="rgb(255,255,254)" transform="translate(0,0)"></path>
<path d="M 1435.45 1273.7 L 1437.81 1274.48 L 1438 1353.97 L 1435.1 1353.63 C 1434.4 1331.35 1434.66 1295.73 1435.45 1273.7 z" fill="rgb(12,20,15)" transform="translate(0,0)"></path>
<path d="M 1456.65 1275.81 L 1458.9 1276.7 C 1459.08 1302.09 1460.17 1331.65 1459.6 1356.58 L 1456.71 1356.08 C 1456.33 1329.71 1455.72 1302.09 1456.65 1275.81 z" fill="rgb(21,68,50)" transform="translate(0,0)"></path>
<path d="M 1527.84 821.262 C 1537.76 823.797 1555.4 827.842 1564.51 831.285 L 1567.39 834.209 C 1574.51 831.081 1600.2 840.74 1610.11 843.139 L 1609.37 843.586 C 1598.16 850.16 1582.47 855.668 1571.7 862.163 C 1541.89 880.154 1503.81 904.212 1477.5 926.791 C 1471.7 925.684 1459.57 923.04 1454.15 922.688 L 1452.67 920.985 C 1450.88 920.378 1449.88 919.913 1448.26 919.024 C 1444.45 919.073 1418.76 913.86 1413.38 912.829 C 1430.34 898.483 1448.11 884.753 1465.25 870.533 C 1485.87 853.437 1505.56 836.119 1527.84 821.262 z" fill="rgb(255,255,254)" transform="translate(0,0)"></path>
<path d="M 1567.39 834.209 C 1574.51 831.081 1600.2 840.74 1610.11 843.139 L 1609.37 843.586 C 1598.16 850.16 1582.47 855.668 1571.7 862.163 C 1541.89 880.154 1503.81 904.212 1477.5 926.791 C 1471.7 925.684 1459.57 923.04 1454.15 922.688 C 1457.3 914.973 1553.31 844.21 1567.39 834.209 z" fill="rgb(255,255,254)" transform="translate(0,0)"></path>
<path d="M 1564.51 831.285 L 1567.39 834.209 C 1553.31 844.21 1457.3 914.973 1454.15 922.688 L 1452.67 920.985 C 1450.88 920.378 1449.88 919.913 1448.26 919.024 C 1454.21 913.142 1469.66 902.348 1476.77 896.483 C 1504.86 873.316 1535.61 852.935 1564.51 831.285 z" fill="rgb(20,47,36)" transform="translate(0,0)"></path>
<path d="M 1499.99 921.83 C 1501.16 927.835 1500.57 959.721 1500.54 967.679 L 1500.55 1059.93 L 1499.56 1467.67 L 1487.06 1470.78 C 1485.12 1469.21 1485.15 1466.64 1485.13 1464.32 C 1484.97 1439.38 1485.03 1414.43 1485.03 1389.48 C 1484.86 1342.02 1484.94 1294.55 1485.28 1247.1 L 1485.91 934.642 C 1490.2 930.428 1495.46 925.907 1499.99 921.83 z" fill="rgb(255,255,254)" transform="translate(0,0)"></path>
<path d="M 879.841 1589.22 L 880.887 1589.65 C 882.83 1593.46 881.6 1608.97 881.308 1613.83 C 859.125 1623.41 817.86 1633.92 793.326 1641.17 L 638.785 1687.65 L 637.563 1686.66 C 636.649 1679.71 637.177 1665.25 637.242 1657.7 C 645.831 1654.89 654.902 1652.52 663.641 1650.07 C 735.492 1629.95 807.49 1607.11 879.841 1589.22 z" fill="rgb(255,255,254)" transform="translate(0,0)"></path>
<path d="M 676.528 575.111 C 687.846 578.509 704.577 582.103 716.357 585.048 C 742.881 591.656 769.372 598.399 795.828 605.277 C 869.459 624.869 942.982 644.865 1016.39 665.265 L 1016.44 681.819 C 1009.83 680.717 1000.93 678.081 994.256 676.302 C 964.369 666.287 921.569 657.459 890.302 649.592 L 761.759 617.095 C 723.262 607.828 684.842 598.249 646.5 588.359 C 656.071 583.885 666.772 579.454 676.528 575.111 z" fill="rgb(255,255,254)" transform="translate(0,0)"></path>
<path d="M 1375.68 1357.19 C 1383.84 1356.05 1435.44 1363.41 1445.35 1364.85 C 1406.59 1370.12 1353.32 1385.02 1314.73 1393.85 C 1270.5 1403.97 1225.58 1414.4 1181.5 1424.99 C 1162.79 1429.32 1144.13 1433.88 1125.53 1438.68 C 1125.37 1430.08 1125.46 1421.23 1125.45 1412.61 C 1154.34 1405.05 1188.49 1399.04 1218.23 1392.56 L 1375.68 1357.19 z" fill="rgb(255,255,254)" transform="translate(0,0)"></path>
<path d="M 1261.7 752.234 C 1276.47 755.88 1291.29 759.367 1306.14 762.694 C 1301.51 766.827 1296.1 771.063 1291.23 774.977 C 1250.9 807.377 1209.77 839.698 1168.54 870.93 C 1164.22 871.258 1130.54 866.305 1124.43 865.406 C 1124.72 864.97 1125.02 864.54 1125.31 864.099 C 1134.79 849.583 1243.06 764.764 1261.7 752.234 z" fill="rgb(255,255,254)" transform="translate(0,0)"></path>
<path d="M 1447.32 691.637 C 1464.27 696.896 1481.76 702.093 1498.44 708.005 L 1501.76 711.315 C 1502.84 710.911 1503.91 710.506 1504.99 710.102 C 1516.15 711.916 1538.65 718.089 1548.57 721.817 C 1539.55 731.396 1504.25 758.764 1493 766.209 C 1484.89 763.964 1448.71 755.308 1444.53 753.35 L 1439.94 751.364 C 1434.17 751.158 1399.93 739.919 1390.76 737.634 C 1409.92 719.742 1429.4 707.782 1447.32 691.637 z" fill="rgb(255,255,254)" transform="translate(0,0)"></path>
<path d="M 1501.76 711.315 C 1502.84 710.911 1503.91 710.506 1504.99 710.102 C 1516.15 711.916 1538.65 718.089 1548.57 721.817 C 1539.55 731.396 1504.25 758.764 1493 766.209 C 1484.89 763.964 1448.71 755.308 1444.53 753.35 C 1455.82 746.523 1492.83 720.036 1501.76 711.315 z" fill="rgb(255,255,254)" transform="translate(0,0)"></path>
<path d="M 1498.44 708.005 L 1501.76 711.315 C 1492.83 720.036 1455.82 746.523 1444.53 753.35 L 1439.94 751.364 C 1452.55 742.797 1488.61 717.728 1498.44 708.005 z" fill="rgb(20,47,36)" transform="translate(0,0)"></path>
<path d="M 1125.97 692.368 C 1152.11 697.282 1194.91 710.162 1222.09 717.479 L 1395.59 763.642 L 1558.45 805.555 C 1570.49 808.583 1640.42 825.048 1647.88 829.521 L 1645.82 830.987 L 1632.88 836.133 C 1614.53 832.649 1596.99 827.285 1578.98 822.409 C 1551.98 815.063 1524.92 807.931 1497.81 801.015 L 1318.37 755.873 C 1254.32 738.646 1190.14 721.879 1125.85 705.573 L 1125.97 692.368 z" fill="rgb(255,255,254)" transform="translate(0,0)"></path>
<path d="M 565.926 1383.41 C 570 1382.81 568.299 1382.4 571.527 1383.66 C 572.626 1392.18 571.906 1417.56 571.853 1427.39 L 571.119 1515.97 C 557.106 1518.95 543.153 1522.21 529.267 1525.74 C 527.704 1526.17 528.668 1526.04 526.346 1525.68 C 524.999 1522.76 525.463 1402.95 525.384 1389.11 C 538.457 1386.95 552.72 1385.24 565.926 1383.41 z" fill="rgb(255,255,254)" transform="translate(0,0)"></path>
<path d="M 1012.96 1473.28 C 1014.16 1475.72 1013.77 1481.13 1013.8 1484.24 C 985.609 1491.85 952.326 1498.51 923.49 1505.33 L 728.441 1551.31 C 702.973 1557.29 677.735 1564.23 652.275 1570.26 C 641.282 1572.87 629.036 1576.91 617.74 1577.06 C 606.886 1577.2 535.675 1554.5 520.313 1550.14 C 516.232 1548.14 516.452 1544.34 518.444 1540.89 C 528.087 1536.92 598.903 1566.99 621.306 1563.96 C 634.292 1562.21 647.703 1557.96 660.515 1555.01 L 746.406 1534.97 L 1012.96 1473.28 z" fill="rgb(255,255,254)" transform="translate(0,0)"></path>
<path d="M 724.942 1360.36 C 739.72 1358.04 754.527 1355.91 769.359 1353.96 C 769.378 1364.03 769.296 1374.14 769.795 1384.2 C 769.454 1393.58 768.917 1420.88 769.797 1429.69 C 769.063 1444.93 769.205 1461.33 769.206 1476.66 C 755.483 1479.54 738.698 1483.54 725.097 1485.73 L 724.876 1463.53 C 722.817 1469.12 723.538 1479.39 723.466 1485.94 L 722.491 1485.37 C 722.957 1444.56 721.07 1404.03 722.846 1362.81 C 723.467 1368.8 723.366 1387.81 724.785 1391.78 C 725.319 1383.8 724.927 1368.81 724.942 1360.36 z" fill="rgb(255,255,254)" transform="translate(0,0)"></path>
<path d="M 724.876 1463.53 C 722.817 1469.12 723.538 1479.39 723.466 1485.94 L 722.491 1485.37 C 722.957 1444.56 721.07 1404.03 722.846 1362.81 C 723.467 1368.8 723.366 1387.81 724.785 1391.78 C 724.955 1410.08 726.129 1446.34 724.876 1463.53 z" fill="rgb(20,47,36)" transform="translate(0,0)"></path>
<path d="M 1192.6 1294.02 C 1194.72 1290.25 1214.14 1289.12 1218.49 1289.19 C 1220.65 1294.78 1220.77 1377.8 1218.38 1382.77 C 1215.62 1386.06 1197.52 1388.83 1192.63 1389.46 C 1192.14 1388.62 1191.01 1385.67 1190.57 1384.6 L 1190.01 1388.59 C 1186.74 1392.87 1168.92 1395.31 1162.72 1396.6 C 1162.69 1381.02 1162.97 1364.03 1162.19 1348.59 C 1160.57 1360.28 1162.36 1380.02 1160.96 1393.78 C 1160.18 1382.46 1158.81 1303.86 1161.54 1297.27 C 1167.77 1295.33 1182.92 1293.41 1189.98 1292.34 L 1190.18 1305.57 C 1191.24 1300.99 1190.81 1298.82 1192.6 1294.02 z" fill="rgb(255,255,254)" transform="translate(0,0)"></path>
<path d="M 1192.6 1294.02 C 1194.72 1290.25 1214.14 1289.12 1218.49 1289.19 C 1220.65 1294.78 1220.77 1377.8 1218.38 1382.77 C 1215.62 1386.06 1197.52 1388.83 1192.63 1389.46 C 1192.14 1388.62 1191.01 1385.67 1190.57 1384.6 C 1189.24 1378.97 1190.08 1314.74 1190.18 1305.57 C 1191.24 1300.99 1190.81 1298.82 1192.6 1294.02 z" fill="rgb(255,255,254)" transform="translate(0,0)"></path>
<path d="M 1190.18 1305.57 C 1191.24 1300.99 1190.81 1298.82 1192.6 1294.02 C 1193.58 1313.07 1192.86 1334.19 1193.12 1353.46 C 1193.22 1361.06 1193.53 1382.83 1192.63 1389.46 C 1192.14 1388.62 1191.01 1385.67 1190.57 1384.6 C 1189.24 1378.97 1190.08 1314.74 1190.18 1305.57 z" fill="rgb(12,20,15)" transform="translate(0,0)"></path>
<path d="M 1218.49 1289.19 C 1220.65 1294.78 1220.77 1377.8 1218.38 1382.77 C 1217.16 1374.59 1217.35 1297.12 1218.49 1289.19 z" fill="rgb(12,20,15)" transform="translate(0,0)"></path>
<path d="M 1161.54 1297.27 C 1162.35 1304.25 1162.98 1341.02 1162.19 1348.59 C 1160.57 1360.28 1162.36 1380.02 1160.96 1393.78 C 1160.18 1382.46 1158.81 1303.86 1161.54 1297.27 z" fill="rgb(12,20,15)" transform="translate(0,0)"></path>
<path d="M 1311.61 764.702 C 1323.98 767.705 1335.64 771.12 1347.85 774.678 C 1341.39 782.333 1329.84 791.959 1321.79 798.221 C 1288.17 824.374 1256.4 853.113 1221.89 878.034 C 1218.93 880.172 1217.65 879.491 1214.33 879.317 C 1202.84 876.756 1188.45 874.871 1176.5 872.68 C 1188.87 860.231 1216.62 839.725 1231.46 828.18 C 1258.39 807.295 1285.11 786.135 1311.61 764.702 z" fill="rgb(255,255,254)" transform="translate(0,0)"></path>
<path d="M 1347.69 1456.1 C 1349.66 1456.03 1348.68 1455.8 1350.57 1457.08 C 1351.57 1462.44 1351.12 1470.6 1351.02 1476.34 C 1321.43 1486.19 1291.29 1494.3 1261.31 1502.87 C 1217.07 1515.83 1172.74 1528.42 1128.3 1540.65 L 1126.05 1540.78 C 1123.38 1537.6 1124.42 1524.37 1124.51 1519.36 L 1347.69 1456.1 z" fill="rgb(255,255,254)" transform="translate(0,0)"></path>
<path d="M 1343.45 1425.1 L 1344.56 1424.97 C 1349.58 1427.8 1351.01 1436.09 1352.79 1441.95 C 1300.31 1455.17 1247.18 1473.53 1194.5 1486.89 C 1174.01 1492.08 1152.68 1498.29 1132.47 1504.49 C 1129.65 1505.37 1129.42 1505.42 1126.47 1505.68 L 1124.9 1504.11 C 1123.33 1498.93 1124.54 1489.5 1124.69 1483.64 C 1151.55 1474.58 1189.88 1465.43 1218.01 1458.14 L 1343.45 1425.1 z" fill="rgb(255,255,254)" transform="translate(0,0)"></path>
<path d="M 1221.83 621.975 C 1235.38 626.028 1248.89 630.259 1262.34 634.669 C 1243.21 650.294 1219.81 670.806 1200.76 685.43 C 1180.98 679.5 1161.09 673.948 1141.11 668.776 C 1139.75 667.536 1138.86 667.056 1137.33 666.035 C 1132.86 667.534 1127.99 665.55 1123.27 664.304 C 1136.02 654.682 1150.33 647.327 1165.58 642.565 C 1167.45 642.791 1167.97 642.678 1169.68 643.348 C 1183.75 632.178 1204.29 626.395 1221.83 621.975 z" fill="rgb(255,255,254)" transform="translate(0,0)"></path>
<path d="M 1165.58 642.565 C 1159.03 649.243 1141 660.198 1137.33 666.035 C 1132.86 667.534 1127.99 665.55 1123.27 664.304 C 1136.02 654.682 1150.33 647.327 1165.58 642.565 z" fill="rgb(255,255,254)" transform="translate(0,0)"></path>
<path d="M 1165.58 642.565 C 1167.45 642.791 1167.97 642.678 1169.68 643.348 C 1165.5 647.098 1142.51 666.192 1141.11 668.776 C 1139.75 667.536 1138.86 667.056 1137.33 666.035 C 1141 660.198 1159.03 649.243 1165.58 642.565 z" fill="rgb(20,47,36)" transform="translate(0,0)"></path>
<path d="M 859.972 1341.15 C 872.16 1339.2 884.905 1337.68 897.19 1336.07 C 897.258 1349.63 897.124 1363.93 897.799 1377.42 C 897.478 1386.55 896.945 1441.46 898.54 1447.81 L 897.404 1449.64 C 892.588 1452.75 866.807 1457.04 860.023 1458.32 L 859.972 1341.15 z" fill="rgb(255,255,254)" transform="translate(0,0)"></path>
<path d="M 1016.02 748.056 C 1017.86 751.171 1017 799.579 1016.97 806.87 C 1006.65 816.764 989.367 831.636 978.103 839.824 C 962.789 837.438 947.524 834.743 932.319 831.742 L 919.912 829.383 C 923.898 825.419 928.568 821.245 932.89 817.608 C 960.489 794.385 987.588 770.237 1016.02 748.056 z" fill="rgb(255,255,254)" transform="translate(0,0)"></path>
<path d="M 1266.78 635.852 C 1286.11 640.761 1308.31 648.85 1328.13 654.736 C 1308.69 670.638 1287.92 688.62 1267.54 702.903 C 1263.43 703.763 1216 688.983 1207.69 686.598 C 1225.82 667.954 1247.2 653.323 1266.78 635.852 z" fill="rgb(255,255,254)" transform="translate(0,0)"></path>
<path d="M 1489.46 810.69 C 1492.12 810.736 1517.91 818.355 1521.93 819.511 C 1486.74 847.493 1451.23 874.901 1416.87 904.01 C 1413.79 906.621 1408.59 911.268 1404.77 911.728 C 1393.03 909.311 1381.27 906.985 1369.5 904.75 C 1409.86 873.869 1449.85 842.514 1489.46 810.69 z" fill="rgb(255,255,254)" transform="translate(0,0)"></path>
<path d="M 1125.08 876.616 C 1184.15 885.205 1243.09 894.646 1301.89 904.938 C 1310.62 906.4 1357.35 913.333 1362.92 916.479 C 1364.67 919.834 1364.11 923.427 1364 927.281 C 1341.63 926.206 1310.6 919.851 1287.84 916.899 C 1233.78 909.886 1179.24 899.775 1125.01 894.653 L 1125.08 876.616 z" fill="rgb(255,255,254)" transform="translate(0,0)"></path>
<path d="M 1334.16 656.763 C 1341.75 657.416 1378.27 670.08 1386.85 672.98 C 1366.36 687.916 1346.29 705.49 1326.07 719.633 C 1308.14 714.699 1290.16 709.924 1272.14 705.309 C 1292.95 690.213 1313.46 672.525 1334.16 656.763 z" fill="rgb(255,255,254)" transform="translate(0,0)"></path>
<path d="M 1132.06 1301.27 C 1141.09 1300.08 1150.11 1298.73 1159.09 1297.21 L 1159.24 1397.38 C 1150.64 1398.98 1141.61 1400.46 1133.23 1402.83 C 1130.49 1404.27 1129.51 1403.9 1126.83 1405.07 C 1124.18 1400.7 1124.45 1308.57 1126.46 1301.77 L 1132.06 1301.27 z" fill="rgb(255,255,254)" transform="translate(0,0)"></path>
<path d="M 1126.46 1301.77 L 1132.06 1301.27 C 1132.04 1312.94 1131.06 1398.29 1133.23 1402.83 C 1130.49 1404.27 1129.51 1403.9 1126.83 1405.07 C 1124.18 1400.7 1124.45 1308.57 1126.46 1301.77 z" fill="rgb(21,68,50)" transform="translate(0,0)"></path>
<path d="M 1126.46 1301.77 C 1130.92 1308.86 1126.79 1377.43 1128.24 1390.94 C 1128.56 1394 1128.14 1402 1126.83 1405.07 C 1124.18 1400.7 1124.45 1308.57 1126.46 1301.77 z" fill="rgb(255,255,254)" transform="translate(0,0)"></path>
<path d="M 1349.83 1270.2 C 1354.06 1269.39 1357 1268.38 1361.11 1269.47 C 1363.96 1273.81 1362.61 1341.41 1362.39 1352.28 L 1350 1355.77 L 1349.85 1335.42 C 1347.28 1343.84 1350.16 1349.2 1347.8 1354.44 C 1342.92 1357.75 1330.45 1360.27 1324.85 1359.76 C 1321.63 1356.48 1323.63 1308.72 1322.79 1299.9 C 1322.23 1293.95 1322.62 1280.77 1322.62 1274.27 L 1325.42 1275.75 L 1326.29 1273.75 C 1330.8 1271.9 1341.7 1271.28 1346.79 1270.95 L 1349.83 1270.2 z" fill="rgb(255,255,254)" transform="translate(0,0)"></path>
<path d="M 1349.83 1270.2 C 1354.06 1269.39 1357 1268.38 1361.11 1269.47 C 1363.96 1273.81 1362.61 1341.41 1362.39 1352.28 L 1350 1355.77 L 1349.85 1335.42 C 1350.84 1317.55 1350.01 1288.55 1349.83 1270.2 z" fill="rgb(255,255,254)" transform="translate(0,0)"></path>
<path d="M 1346.79 1270.95 L 1349.83 1270.2 C 1350.01 1288.55 1350.84 1317.55 1349.85 1335.42 C 1347.28 1343.84 1350.16 1349.2 1347.8 1354.44 C 1346.02 1348.47 1346.79 1282.91 1346.79 1270.95 z" fill="rgb(12,20,15)" transform="translate(0,0)"></path>
<path d="M 1322.62 1274.27 L 1325.42 1275.75 L 1325.65 1327.86 C 1325.67 1336.07 1325.91 1351.9 1324.85 1359.76 C 1321.63 1356.48 1323.63 1308.72 1322.79 1299.9 C 1322.23 1293.95 1322.62 1280.77 1322.62 1274.27 z" fill="rgb(12,20,15)" transform="translate(0,0)"></path>
<path d="M 1391.82 674.675 C 1397.32 675.425 1433.62 687.082 1441.47 689.487 C 1433.33 698.091 1392.43 729.034 1382.54 735.427 C 1370.93 730.991 1345.61 725.066 1332.61 721.696 C 1349.5 706.592 1373.61 688.728 1391.82 674.675 z" fill="rgb(255,255,254)" transform="translate(0,0)"></path>
<path d="M 584.433 1608.6 C 595.906 1615.37 609.009 1625.63 617.885 1635.58 C 618.337 1664.97 618.228 1694.69 618.326 1724.1 L 586.962 1715.51 C 587.13 1679.3 587.408 1644.74 584.433 1608.6 z" fill="rgb(255,255,254)" transform="translate(0,0)"></path>
<path d="M 576.246 1672.15 L 576.893 1672.22 C 579.642 1675.11 578.677 1697.69 578.681 1703.16 C 550.024 1712.16 521.285 1720.9 492.468 1729.38 L 491.565 1729.47 C 488.644 1726.06 489.752 1702.4 489.777 1696.37 C 518.668 1688.86 546.92 1679.6 576.246 1672.15 z" fill="rgb(255,255,254)" transform="translate(0,0)"></path>
<path d="M 1450.51 1371.17 C 1453.45 1370.77 1452.34 1370.74 1455.24 1371.56 L 1455.73 1373.19 C 1454.07 1376 1450.77 1377.7 1447.67 1378.42 C 1342.17 1402.88 1236.76 1431.61 1131.28 1455.78 C 1127.24 1456.29 1128.81 1456.87 1126.13 1454.86 C 1124.56 1451.17 1124.51 1446.26 1129.3 1445.22 C 1137 1443.56 1144.59 1442.26 1152.29 1440.42 L 1220 1424.3 L 1450.51 1371.17 z" fill="rgb(255,255,254)" transform="translate(0,0)"></path>
<path d="M 1555.41 722.94 L 1598.4 737.114 C 1586.86 747.916 1560.15 770.42 1546.9 780.798 C 1546.07 780.832 1545.24 780.867 1544.41 780.901 L 1498.91 768.233 C 1513.85 754.904 1538.96 736.323 1555.41 722.94 z" fill="rgb(255,255,254)" transform="translate(0,0)"></path>
<path d="M 1354.68 1251.38 L 1358.71 1250.87 C 1363.18 1252.73 1363.01 1256.33 1360.9 1260.11 C 1349.35 1263.05 1319.85 1265.79 1306.04 1267.87 C 1249.29 1276.42 1190.1 1281.64 1133.79 1292.3 C 1130.77 1292.82 1129.13 1293.47 1126.34 1292.26 C 1124.25 1289.35 1125.08 1284.45 1125.23 1280.59 L 1354.68 1251.38 z" fill="rgb(255,255,254)" transform="translate(0,0)"></path>
<path d="M 1646.67 752.084 C 1656.03 755.833 1674.74 761.114 1685.49 764.752 C 1673.43 777.191 1648.26 796.68 1634.01 808.231 C 1621.65 803.736 1605.56 799.363 1592.66 795.338 C 1609.97 782.815 1630.11 765.876 1646.67 752.084 z" fill="rgb(255,255,254)" transform="translate(0,0)"></path>
<path d="M 1604.78 738.742 C 1616.24 742.234 1629.09 746.993 1640.54 750.971 C 1630.61 762.114 1600.05 784.833 1587.43 793.689 C 1584.72 793.741 1556.82 784.692 1552.3 783.271 C 1569.56 767.931 1586.57 752.961 1604.78 738.742 z" fill="rgb(255,255,254)" transform="translate(0,0)"></path>
<path d="M 893.366 1536.66 C 899.822 1537.92 909.742 1544.67 916.252 1548.26 C 916.279 1558.15 917.997 1623.72 915.763 1627.28 C 907.659 1624.93 899.342 1622.69 891.478 1619.68 C 891.369 1618.55 891.127 1616.7 891.134 1615.24 C 891.258 1590.09 889.685 1564.04 891.213 1539.03 C 891.931 1538.24 892.648 1537.45 893.366 1536.66 z" fill="rgb(255,255,254)" transform="translate(0,0)"></path>
<path d="M 1410.43 1428.86 C 1426.16 1433.21 1458.57 1437.31 1475.85 1439.88 L 1475.81 1466.14 C 1470.92 1465.05 1465.39 1464.18 1460.4 1463.29 C 1437.39 1458.96 1414.14 1456.78 1391.81 1452.57 C 1397.96 1443.56 1403.43 1437.15 1410.43 1428.86 z" fill="rgb(255,255,254)" transform="translate(0,0)"></path>
<path d="M 1011.76 1552.27 L 1012.33 1552.69 C 1013.63 1556.35 1013.05 1571.47 1013.01 1576.25 C 990.882 1582 955.773 1591.47 934.998 1598.89 L 934.253 1598.11 C 933.247 1593.36 936.831 1578.3 939.714 1574.44 C 944.96 1567.42 965.72 1564.71 974.337 1562.25 C 986.779 1558.7 999.386 1555.4 1011.76 1552.27 z" fill="rgb(255,255,254)" transform="translate(0,0)"></path>
<path d="M 774.092 1565.48 C 775.929 1565.49 777.76 1565.09 779.599 1564.8 C 779.628 1576.6 779.206 1592.66 779.908 1604.1 L 774.636 1605.8 C 760.874 1608.97 746.75 1613.01 733.078 1616.74 C 733.09 1603.79 733.203 1590.83 733.417 1577.88 C 746.281 1572.5 760.56 1569.03 774.092 1565.48 z" fill="rgb(255,255,254)" transform="translate(0,0)"></path>
<path d="M 774.092 1565.48 C 775.929 1565.49 777.76 1565.09 779.599 1564.8 C 779.628 1576.6 779.206 1592.66 779.908 1604.1 L 774.636 1605.8 C 774.386 1592.31 774.754 1579.01 774.092 1565.48 z" fill="rgb(21,68,50)" transform="translate(0,0)"></path>
<path d="M 1689.87 765.652 C 1698.66 767.715 1712.23 773.145 1720.83 776.516 C 1704.49 790.773 1687.59 804.391 1670.19 817.339 C 1666.18 817.767 1645.36 811.199 1639.86 809.581 C 1655.64 794.654 1675.52 781.847 1689.87 765.652 z" fill="rgb(255,255,254)" transform="translate(0,0)"></path>
<path d="M 865.811 1557.08 C 866.107 1552.8 865.893 1549.39 867.96 1545.72 C 870.791 1549.15 870.544 1573.76 868.599 1578.01 C 867.013 1578.28 867.125 1578.46 865.645 1578.18 C 862.815 1581.92 833.125 1588.72 825.969 1591.52 C 823.094 1591.52 823.535 1591.19 821.02 1592.1 C 820.56 1580.98 820.949 1567.01 820.951 1555.67 L 825.757 1554.01 C 838.47 1551.16 852.772 1547.61 865.44 1545.2 C 865.527 1548.77 865.491 1553.64 865.811 1557.08 z" fill="rgb(255,255,254)" transform="translate(0,0)"></path>
<path d="M 820.951 1555.67 L 825.757 1554.01 L 825.969 1591.52 C 823.094 1591.52 823.535 1591.19 821.02 1592.1 C 820.56 1580.98 820.949 1567.01 820.951 1555.67 z" fill="rgb(20,47,36)" transform="translate(0,0)"></path>
<path d="M 865.811 1557.08 C 866.107 1552.8 865.893 1549.39 867.96 1545.72 C 870.791 1549.15 870.544 1573.76 868.599 1578.01 C 867.013 1578.28 867.125 1578.46 865.645 1578.18 C 865.511 1570.78 865.419 1564.45 865.811 1557.08 z" fill="rgb(20,47,36)" transform="translate(0,0)"></path>
<path d="M 779.599 1564.8 C 792.273 1561.93 808.403 1557.72 820.951 1555.67 C 820.949 1567.01 820.56 1580.98 821.02 1592.1 C 811.75 1596.07 790.933 1600.5 779.908 1604.1 C 779.206 1592.66 779.628 1576.6 779.599 1564.8 z" fill="rgb(255,255,254)" transform="translate(0,0)"></path>
<path d="M 337.752 785.816 C 370.529 790.526 404.102 794.533 436.639 800.54 C 436.804 805.193 436.734 809.462 436.661 814.102 C 408.07 809.727 364.505 804.013 336.053 801.71 C 336.725 796.658 337.21 790.935 337.752 785.816 z" fill="rgb(255,255,254)" transform="translate(0,0)"></path>
<path d="M 726.747 1580.02 C 729.054 1583 728.052 1612.29 728.012 1618.42 C 712.874 1622.3 697.36 1626.95 682.295 1631.27 C 680.118 1628.81 680.895 1619.13 680.937 1615.37 C 692.81 1597.82 707.584 1587.93 726.747 1580.02 z" fill="rgb(255,255,254)" transform="translate(0,0)"></path>
<path d="M 1011.92 1511.19 L 1012.42 1511.65 C 1013.61 1515.4 1013.09 1534.03 1013.07 1539.13 C 995.061 1542.88 972.227 1550.73 952.361 1555.32 L 951.619 1553.66 C 957.767 1541.57 974.137 1526 985.905 1519.2 C 989.78 1516.97 1006.82 1512.65 1011.92 1511.19 z" fill="rgb(255,255,254)" transform="translate(0,0)"></path>
<path d="M 1377.73 1268.46 L 1392.96 1269.69 L 1393.38 1350.42 C 1387.91 1349.63 1382.46 1348.72 1377.02 1347.69 C 1377.01 1336.62 1376.01 1275.47 1377.73 1268.46 z" fill="rgb(255,255,254)" transform="translate(0,0)"></path>
<path d="M 1376.98 1249.99 C 1400.91 1254.28 1450.16 1257.21 1475.06 1259.26 L 1475.06 1271.89 C 1450 1270.1 1425.19 1267.12 1400.22 1264.49 C 1392.74 1263.71 1385.2 1263.08 1377.81 1261.7 C 1376.52 1258.6 1376.95 1253.53 1376.98 1249.99 z" fill="rgb(255,255,254)" transform="translate(0,0)"></path>
<path d="M 1015.41 814.726 C 1018.1 817.673 1016.98 839.884 1016.95 845.475 C 1008.09 844.831 999.745 843.699 990.956 842.549 L 987.583 841.602 L 987.218 840.317 C 994.521 832.599 1007.08 822.066 1015.41 814.726 z" fill="rgb(255,255,254)" transform="translate(0,0)"></path>
<path d="M 878.544 1541.97 L 879.972 1542.16 C 882.613 1545.35 881.447 1569.28 880.99 1574.46 C 879.368 1576.8 876.849 1576.83 873.391 1577.94 L 871.75 1577.67 C 869.502 1573.85 870.218 1550.44 870.963 1545.06 C 873.304 1542.76 874.879 1542.99 878.544 1541.97 z" fill="rgb(255,255,254)" transform="translate(0,0)"></path>
<path d="M 574.375 1607.8 C 578.877 1615.66 578.711 1647.57 577.816 1657.58 L 575.134 1657.04 C 572.914 1652.93 574.149 1614.97 574.375 1607.8 z" fill="rgb(255,255,254)" transform="translate(0,0)"></path>
<path d="M 1787.62 796.873 L 1791.12 798.256 C 1798.55 800.052 1803.82 801.48 1811.04 803.923 C 1796.35 803.789 1794.03 803.49 1780.47 808.268 L 1779.48 808.411 C 1778.23 806.765 1777.71 805.861 1776.63 804.098 L 1787.62 796.873 z" fill="rgb(255,255,254)" transform="translate(0,0)"></path>
<path d="M 1787.62 796.873 L 1791.12 798.256 C 1788.68 800.472 1781.35 806.193 1780.47 808.268 L 1779.48 808.411 C 1778.23 806.765 1777.71 805.861 1776.63 804.098 L 1787.62 796.873 z" fill="rgb(21,68,50)" transform="translate(0,0)"></path>
<path d="M 925.538 110.43 C 1046.01 105.401 1177.67 133.841 1287.18 183.946 C 1457.59 262.388 1598.28 393.501 1688.53 557.958 C 1713.53 603.855 1727.58 638.294 1745.36 685.935 C 1733.19 681.72 1709.28 673.22 1700.45 665.005 C 1696.76 649.343 1676.5 608.201 1668.5 592.876 C 1616.99 494.123 1531.58 384.715 1441.13 318.303 C 1440.92 323.616 1440.97 329.622 1441.09 334.931 C 1441.54 354.67 1433.77 367.654 1417.9 346.064 C 1417.95 330.86 1417.88 316.169 1418.85 300.994 L 1397.41 285.892 C 1392.73 285.797 1387.7 285.952 1382.99 286.006 C 1382.74 310.348 1382.35 334.688 1381.83 359.025 C 1370.64 369.525 1368.34 367.67 1358.04 358.481 C 1357.91 335.63 1358.68 312.177 1358.93 289.23 C 1347.91 291.894 1337.28 294.456 1326.36 297.555 C 1326.55 309.827 1330.05 370.503 1326.28 375.791 C 1324.88 377.752 1321.96 379.595 1319.59 379.965 C 1316.18 380.497 1312.98 379.084 1310.52 376.834 C 1300.45 367.612 1302.42 318.839 1301.97 303.897 C 1292.91 306.096 1281.57 309.914 1272.48 312.695 C 1275.13 337.613 1282.67 375.832 1286.99 401.425 C 1282.51 406.277 1276.56 413.053 1269.41 409.954 C 1260.75 400.894 1249.8 339.241 1248.41 325.128 C 1237.26 329.54 1227.16 334.944 1216.5 340.404 C 1219.19 352.712 1236.53 422.78 1233.56 429.425 C 1232.08 432.737 1227.28 435.731 1223.87 436.483 C 1220.97 437.123 1217.43 436.743 1215.05 434.818 C 1208.65 429.637 1194.81 365.773 1192.31 353.756 C 1180.12 358.048 1168.89 364.907 1158.33 372.232 C 1161.25 384.348 1178.92 445.831 1176.55 453.361 C 1175.5 456.685 1171.69 458.833 1168.84 460.363 C 1166.22 461.774 1162.37 464.134 1159.39 462.689 C 1156.17 461.122 1153.91 457.038 1152.52 453.925 C 1145.91 439.177 1139.03 404.839 1134.73 387.967 C 1116.72 399.261 1101.99 411.608 1085.22 424.357 C 1082.23 426.634 1081.21 426.822 1077.9 426.018 C 1074.59 423.466 1073.45 419.948 1071.59 416.066 C 1055.57 409.757 997.077 384.618 978.717 375.349 C 975.69 373.821 978.72 357.163 986.671 352.613 C 989.376 352.062 991.313 352.198 993.922 353.267 C 1024.3 365.714 1054.81 378.543 1085.78 389.471 C 1095.59 381.102 1104 375.087 1114.49 367.63 C 1100.77 361.417 1042.16 343.089 1034.05 336.26 C 1032.77 332.387 1033.2 332.278 1033.01 328.336 C 1032.28 324.824 1039.33 311.229 1043.5 312.86 C 1076.63 325.821 1110.94 336.574 1144.2 349.063 C 1157.57 341.12 1165.67 336.303 1179.72 330.102 C 1160.89 320.319 1135.89 314.308 1118.88 302.242 C 1111.6 297.081 1125.43 283.515 1130.51 280.5 C 1142.62 285.901 1154.63 290.955 1166.71 296.494 C 1180.5 302.816 1195.12 310.877 1209.19 316.132 C 1217.73 312.317 1226.18 308.328 1234.55 304.168 C 1222.09 293.693 1184.97 278.627 1168.16 270.583 C 1168.21 265.616 1168.42 261.004 1170.42 256.377 C 1172.02 252.67 1174.28 249.859 1178.3 248.724 C 1186.36 246.445 1252.66 286.913 1264.36 294.41 C 1272.17 290.722 1278.77 288.146 1287.05 285.821 C 1271.72 274.821 1251.33 268.407 1236.04 257.478 C 1229.23 252.607 1242.05 239.297 1245.43 235.829 C 1259.14 239.13 1301.65 265.929 1316.03 274.16 C 1325.98 273.275 1331.81 272.053 1341.69 269.909 C 1333.54 264.952 1293.43 246.619 1291.31 240.764 C 1289.26 235.11 1292.14 229.46 1294.4 224.356 C 1244.97 202.736 1203.48 184.68 1150.42 170.948 C 945.229 118.028 727.403 149.238 545.328 257.644 C 352.219 369.925 212.332 555.099 157.11 771.545 C 155.411 778.423 153.803 785.322 152.286 792.242 C 123.046 924.95 126.647 1068.6 167.737 1198.49 C 171.227 1205.38 179.12 1239.27 182.549 1243.2 C 201.545 1264.95 217 1298.04 232.345 1322.03 C 235.582 1315.42 237.342 1313.11 241.658 1307.2 C 234.799 1294.39 228.313 1281.33 221.416 1268.5 C 214.801 1256.2 205.307 1241.96 200.778 1228.99 C 207.642 1224.5 212.873 1222.83 220.538 1220.42 C 231.014 1242.35 243.411 1270.29 252.732 1292.67 C 258.035 1284.59 262.73 1277.52 267.395 1269.02 C 255.036 1248.62 246.319 1226.35 233.557 1206.25 C 230.259 1201.05 228.893 1199.31 226.578 1193.39 C 232.702 1185.75 235.429 1183.23 243.198 1177.95 C 251.807 1199.12 269.346 1231.32 281.027 1251.19 C 285.888 1243.9 290.949 1236.74 296.204 1229.73 C 285.409 1206.23 264.737 1169.51 252.471 1146.28 C 258.104 1140.36 263.841 1133.67 269.313 1127.53 C 277.389 1150.68 296.581 1187.53 308.941 1208.58 C 315.277 1199.39 321.872 1188.68 327.525 1179.12 C 318.447 1160.83 309.536 1142.47 300.793 1124.02 C 294.928 1111.87 287.887 1099.01 283.156 1086.51 C 288.402 1080.49 295.739 1073.62 301.526 1067.91 C 315.892 1099.38 327.266 1128.72 339.497 1161.03 C 347.07 1149.16 353.112 1137.7 359.742 1125.29 C 348.918 1098.88 334.133 1061.6 325.575 1034.68 C 331.133 1028.2 338.296 1022.51 345.271 1017.62 C 354.523 1046.75 362.854 1077.85 373.308 1106.56 C 379.195 1098.01 387.584 1083.35 392.312 1074.21 C 390.274 1069.09 388.308 1062.8 386.96 1057.47 C 379.208 1026.79 369.834 996.566 361.399 966.107 C 368.218 961.533 375.059 957.746 382.291 953.895 C 385.125 971.082 393.853 997.272 394.532 1013.21 C 396.633 1062.52 396.962 1114.73 397.04 1163.98 C 390.306 1157.97 384.499 1155.01 376.546 1150.93 C 370.706 1161.66 365.377 1171.82 358.567 1181.99 C 369.769 1189.19 385.544 1196.99 397.425 1203.01 C 396.901 1213.41 396.596 1223.83 396.511 1234.24 C 379.616 1224.97 361.05 1216.19 343.735 1207.18 L 324.776 1233.89 C 347.523 1249.8 374.243 1261.42 395.719 1278.9 C 399.708 1282.15 396.192 1295.32 391.015 1298.68 C 381.491 1298.32 324.326 1262.68 309.94 1256.06 L 308.441 1255.38 C 303.557 1262.99 300.179 1267.44 294.468 1274.51 C 318.794 1292.72 338.774 1306.65 364.061 1323.2 C 362.489 1327.3 360.971 1331.74 358.766 1335.54 C 357.427 1337.85 355.674 1339.63 352.947 1340.06 C 340.849 1341.98 292.959 1303.38 280.288 1294.78 C 275.673 1300 274.074 1302.51 270.341 1308.34 C 278.905 1313.47 331.395 1351.97 336.516 1358.42 C 337.83 1363.8 329.56 1373.72 326.19 1372.91 C 308.055 1368.54 270.966 1336.78 258.464 1326.62 C 254.732 1330.92 250.853 1336.16 247.316 1340.73 C 267.447 1357.43 289.74 1372.69 309.394 1389.73 C 306.425 1396.58 303.596 1399.94 298.968 1405.44 C 279.566 1399.3 251.984 1372.04 236.78 1357.57 C 274.257 1427.17 329.334 1491.65 394.92 1536.08 C 394.942 1551.54 395.204 1567 395.705 1582.45 C 382.039 1574.15 363.315 1558.62 351.211 1547.89 C 199.263 1413.21 112.06 1209.31 101.395 1007.97 C 91.2086 781.44 171.511 560.155 324.606 392.878 C 479.309 222.457 695.606 120.794 925.538 110.43 z" fill="rgb(5,52,34)" transform="translate(0,0)"></path>
<path d="M 392.517 904.808 C 394.983 908.3 394.106 949.591 394.102 957.115 C 391.683 952.91 389.255 948.306 386.91 944.028 C 382.024 934.976 378.269 927.715 374.01 918.253 C 380.348 914.093 386.45 909.371 392.517 904.808 z" fill="rgb(5,52,34)" transform="translate(0,0)"></path>
<metadata><recraft-signature>{"signed_by": "recraft", "signature_b64": "mT4lg4DAiSr0JCy+FW0XrINEH0C+JpZslx+Ut4wFYUSwgY2JqHQ/o/3QIQXj/8lxruiLK3cBUhC8xAll9Sk5BQ==", "signing_algo": "Ed25519", "generation_timestamp": 1771174205, "identifier": "9b1ee673-e6a9-49fd-a962-4fe186b84e7f"}</recraft-signature></metadata></svg>