<svg xmlns="http://www.w3.org/2000/svg" height="1024" preserveAspectRatio="none" style="display: block;" version="1.1" viewBox="0 0 2048 2048" width="1024">
<path d="M 0 0 L 2048 0 L 2048 2048 L 0 2048 L 0 0 z" fill="rgb(244,239,219)" transform="translate(0,0)"></path>
<path d="M 790.742 210.143 C 796.454 209.878 804.281 210.828 809.066 213.876 C 822.407 222.376 836.331 233.615 849.004 243.249 C 875.444 263.498 901.991 283.608 928.644 303.576 C 1001.74 358.311 1073.88 414.295 1145.06 471.505 C 1244.42 552.919 1342.26 641.048 1447.21 714.827 C 1517.37 764.157 1588.6 814.606 1659.59 862.62 C 1666.61 857.083 1668.06 856.146 1676.21 853.268 C 1704.36 866.153 1685.67 885.381 1673.18 902.774 C 1665.79 913.073 1643.82 940.446 1633.11 919.073 C 1630.51 913.898 1635.66 903.807 1637.71 898.807 C 1625.22 890.23 1612.67 881.754 1600.04 873.382 L 1598.99 884.588 C 1585.85 896.149 1571.97 906.137 1559.13 917.953 L 1559.07 917.958 L 1559.06 986.939 C 1529.91 986.992 1496.5 988.295 1467.97 987.369 C 1467.33 947.031 1467.92 905.249 1467.96 864.799 C 1456.75 859.38 1442.37 850.792 1431.07 844.687 C 1403.31 829.856 1375.66 814.826 1348.12 799.599 C 1265.46 754.099 1181.08 706.866 1098.09 662.502 C 1080.97 653.442 1063.94 644.204 1047.01 634.791 C 1034.42 627.804 1020.06 618.95 1006.72 614.104 C 1004.23 612.968 1001.93 613.956 999.484 615.158 C 961.69 633.699 925.021 655.046 887.815 674.654 C 833.359 703.549 779.068 732.754 724.944 762.267 C 687.226 782.217 649.649 802.435 612.218 822.918 C 587.53 836.319 562.192 851.153 537.221 863.59 C 536.242 903.532 537.02 946.788 537.011 987.004 L 447.152 987.135 L 447.003 912.888 C 430.178 912.972 413.918 910.5 397.38 913.573 C 388.325 901.338 374.615 882.837 364.722 871.981 C 427.202 839.472 489.736 803.038 551.798 769.176 L 832.869 618.431 C 887.858 588.853 950.076 553.2 1005.44 526.384 C 1039.66 548.356 1079.24 567.546 1114.78 588.066 C 1219.21 648.364 1326.36 703.916 1432.05 761.851 L 1432.68 761.382 C 1416.07 748.8 1398.38 737.629 1381.34 725.617 C 1315.58 679.262 1245.77 639.415 1175.91 599.684 C 1148.33 584 1120.81 569.38 1094.05 552.255 C 1064.87 533.583 1037.2 513.416 1009.1 493.228 C 969.718 465.422 930.63 437.199 891.844 408.564 C 858.282 384.7 824.901 360.582 791.705 336.211 C 778.652 326.749 740.872 303.819 736.392 290.074 C 729.014 267.44 768.733 215.729 790.742 210.143 z" fill="rgb(1,1,2)" transform="translate(0,0)"></path>
<path d="M 785.892 214.24 C 791.965 213.716 801.88 212.861 806.975 216.067 C 819.054 223.671 831.351 234.023 842.863 242.72 L 926.206 305.613 C 995.789 357.755 1064.5 411.046 1132.32 465.463 C 1225.14 541.293 1316.21 620.096 1411.07 693.22 C 1440.1 715.603 1478.38 740.39 1508.74 761.468 L 1658.67 866.878 L 1660.09 865.863 C 1682.13 850.189 1694.17 859.733 1681.82 883.712 C 1675.63 895.723 1657.17 918.743 1645.28 924.744 C 1642.21 922.597 1638.55 918.193 1635.92 915.289 C 1636.79 912.955 1638.82 907.761 1639.26 905.415 C 1641.55 893.206 1629.49 888.931 1621.52 883.236 C 1615.82 879.168 1610.52 875.292 1605.04 871.281 C 1575.21 849.263 1544.55 828.4 1513.12 808.739 C 1492.58 795.671 1470.11 782.409 1450.12 769.005 C 1397.69 733.842 1345.83 695.25 1291.69 662.823 C 1256.21 641.679 1220.49 620.953 1184.52 600.648 C 1142.92 577.213 1100.74 554.419 1061.66 526.848 C 1043.04 513.713 1024.64 500.263 1006.17 486.928 C 969.188 460.604 932.366 434.059 895.704 407.295 L 794.442 334.067 C 780.422 323.987 765.871 314.496 752.094 304.289 C 742.133 296.909 735.947 287.266 739.79 274.84 C 745.423 256.628 770 223.394 785.892 214.24 z" fill="rgb(40,52,118)" transform="translate(0,0)"></path>
<path d="M 999.808 566.929 C 1000.9 567.104 1000.2 566.906 1001.69 568.027 C 1002.71 577.929 1002.1 598.589 1002.07 609.331 C 959.997 633.034 911.823 657.413 868.799 680.517 L 606.2 821.965 L 497.532 881.54 C 483.241 889.475 466.137 900.241 451.684 906.828 C 445.648 909.579 402.902 909.171 398.198 907.055 L 390.265 897.193 C 405.224 890.844 429.198 877.264 444.067 869.184 L 542.747 814.9 L 841.017 652.907 L 930.811 604.054 C 952.452 592.062 977.703 577.216 999.808 566.929 z" fill="rgb(126,202,179)" transform="translate(0,0)"></path>
<path d="M 1006.93 566.674 C 1015.51 570.204 1036.87 582.657 1046.28 587.776 L 1146.68 643.431 L 1441.51 804.05 C 1494.01 832.133 1539.25 858.014 1594.07 883.097 C 1589.37 887.594 1584.32 891.734 1579.34 895.933 L 1559.78 911.58 C 1549.81 904.525 1536.62 897.868 1525.65 891.969 C 1507.36 882.237 1489.14 872.379 1470.99 862.395 L 1228.25 729.731 C 1173.74 700.034 1119.74 668.849 1064.7 640.119 C 1049.88 632.383 1020.8 614.922 1006.82 610.055 C 1006.43 596.07 1006.07 580.539 1006.93 566.674 z" fill="rgb(126,202,179)" transform="translate(0,0)"></path>
<path d="M 999.502 532.8 C 1000.14 533.092 1000.77 533.385 1001.4 533.677 C 1002.44 540.858 1002.04 553.019 1002.01 560.646 L 561.038 800.66 C 502.481 832.217 446.977 864.204 387.535 894.493 L 382.732 888.511 L 370.408 872.723 C 386.87 865.988 418.979 846.743 435.084 837.635 C 468.426 818.927 501.888 800.434 535.469 782.159 L 821.698 628.46 C 878.013 598.05 942.541 560.9 999.502 532.8 z" fill="rgb(46,114,67)" transform="translate(0,0)"></path>
<path d="M 1005.74 531.112 C 1010.16 533.135 1020.3 539.484 1024.96 542.152 C 1036.9 548.925 1048.88 555.614 1060.92 562.219 L 1222.53 652.854 C 1245.95 665.893 1270.78 678.426 1294.52 691.198 L 1388.42 742.178 C 1408.51 752.85 1435.42 765.621 1454.07 776.506 C 1493.47 799.877 1531.99 824.716 1569.54 850.972 C 1577.32 856.363 1587.64 862.212 1593.79 869.25 C 1596.72 872.604 1595.98 875.828 1595.4 879.92 C 1522.48 844.356 1457.9 808.426 1386.88 770.255 L 1006 561.619 C 1005.76 551.654 1005.29 541.015 1005.74 531.112 z" fill="rgb(46,114,67)" transform="translate(0,0)"></path>
<path d="M 1472.16 867.735 C 1493.43 878.384 1535.25 900.858 1554.94 913.169 L 1554.97 982.95 L 1472.01 983.011 L 1472.16 867.735 z" fill="rgb(126,202,179)" transform="translate(0,0)"></path>
<path d="M 531.759 866.984 C 533.665 870.327 532.887 972.25 532.881 982.996 L 452.286 982.854 C 450.036 978.681 451.318 919.67 451.421 911.621 C 474.773 899.993 508.619 880.202 531.759 866.984 z" fill="rgb(126,202,179)" transform="translate(0,0)"></path>
<path d="M 995.512 1221.41 C 995.724 1221.38 995.937 1221.35 996.15 1221.32 C 1055.64 1218.89 1109.86 1232.8 1155.74 1269.96 C 1169.4 1264.09 1177.64 1267.77 1175.42 1283.59 C 1182.98 1292.16 1191 1301.11 1198.28 1309.88 C 1242.44 1362 1263.6 1429.79 1256.95 1497.78 C 1252.16 1547.27 1233.04 1593.75 1202.22 1632.45 C 1193.57 1643.31 1187.18 1652.02 1176.23 1660.98 C 1182.18 1674.51 1176.76 1677.57 1165.68 1683.29 L 1158.48 1676.12 C 1123.53 1702.06 1082.44 1718.49 1039.24 1723.78 C 984.71 1730.85 930.829 1719.02 884.062 1690.65 C 878.766 1687.43 872 1682.57 866.459 1680.17 C 843.428 1686.86 850.054 1667.45 847.756 1661.14 C 846.855 1658.66 829.809 1640.57 826.761 1636.82 C 810.384 1616.36 797.164 1593.57 787.543 1569.2 C 756.638 1490.95 764.97 1402.64 809.967 1331.54 C 815.564 1322.56 821.3 1314.27 827.696 1305.86 C 833.245 1298.57 843.74 1289.39 847.159 1281.48 C 847.008 1277.26 846.289 1273.06 849.187 1270.09 C 856.83 1262.26 861.808 1268.75 869.04 1265.53 C 878.133 1261.48 886.542 1253.94 895.45 1249.44 C 927.814 1233.12 959.745 1224.62 995.512 1221.41 z" fill="rgb(1,1,2)" transform="translate(0,0)"></path>
<path d="M 868.329 1270.52 C 881.984 1261.95 893.958 1254.1 908.606 1247.26 C 958.103 1224.54 1013.73 1218.83 1066.81 1231.01 C 1105.25 1239.74 1123.94 1250.93 1155.15 1272.69 C 1147.94 1282.38 1144.14 1300.03 1139.58 1311.67 C 1111 1384.47 1099.91 1457.21 1112.06 1534.83 C 1118.01 1572.83 1134.38 1640.52 1157.45 1670.57 C 1139.02 1687.52 1112.67 1700.15 1089.23 1708.5 C 1018.34 1733.76 930.681 1723.2 870.469 1676.52 C 882.013 1658.53 887.852 1639.3 894.255 1619.48 C 914.003 1558.34 926.425 1496.19 917.362 1431.78 C 916.472 1425.45 916.179 1415.47 910.904 1411.29 L 912.441 1410.75 L 913.655 1410 C 913.597 1406.02 913.112 1401.05 912.269 1397.14 C 903.028 1354.35 888.655 1309.24 868.329 1270.52 z" fill="rgb(46,114,67)" transform="translate(0,0)"></path>
<path d="M 1172.89 1287.5 C 1173.54 1287.8 1174.25 1288.07 1174.77 1288.58 C 1252.38 1364.82 1277.55 1480.84 1230.31 1580.41 C 1219.65 1602.88 1208.42 1618.66 1193.27 1637.96 C 1188.37 1643.97 1181.23 1652.75 1175.09 1657.2 C 1168.99 1656.37 1159.07 1621.14 1155.99 1613.48 C 1117.2 1516.81 1123.41 1411.04 1161.95 1315.59 C 1165.28 1307.35 1166.8 1293.23 1172.89 1287.5 z" fill="rgb(46,114,67)" transform="translate(0,0)"></path>
<path d="M 849.313 1286.71 C 851.671 1289.19 867.318 1334.53 869.872 1340.9 C 906.243 1431.63 900.908 1538.55 864.912 1628.38 C 861.184 1637.69 857.071 1649.32 850.57 1656.92 C 844.344 1651.56 840.184 1646.84 834.924 1640.6 C 754.056 1548.7 753.365 1402.53 830.977 1308.69 C 837.064 1301.33 843.283 1294.11 849.313 1286.71 z" fill="rgb(46,114,67)" transform="translate(0,0)"></path>
<path d="M 910.904 1411.29 C 907.657 1408.42 904.283 1405.28 900.017 1405.48 C 895.895 1409.39 899.258 1412.57 895.623 1416.59 C 886.259 1407.94 899.393 1401.1 897.973 1392.56 L 896.457 1391.73 L 893.925 1392.91 C 892.886 1395.32 892.332 1396.99 891.51 1399.46 C 889.245 1394.1 886.025 1380.6 885.216 1374.3 C 884.834 1371.33 890.017 1367.36 892.739 1364.61 L 892.278 1362.84 C 887.333 1362.42 888.955 1363.19 883.685 1367.4 L 882.92 1366.33 C 887.108 1349.38 908.278 1362.74 902.257 1372.3 L 900.313 1372.37 C 897.904 1370.72 897.261 1370.15 894.533 1369.01 C 892.185 1372.97 886.192 1381.88 889.503 1386.05 C 895.706 1384.83 895.557 1377.09 902.487 1379.01 C 907.711 1384.19 908.25 1390.55 909.703 1397.71 C 906.515 1393.71 901.519 1386.3 896.531 1385.74 L 894.859 1387.4 C 895.759 1391.56 898.672 1389.23 902.323 1394.14 L 899.094 1395.08 L 899.127 1396.72 C 902.758 1399.82 903.966 1400.1 908.633 1401.05 C 911.319 1403.3 911.631 1407.15 912.441 1410.75 L 910.904 1411.29 z" fill="rgb(244,239,219)" transform="translate(0,0)"></path>
<path d="M 857.392 1269.87 C 862.124 1269.51 860.178 1268.88 863.679 1270.9 C 867.183 1277.06 870.152 1281.74 874.103 1287.63 C 870.806 1284.85 866.902 1282.15 865.01 1278.44 C 861.838 1279.45 858.172 1280.74 854.974 1281.48 C 855.489 1285.94 855.735 1287.1 857.15 1291.36 C 864.129 1287 870.596 1285.1 875.858 1293.52 L 875.688 1296.15 L 874.31 1296.84 L 870.863 1295.17 C 867.639 1297.2 862.991 1300.55 859.438 1300.92 L 857.899 1299.49 C 859.23 1297.34 858.682 1298.1 860.93 1296.56 L 860.385 1294.57 C 858.263 1294.92 859.266 1294.67 857.313 1296.22 C 855.904 1294.14 856.262 1294.94 855.55 1292.48 C 853.454 1287.61 851.422 1283.79 852.975 1278.88 C 854.522 1274.64 854.746 1273.4 857.392 1269.87 z" fill="rgb(244,239,219)" transform="translate(0,0)"></path>
<path d="M 871.927 1660.94 C 867.026 1655.99 865.013 1656.6 859.231 1653.49 L 859.453 1652.43 C 863.925 1651.93 864.02 1651.94 868.48 1652.54 C 872.203 1655.59 871.385 1655.81 873.464 1660.97 L 875.435 1660.74 C 873.949 1663.79 872.002 1668.91 869.406 1670.66 C 868.117 1663.11 866.3 1661.55 858.726 1661.24 L 857.281 1662.58 C 861.021 1665.6 864.471 1667.75 866.623 1671.94 C 866.459 1675.71 867.109 1674.09 864.529 1676.93 C 859.971 1675.78 855.373 1669.63 852.534 1665.98 C 852.262 1661.33 851.677 1663.31 853.697 1659.67 C 859.658 1656.36 866.092 1658.53 871.927 1660.94 z" fill="rgb(244,239,219)" transform="translate(0,0)"></path>
<path d="M 867.621 1638.75 L 865.885 1638.78 L 865.286 1637.53 C 866.731 1632.39 868.082 1626.21 871.21 1621.84 C 872.947 1619.42 877.654 1616.29 880.248 1618.79 C 876.515 1622.08 875.446 1619.16 872.107 1622.49 L 872.381 1624.94 C 877.858 1627.25 880.362 1620.72 887.009 1626.26 C 888.255 1629.96 887.233 1630.83 886.204 1635.39 L 884.823 1636.17 C 876.78 1630.96 875.799 1630.03 867.87 1635.65 C 871.814 1635.6 874.844 1634.96 878.502 1636.64 C 875.968 1638.36 871.197 1638.3 867.621 1638.75 z" fill="rgb(244,239,219)" transform="translate(0,0)"></path>
<path d="M 893.25 1578.55 L 893.986 1578.99 L 892.36 1580.67 C 894.729 1583.52 897.696 1584.41 901.134 1585.98 C 900.053 1590.07 899.559 1592.71 897.654 1596.45 L 896.165 1596.89 C 890.041 1590.87 886.472 1589.39 881.436 1597.92 L 882.879 1598.37 C 886.69 1597.46 886.744 1597.28 890.236 1595.29 C 888.857 1599.34 886.795 1603.56 881.93 1603.17 L 880.213 1601.14 C 879.135 1597.06 880.638 1594 881.912 1589.82 C 884.147 1588.47 888.962 1586.07 889.334 1583.58 L 886.004 1583.62 L 885.715 1582.76 C 888.553 1580.9 890.196 1580.06 893.25 1578.55 z" fill="rgb(244,239,219)" transform="translate(0,0)"></path>
<path d="M 865.561 1317.06 C 863.11 1313.04 861.323 1310.17 862.121 1305.45 C 864.236 1302.29 862.848 1303.11 866.105 1302.44 C 869.892 1305.65 865.016 1304.41 868.132 1311.75 C 869.964 1308.35 870.697 1306.13 873.957 1304.12 C 881.945 1302.76 883.405 1312.38 885.296 1318.63 L 876.511 1313.42 C 873.732 1315.31 870.101 1318.32 867 1318.56 L 865.561 1317.06 z" fill="rgb(244,239,219)" transform="translate(0,0)"></path>
<path d="M 913.266 1431.44 L 914.595 1432.15 C 915.271 1435.52 915.502 1434.32 914.625 1437.29 L 911.231 1437.22 L 910.751 1438.48 C 913.301 1440.23 913.84 1440.22 915.622 1442.66 L 909.439 1443.62 C 914.177 1446.17 916.49 1446.71 918.099 1451.41 C 917.085 1454.25 917.983 1453.44 915.998 1454.8 L 912.278 1449.58 C 910.338 1447.57 909.337 1446.57 907.154 1444.73 C 904.14 1445.4 902.019 1446.96 899.355 1448.56 L 898.058 1448.22 C 894.936 1432.59 904.107 1437.07 913.266 1431.44 z" fill="rgb(244,239,219)" transform="translate(0,0)"></path>
<path d="M 1129.29 1377.55 C 1134.31 1378.52 1135.34 1382.03 1137.84 1386.23 C 1137.42 1389.41 1136.83 1396.08 1134.8 1398.14 C 1132.2 1393.47 1131.69 1390.65 1126.24 1390.28 C 1122.35 1392.09 1123.52 1390.77 1121.51 1393.66 L 1122.9 1394.68 L 1127.35 1393.91 C 1128.46 1393.56 1127.8 1393.6 1129.3 1394.32 C 1129.07 1394.53 1119.34 1398.15 1117.1 1399.38 C 1118.09 1394.93 1119.15 1387.9 1121.64 1384.45 C 1125.23 1382.9 1126.28 1383.27 1130.39 1383.5 L 1131.74 1383.58 L 1131.84 1382.64 C 1129.73 1381.68 1129.79 1381.81 1128.25 1380.11 L 1129.29 1377.55 z" fill="rgb(244,239,219)" transform="translate(0,0)"></path>
<path d="M 1123.91 1580.18 C 1129.92 1571.69 1133.29 1567.54 1141.55 1578 C 1142.8 1582.57 1143.5 1583.52 1141.93 1587.68 C 1139.09 1584.41 1139.14 1583.41 1135.57 1582.52 C 1130.18 1584.4 1129.78 1588.05 1127.94 1593.08 L 1127.05 1592.65 C 1125.88 1588.38 1124.85 1584.51 1123.91 1580.18 z" fill="rgb(244,239,219)" transform="translate(0,0)"></path>
<path d="M 894.63 1601.03 L 895.475 1602.11 C 894.3 1610.06 892.507 1615.59 889.016 1622.74 C 886.091 1619.28 885.15 1616.49 881.225 1614.09 L 873.706 1616.55 C 872.744 1614.23 872.991 1615.51 874.197 1612.31 C 878.569 1607.91 885.057 1605.75 890.996 1604.44 C 893.558 1603.88 892.396 1604.18 894.63 1601.03 z" fill="rgb(244,239,219)" transform="translate(0,0)"></path>
<path d="M 901.694 1510.85 C 906.725 1509 905.914 1508.45 910.464 1509.23 C 912.88 1511.8 913.6 1512.63 915.636 1515.49 C 915.309 1519.31 915.364 1523.33 913.579 1526.63 C 910.338 1524.16 909.588 1518.5 905.922 1513.75 C 905.564 1516.22 905.563 1519.54 903.195 1520.81 C 901.444 1520.29 900.647 1520.05 898.952 1519.22 L 897.064 1521.86 C 898.221 1523.21 897.533 1522.55 899.173 1523.81 L 897.034 1526.34 L 895.683 1525.9 C 894.236 1518.66 895.454 1514.28 901.694 1510.85 z" fill="rgb(244,239,219)" transform="translate(0,0)"></path>
<path d="M 1117.02 1403.6 C 1133.86 1394.52 1134.52 1402.09 1131.88 1416.96 L 1123.41 1414.25 L 1130.16 1413.48 L 1130.61 1412.44 C 1128.41 1409.79 1127.92 1409.85 1124.83 1408.44 C 1119.49 1411.19 1117.72 1413.74 1113.6 1418.12 C 1114.59 1412.23 1115.01 1409.36 1117.02 1403.6 z" fill="rgb(244,239,219)" transform="translate(0,0)"></path>
<path d="M 1120.16 1564.94 C 1119.43 1558.87 1122.88 1554.56 1128.48 1552.66 C 1131.82 1553.01 1132.54 1553.54 1135.49 1554.97 L 1138.42 1567.34 L 1137.91 1568.07 C 1135.37 1565.69 1132.32 1562.09 1129.16 1561.76 C 1125.97 1563.12 1125.58 1563.12 1123.88 1566.16 C 1126.56 1566.81 1128.17 1566.35 1131.02 1566.08 C 1127.69 1568.95 1126.73 1569.76 1123 1571.98 C 1120.69 1570.31 1121.05 1568.58 1120.16 1564.94 z" fill="rgb(244,239,219)" transform="translate(0,0)"></path>
<path d="M 907.305 1452.86 C 909.818 1454.55 911.627 1456.04 913.95 1457.96 C 915.235 1461.82 919.39 1467.62 917.746 1471.27 C 914.38 1470.11 912.156 1466.8 909.744 1463.99 L 907.994 1463.12 C 902.362 1464.95 900.704 1470.32 897.881 1475.79 L 897.732 1459.92 C 900.97 1457.77 904.193 1455.22 907.305 1452.86 z" fill="rgb(244,239,219)" transform="translate(0,0)"></path>
<path d="M 1132.62 1369.9 C 1129.65 1370.25 1129.69 1370.36 1126.92 1371.63 C 1126.39 1374.83 1125.69 1377.55 1122.38 1378.93 C 1122.39 1372.1 1125.65 1361.76 1133.24 1360.12 C 1140.8 1361.47 1141.84 1365.04 1141.45 1371.49 C 1140.59 1374.82 1140.95 1376.19 1138.81 1377.7 C 1135.87 1374.84 1135.03 1372.86 1132.62 1369.9 z" fill="rgb(244,239,219)" transform="translate(0,0)"></path>
<path d="M 1143.47 1615.14 L 1138.06 1612.49 C 1141.63 1610.25 1142.97 1609 1147.01 1608.33 C 1154.32 1610.69 1155.36 1619.03 1157.77 1626.02 C 1152.78 1621.21 1150.9 1619.01 1146.88 1613.38 L 1146.02 1613.99 L 1146.71 1614.7 C 1150.15 1619.79 1144.89 1626.32 1140.22 1627.35 L 1138.47 1625.77 C 1137.39 1622.04 1137.41 1622.11 1137.44 1618.22 C 1139.56 1617.21 1141.4 1616.24 1143.47 1615.14 z" fill="rgb(244,239,219)" transform="translate(0,0)"></path>
<path d="M 904.341 1489.77 C 911.98 1490.97 921.004 1498.9 916.405 1506.27 C 913.427 1505.81 913.359 1504.3 910.87 1500.96 C 904.7 1497.67 905.4 1501.35 897.839 1503.6 C 894.157 1498.25 900.733 1492.7 904.341 1489.77 z" fill="rgb(244,239,219)" transform="translate(0,0)"></path>
<path d="M 1119.01 1512.77 C 1123.25 1513.02 1124.92 1512.85 1128.3 1515.44 C 1130.43 1518.84 1131.45 1529.02 1131 1532.84 C 1127.19 1527.64 1129.54 1528.24 1125.88 1522.69 L 1122.47 1523.09 C 1119.15 1525.15 1116.9 1529.27 1114.64 1532.62 C 1113.91 1528.94 1112.55 1524.35 1113.36 1520.85 C 1115.17 1518.82 1115.84 1518.45 1118.27 1517.19 L 1119.01 1512.77 z" fill="rgb(244,239,219)" transform="translate(0,0)"></path>
<path d="M 909.347 1475.58 L 907.548 1470.88 L 908.31 1469.57 C 911.497 1471.53 913.184 1473.78 915.68 1476.55 C 915.224 1478.61 915.686 1477.62 913.438 1479.19 L 914.341 1480.02 C 917.279 1482.75 918.036 1483.06 919.152 1486.67 C 918.02 1489.83 918.982 1488.67 916.377 1490.44 C 914.665 1485.13 910.323 1483.25 909.886 1479.04 C 905.167 1480.12 902.794 1481.43 900.544 1485.76 L 900.938 1487.99 C 899.963 1489.34 900.631 1488.73 898.728 1489.58 C 897.376 1487.12 897.861 1481.69 897.885 1478.61 C 901.014 1475.26 902.084 1472.85 905.846 1472.25 C 906.943 1473.45 908.105 1474.52 909.347 1475.58 z" fill="rgb(244,239,219)" transform="translate(0,0)"></path>
<path d="M 1142 1590.99 L 1144.68 1591.36 C 1147.03 1594.29 1148.85 1600.45 1149.31 1604.08 C 1146.29 1602.1 1146.29 1602.03 1142.67 1600.81 C 1138.82 1601.71 1140.39 1600.8 1137.66 1603.4 C 1136.9 1605.34 1136.26 1606.6 1135.31 1608.47 L 1133.5 1608.55 C 1131.81 1606.9 1131.51 1607.2 1131 1605.15 C 1130.24 1602.25 1130.69 1599.17 1132.23 1596.6 C 1134.73 1592.41 1137.54 1591.98 1142 1590.99 z" fill="rgb(244,239,219)" transform="translate(0,0)"></path>
<path d="M 896.113 1564.02 C 899.428 1563.79 899.559 1564.15 902.48 1565.63 C 905.602 1569.63 905.873 1574.17 901.964 1577.7 C 898.461 1577.37 899.15 1576.79 895.984 1573.02 C 891.138 1574.64 888.522 1577.7 885.878 1577.42 C 884.938 1568.97 889.736 1567.4 896.113 1564.02 z" fill="rgb(244,239,219)" transform="translate(0,0)"></path>
<path d="M 1115.65 1494.93 C 1119.77 1494.63 1121.67 1494.15 1125.48 1495.44 C 1128.31 1498.45 1128.63 1505.32 1128.69 1509.42 L 1127.74 1509.98 L 1123.02 1503.49 C 1117.03 1504.48 1117.85 1506.07 1112.77 1509.75 C 1107.9 1505.72 1112.64 1498.52 1115.65 1494.93 z" fill="rgb(244,239,219)" transform="translate(0,0)"></path>
<path d="M 1116.68 1435.45 C 1121.68 1436.38 1123.83 1438.58 1127.99 1441.6 L 1127.99 1442.69 C 1127.98 1445.3 1128.42 1450.63 1126.99 1452.03 C 1123.06 1448.08 1122.88 1446.82 1117.29 1447.56 C 1115.16 1450.65 1114.61 1451.5 1111.97 1454.1 C 1106.46 1446.66 1110.19 1443.58 1117.2 1440.64 C 1116.92 1439.72 1116.48 1439.8 1115.22 1439.01 L 1116.68 1435.45 z" fill="rgb(244,239,219)" transform="translate(0,0)"></path>
<path d="M 1120.14 1417.64 C 1129.25 1417.7 1134.05 1424.95 1128.63 1431.34 C 1125.12 1429.1 1124.11 1428.68 1120.08 1427.66 C 1117.18 1430.18 1113.57 1434.41 1110.89 1437.35 C 1113.15 1426.91 1112.33 1424.37 1120.14 1417.64 z" fill="rgb(244,239,219)" transform="translate(0,0)"></path>
<path d="M 1148.71 1306.03 C 1153.03 1305.63 1152.86 1305.52 1156.93 1306.82 C 1161.48 1311.79 1158.96 1318.84 1154.48 1322.94 C 1154.33 1320.28 1154.73 1316.68 1152.95 1314.49 C 1149.35 1315.32 1145.89 1315.48 1142.55 1316.48 C 1143.3 1317.43 1144.06 1318.37 1144.82 1319.31 C 1142.63 1320.66 1142.49 1321.03 1140.01 1321.33 C 1139.38 1315.29 1143.82 1309.2 1148.71 1306.03 z" fill="rgb(244,239,219)" transform="translate(0,0)"></path>
<path d="M 900.938 1416.77 C 906.098 1416.19 909.873 1418.84 913.685 1421.93 C 911.401 1424.82 906.565 1422.72 900.712 1425.18 L 900.577 1426.77 L 903.237 1429.57 L 909.575 1426.75 C 910.83 1426.89 911.516 1427.2 912.734 1427.59 C 910.458 1431.61 901.726 1429.3 897.53 1434.49 C 895.846 1431.31 895.668 1426.18 895.327 1422.51 C 895.146 1420.57 898.947 1418.32 900.938 1416.77 z" fill="rgb(244,239,219)" transform="translate(0,0)"></path>
<path d="M 1120.53 1456.85 L 1115.11 1457.47 L 1114.06 1456.49 C 1116.29 1454.25 1115.24 1455.23 1119.36 1454.55 C 1122.74 1455.51 1122.7 1455.95 1124.89 1458.66 C 1126.74 1461.95 1128.17 1465.92 1126.06 1469.45 L 1124.51 1469.65 L 1121.3 1465.78 C 1118.15 1467.22 1113.47 1471.07 1110.5 1473.3 C 1104.84 1459.99 1117.53 1461.96 1120.51 1459.78 L 1120.53 1456.85 z" fill="rgb(244,239,219)" transform="translate(0,0)"></path>
<path d="M 902.352 1526.79 C 912.435 1526.28 914.932 1539.04 910.697 1542.77 C 907.496 1538.4 905.85 1535.5 901.178 1532.55 L 899.737 1537.02 C 896.182 1539.27 896.074 1539.5 893.423 1542.93 L 892.766 1543.79 C 891.751 1542.06 893.889 1535.37 894.502 1532.68 C 896.978 1530.59 899.722 1528.7 902.352 1526.79 z" fill="rgb(244,239,219)" transform="translate(0,0)"></path>
<path d="M 899.226 1545.86 C 906.955 1545.9 914.337 1551.14 908.168 1558.48 L 906.24 1558.64 L 902.674 1555.25 C 897.777 1554.42 896.792 1555.79 891.452 1557.27 L 890.617 1556.1 C 892.428 1549.15 892.961 1549.46 899.226 1545.86 z" fill="rgb(244,239,219)" transform="translate(0,0)"></path>
<path d="M 1122.65 1531.61 C 1132.3 1533.25 1133.31 1542.81 1134.69 1550.56 C 1130.95 1545.08 1129.93 1543.5 1123.72 1541.4 C 1121.52 1544.82 1120.2 1550.47 1117.76 1551.66 C 1111.37 1537.97 1122.26 1541.72 1122.65 1531.61 z" fill="rgb(244,239,219)" transform="translate(0,0)"></path>
<path d="M 866.113 1641.35 C 872.035 1640.89 878.842 1639.34 881.521 1645.71 C 881.153 1650 879.566 1651.84 877.296 1655.67 C 870.834 1644.2 864.925 1650.39 861.369 1645.49 C 863.066 1642.44 862.624 1643.36 866.113 1641.35 z" fill="rgb(244,239,219)" transform="translate(0,0)"></path>
<path d="M 1153.6 1626.82 C 1158.59 1627.34 1161.45 1631.65 1159.95 1636.15 C 1153.34 1637.61 1153.84 1636.99 1150.53 1642.47 L 1149.79 1644.02 L 1148.12 1644.54 L 1145.97 1642.58 C 1142.7 1634.95 1148.55 1631.18 1153.6 1626.82 z" fill="rgb(244,239,219)" transform="translate(0,0)"></path>
<path d="M 1118.72 1476.7 L 1120.04 1476.17 C 1124.48 1477.03 1128.21 1481.74 1128.35 1486.19 L 1126.75 1487.57 C 1123.89 1486.93 1122.44 1485.74 1119.99 1484.17 C 1116.33 1487.19 1113.85 1490.55 1109.96 1487.06 C 1109.2 1482.82 1110.45 1480.56 1113.49 1477.77 C 1115.02 1477.54 1115.95 1477.38 1117.48 1477.01 L 1118.72 1476.7 z" fill="rgb(244,239,219)" transform="translate(0,0)"></path>
<path d="M 1161.4 1642.8 C 1163.43 1643.89 1165.45 1647.03 1167.18 1649 C 1167.96 1657.22 1157.19 1655.34 1158.65 1662.03 C 1161.05 1662.02 1159.88 1661.93 1162.15 1662.28 C 1160.28 1664.19 1161.07 1663.68 1158.46 1664.58 L 1156.31 1663.49 C 1152.72 1658.81 1151.44 1654.84 1155.32 1649.84 C 1158.66 1648.78 1159.21 1648.83 1162.08 1646.73 L 1161.4 1642.8 z" fill="rgb(244,239,219)" transform="translate(0,0)"></path>
<path d="M 1134.7 1342.41 C 1139.81 1343.04 1142.18 1344.91 1146.61 1347.48 C 1145.94 1350.85 1145.34 1355.68 1143.57 1358.43 L 1142.38 1356.03 C 1135.98 1350.24 1134.34 1354.3 1129.26 1351.35 C 1129.85 1347.99 1132.53 1345.21 1134.7 1342.41 z" fill="rgb(244,239,219)" transform="translate(0,0)"></path>
<path d="M 1146.28 1322.75 C 1148.33 1323.18 1147.57 1322.96 1149.4 1324.3 C 1148.98 1327.44 1148.54 1327.84 1149.41 1330.69 C 1150.94 1328.53 1151.74 1327.37 1153.53 1325.37 C 1153.75 1328.78 1151.08 1335.02 1149.83 1338.55 L 1148.97 1338.68 C 1143.69 1332.57 1142.88 1333.2 1135.23 1331.42 L 1135.89 1328.96 C 1138.93 1325.66 1142.15 1324.64 1146.28 1322.75 z" fill="rgb(244,239,219)" transform="translate(0,0)"></path>
<path d="M 1162.99 1272.01 L 1169.4 1272.72 C 1167.43 1273.54 1168.14 1272.88 1167.17 1274.62 C 1169.34 1276.97 1169.77 1277.63 1171.49 1280.19 C 1171.96 1283.53 1172.07 1283.31 1170.71 1286.37 L 1169.2 1286.03 C 1166.35 1284.11 1162.8 1281.18 1159.6 1281.11 C 1159.47 1282.53 1159.46 1283.71 1159.59 1285.11 C 1155.93 1283.3 1157.26 1284.58 1155.16 1281.48 C 1155.36 1276.03 1158.73 1274.46 1162.99 1272.01 z" fill="rgb(244,239,219)" transform="translate(0,0)"></path>
<path d="M 1167.09 1659.58 C 1171.15 1659.78 1173.77 1659.41 1175.41 1663.52 C 1173.14 1668.73 1169.58 1669.42 1166.62 1675.45 L 1166.02 1676.59 L 1164.03 1677.05 C 1161.5 1675.46 1161.51 1675.68 1160.34 1672.98 C 1160.95 1668.76 1164.63 1664.6 1167.09 1659.58 z" fill="rgb(244,239,219)" transform="translate(0,0)"></path>
<path d="M 1157.4 1288.82 C 1160.01 1288.63 1159.87 1288.76 1162.31 1289.83 C 1165.64 1293.63 1165.91 1298.14 1162.73 1302.01 C 1158.73 1298.67 1157.79 1297.89 1152.63 1297.13 C 1150.5 1300.07 1150.49 1300.35 1147.49 1302.6 L 1146.81 1301.55 C 1149.43 1294.76 1151.15 1292.4 1157.4 1288.82 z" fill="rgb(244,239,219)" transform="translate(0,0)"></path>
<path d="M 889.088 1337.76 L 892.367 1339.1 C 896.235 1343.6 896.903 1349.25 898.366 1355.17 C 895.992 1352.09 893.723 1347.97 889.85 1347.69 L 879.4 1355.9 C 879.57 1355.02 879.746 1354.14 879.928 1353.25 C 881.682 1344.85 882.096 1342.36 889.088 1337.76 z" fill="rgb(244,239,219)" transform="translate(0,0)"></path>
<path d="M 878.955 1323.07 L 880.327 1320.78 C 885.215 1321.12 889.888 1324.33 890.584 1329.36 C 886.872 1333.3 881.823 1331.68 876.765 1331.07 C 875.811 1329.03 875.995 1330.11 876.241 1327.84 L 878.955 1323.07 z" fill="rgb(244,239,219)" transform="translate(0,0)"></path>
<path d="M 877.831 1334.8 C 880.746 1334.92 880.618 1335.46 881.945 1337.53 C 881.853 1341.73 879.423 1345.55 877.504 1349.46 C 875.252 1347.46 873.491 1343.72 873.575 1340.62 C 873.674 1336.94 875.089 1336.94 877.831 1334.8 z" fill="rgb(244,239,219)" transform="translate(0,0)"></path>
<path d="M 875.493 1318.85 L 876.303 1319.64 C 876.006 1322.6 872.424 1331.04 871.202 1334.28 C 867.217 1324.04 866.655 1325.46 875.493 1318.85 z" fill="rgb(244,239,219)" transform="translate(0,0)"></path>
<path d="M 890.578 1354.05 L 892.587 1354.22 L 893.185 1355.38 C 888.553 1357.64 886.118 1359 881.798 1361.81 L 880.845 1362.3 C 879.46 1359.78 879.712 1359.76 879.812 1356.82 C 883.411 1355.76 886.937 1354.93 890.578 1354.05 z" fill="rgb(244,239,219)" transform="translate(0,0)"></path>
<path d="M 900.544 1485.76 C 905.249 1484.83 909.241 1484.45 913.046 1487.95 C 907.342 1488.78 907.832 1486.09 900.938 1487.99 L 900.544 1485.76 z" fill="rgb(126,202,179)" transform="translate(0,0)"></path>
<path d="M 1129.08 1355.8 C 1131.86 1355.82 1135.34 1355.82 1137.43 1357.65 L 1133.76 1358 C 1130.45 1359.11 1130.34 1359.24 1126.69 1359.5 L 1126.51 1358.36 L 1129.08 1355.8 z" fill="rgb(244,239,219)" transform="translate(0,0)"></path>
<metadata><recraft-signature>{"signed_by": "recraft", "signature_b64": "3Li88iHtY0B/Z+E8lVJoX6YVcnQFlhVABciykHzc7JfLv6aU3qj89+PX/21V/Im5rCuqyqb6uJV8Qln7T7hGDw==", "signing_algo": "Ed25519", "generation_timestamp": 1771179051, "identifier": "06106c78-b858-4c03-9d43-ca9c053b548b"}</recraft-signature></metadata></svg>