<svg xmlns="http://www.w3.org/2000/svg" height="1024" preserveAspectRatio="none" style="display: block;" version="1.1" viewBox="0 0 2048 2048" width="1024">
<path d="M 0 0 L 2048 0 L 2048 2048 L 0 2048 L 0 0 z" fill="rgb(254,254,254)" transform="translate(0,0)"></path>
<path d="M 1024.41 820.36 C 1044.07 827.685 1068.6 833.072 1089.21 838.906 C 1141.06 853.663 1193.06 867.923 1245.18 881.684 C 1313.04 900.553 1381.06 918.788 1449.26 936.386 C 1473.41 942.562 1504.03 952.138 1527.75 956.601 C 1546.06 961.819 1607.28 959.899 1629.3 959.9 L 1792.73 959.938 C 1808.06 959.928 1835.91 957.058 1849.91 960.623 C 1857.86 962.647 1864.53 968.601 1868.36 975.74 C 1871.51 981.608 1873.05 989.071 1870.96 995.549 C 1868.53 1003.07 1863.51 1010.07 1856.28 1013.55 C 1842.1 1020.36 1754.89 1015.88 1730.97 1016.62 L 1730.93 1615.65 L 1761.92 1615.99 C 1761.21 1621.26 1761.33 1622.71 1761.78 1628.04 C 1761.85 1650.48 1761.49 1674.66 1762.09 1696.97 C 1784.92 1698.52 1819.75 1698.65 1843.15 1697.92 L 1849.1 1698.1 C 1903.91 1698.04 1960.18 1697.3 2014.87 1698.11 C 2031.92 1708.61 2032.14 1732.75 2010.88 1734.6 C 1997.42 1735.78 1980.62 1735.02 1966.91 1735.05 L 1884.29 1735.15 L 1618.65 1735.17 L 493.189 1735.35 L 170.018 1735.29 L 83.975 1735.26 C 70.3049 1735.29 51.6765 1735.95 38.7569 1734.61 C 20.3074 1732.7 14.6696 1705.92 35.9952 1698.6 C 52.2075 1693.03 144.862 1701.45 152.808 1696.4 L 153.42 1692.69 C 153.881 1694.64 153.804 1696.39 155.062 1696.96 C 160.459 1699.38 170.544 1697.77 176.865 1697.93 C 213.306 1697.99 254.945 1699.06 290.965 1697.79 L 291.058 1616.95 L 318.028 1616.89 L 317.293 1016.94 C 296.416 1016.66 205.741 1019.32 194.534 1014.61 C 187.608 1011.7 181.304 1006.41 178.768 999.151 C 176.08 991.458 176.811 982.094 180.777 974.98 C 184.896 967.589 192.078 962.822 200.251 961 C 216.232 957.438 246.891 959.719 264.741 959.736 L 426.214 959.881 C 458.235 959.902 500.648 963.161 530.443 954.545 C 598.995 937.657 669.873 915.773 738.562 897.578 C 801.331 881.162 863.978 864.286 926.499 846.951 C 958.039 838.39 993.364 829.959 1024.41 820.36 z" fill="rgb(88,10,45)" transform="translate(0,0)"></path>
<path d="M 153.42 1692.69 C 153.881 1694.64 153.804 1696.39 155.062 1696.96 C 160.459 1699.38 170.544 1697.77 176.865 1697.93 C 213.306 1697.99 254.945 1699.06 290.965 1697.79 C 307.164 1696.83 329.643 1697.41 346.284 1697.35 L 455.717 1697.15 L 785.414 1697.27 L 1762.09 1696.97 C 1784.92 1698.52 1819.75 1698.65 1843.15 1697.92 L 1849.1 1698.1 C 1903.91 1698.04 1960.18 1697.3 2014.87 1698.11 C 2031.92 1708.61 2032.14 1732.75 2010.88 1734.6 C 1997.42 1735.78 1980.62 1735.02 1966.91 1735.05 L 1884.29 1735.15 L 1618.65 1735.17 L 493.189 1735.35 L 170.018 1735.29 L 83.975 1735.26 C 70.3049 1735.29 51.6765 1735.95 38.7569 1734.61 C 20.3074 1732.7 14.6696 1705.92 35.9952 1698.6 C 52.2075 1693.03 144.862 1701.45 152.808 1696.4 L 153.42 1692.69 z" fill="rgb(178,214,254)" transform="translate(0,0)"></path>
<path d="M 759.562 1016.2 L 1021.33 1016.14 L 1287.81 1016.37 L 1288.18 1180.73 L 1288.95 1616.01 L 1250.04 1615.98 L 1171 1616.07 L 877.956 1616.35 L 801.101 1616.3 C 787.942 1616.75 772.829 1616.36 759.521 1616.31 C 759.364 1606.74 759.4 1596.75 759.558 1587.18 C 760.664 1520.1 758.183 1452.25 759.801 1385.24 C 758.875 1374.19 759.41 1355.51 759.416 1343.8 L 759.419 1268.77 L 759.562 1016.2 z" fill="rgb(178,214,254)" transform="translate(0,0)"></path>
<path d="M 877.956 1616.35 C 876.852 1534.4 877.858 1449.17 877.936 1367.07 L 878.018 1281.79 C 878.028 1265.41 877.721 1248.9 878.704 1232.55 C 879.43 1220.49 886.366 1217.63 897.276 1217.13 C 910.187 1216.53 923.085 1216.79 935.998 1216.81 L 1007.33 1216.96 C 1054.87 1217.03 1102.67 1216.54 1150.24 1216.73 C 1154.69 1217.14 1162.1 1216.82 1165.45 1220.14 C 1168.16 1222.83 1170.46 1227.74 1170.66 1231.56 C 1171.48 1246.76 1171.14 1262.28 1171.12 1277.52 L 1170.97 1364.53 C 1171.47 1448.38 1171.49 1532.22 1171 1616.07 L 877.956 1616.35 z" fill="rgb(254,254,254)" transform="translate(0,0)"></path>
<path d="M 1250.04 1615.98 C 1245.94 1615.02 1247.14 1616.15 1245.35 1613.48 C 1244.34 1562.03 1246.53 1506.25 1246.35 1454.1 L 1246.14 1292.84 C 1246.1 1263.1 1245.99 1233.42 1246.17 1203.59 C 1246.29 1182.3 1248.81 1180.15 1270.99 1180.38 C 1276.51 1180.44 1282.6 1180.6 1288.18 1180.73 L 1288.95 1616.01 L 1250.04 1615.98 z" fill="rgb(254,254,254)" transform="translate(0,0)"></path>
<path d="M 760.223 1180.97 C 769.657 1180.85 795.218 1179.24 797.822 1184.87 C 803.035 1196.16 801.802 1250.27 801.929 1261.62 C 802.351 1306.57 802.548 1351.52 802.52 1396.47 L 801.77 1534.56 C 801.653 1559.14 802.433 1592.31 801.101 1616.3 C 787.942 1616.75 772.829 1616.36 759.521 1616.31 C 759.364 1606.74 759.4 1596.75 759.558 1587.18 C 760.664 1520.1 758.183 1452.25 759.801 1385.24 C 761.219 1367.21 760.304 1338.32 760.295 1319.42 L 760.223 1180.97 z" fill="rgb(254,254,254)" transform="translate(0,0)"></path>
<path d="M 1315.1 1016.4 L 1542.11 1016.23 C 1595.18 1016.18 1650.7 1015.33 1703.64 1016.29 L 1703.57 1615.96 L 1654.03 1615.87 L 1611.44 1616.13 C 1611.2 1598 1611.06 1579.87 1611.01 1561.73 C 1621.72 1561.76 1641.14 1563.75 1648.83 1556.54 L 1648.58 1554.6 C 1639.68 1547.82 1621.83 1549.75 1610.39 1549.92 C 1609.7 1542.23 1610.12 1531.91 1610.23 1523.99 L 1598.11 1523.82 L 1598.1 1549.74 C 1562.59 1549.64 1514.97 1550.83 1480.8 1549.08 L 1478.46 1549.53 C 1470.84 1548.55 1454.99 1548.94 1446.97 1548.94 L 1393.58 1549.05 C 1392.48 1541.73 1394.22 1529.33 1392.07 1524.14 C 1388.56 1523.62 1388.81 1523.63 1385.41 1524.7 C 1380.97 1529.03 1383.03 1539.95 1382.77 1548.14 C 1375.72 1553.59 1345.6 1542.61 1341.03 1554.46 C 1341.77 1558.34 1340.92 1556.71 1343.68 1559.52 C 1352.43 1562.2 1365.35 1561.27 1374.88 1561.11 C 1375.27 1579.35 1375.3 1597.85 1376.62 1616.01 L 1315.59 1616.01 C 1313.79 1472.3 1315.9 1325.82 1315.67 1181.77 L 1315.1 1016.4 z" fill="rgb(178,214,254)" transform="translate(0,0)"></path>
<path d="M 1480.65 1181.51 C 1504.36 1179.02 1534.15 1181.8 1558.47 1180.97 C 1586.04 1181.39 1613.91 1180.16 1641.42 1181.82 C 1653.87 1182.56 1653.31 1192.97 1653.35 1202.46 C 1653.97 1337.04 1654.08 1471.6 1655.14 1606.19 C 1655.17 1609.19 1655.37 1613.25 1654.03 1615.87 L 1611.44 1616.13 C 1611.2 1598 1611.06 1579.87 1611.01 1561.73 C 1621.72 1561.76 1641.14 1563.75 1648.83 1556.54 L 1648.58 1554.6 C 1639.68 1547.82 1621.83 1549.75 1610.39 1549.92 C 1609.7 1542.23 1610.12 1531.91 1610.23 1523.99 L 1598.11 1523.82 L 1598.1 1549.74 C 1562.59 1549.64 1514.97 1550.83 1480.8 1549.08 L 1478.46 1549.53 C 1470.84 1548.55 1454.99 1548.94 1446.97 1548.94 L 1393.58 1549.05 C 1392.48 1541.73 1394.22 1529.33 1392.07 1524.14 C 1388.56 1523.62 1388.81 1523.63 1385.41 1524.7 C 1380.97 1529.03 1383.03 1539.95 1382.77 1548.14 C 1382.1 1542.4 1382.33 1529.55 1382.26 1523.29 C 1369.48 1523.38 1356.25 1523.72 1343.53 1522.83 C 1343 1516.05 1343.05 1507.3 1342.68 1501.14 C 1341.51 1481.86 1344.4 1482.06 1361.79 1482.15 C 1366.54 1482.18 1375.67 1481.81 1380.31 1480.85 C 1384.82 1480.83 1389.34 1480.74 1393.85 1480.58 C 1413.57 1482.79 1455.92 1480.66 1478.12 1481.21 L 1480.94 1480.89 L 1480.98 1284.48 C 1480.96 1251.96 1481.88 1213.61 1480.65 1181.51 z" fill="rgb(254,254,254)" transform="translate(0,0)"></path>
<path d="M 1380.31 1480.85 C 1384.82 1480.83 1389.34 1480.74 1393.85 1480.58 C 1413.57 1482.79 1455.92 1480.66 1478.12 1481.21 L 1480.94 1480.89 C 1516.99 1482.13 1560.49 1480.83 1597.01 1480.51 L 1606.97 1480.84 C 1651.59 1481.17 1643.36 1479.77 1642.98 1522.86 L 1610.95 1522.99 C 1610.81 1531.47 1610.9 1541.59 1610.39 1549.92 C 1609.7 1542.23 1610.12 1531.91 1610.23 1523.99 L 1598.11 1523.82 L 1598.1 1549.74 C 1562.59 1549.64 1514.97 1550.83 1480.8 1549.08 L 1478.46 1549.53 C 1470.84 1548.55 1454.99 1548.94 1446.97 1548.94 L 1393.58 1549.05 C 1392.48 1541.73 1394.22 1529.33 1392.07 1524.14 C 1388.56 1523.62 1388.81 1523.63 1385.41 1524.7 C 1380.97 1529.03 1383.03 1539.95 1382.77 1548.14 C 1382.1 1542.4 1382.33 1529.55 1382.26 1523.29 C 1369.48 1523.38 1356.25 1523.72 1343.53 1522.83 C 1343 1516.05 1343.05 1507.3 1342.68 1501.14 C 1341.51 1481.86 1344.4 1482.06 1361.79 1482.15 C 1366.54 1482.18 1375.67 1481.81 1380.31 1480.85 z" fill="rgb(254,66,66)" transform="translate(0,0)"></path>
<path d="M 1480.97 1523.49 C 1495.27 1523.22 1590.83 1521.49 1598.11 1523.82 L 1598.1 1549.74 C 1562.59 1549.64 1514.97 1550.83 1480.8 1549.08 C 1481.15 1540.94 1480.96 1531.71 1480.97 1523.49 z" fill="rgb(254,254,254)" transform="translate(0,0)"></path>
<path d="M 1393.68 1523.61 C 1420.05 1523.66 1452.27 1524.47 1478.18 1523.01 L 1480.97 1523.49 C 1480.96 1531.71 1481.15 1540.94 1480.8 1549.08 L 1478.46 1549.53 C 1470.84 1548.55 1454.99 1548.94 1446.97 1548.94 L 1393.58 1549.05 C 1393.9 1541.11 1393.67 1531.66 1393.68 1523.61 z" fill="rgb(254,254,254)" transform="translate(0,0)"></path>
<path d="M 1478.18 1523.01 L 1480.97 1523.49 C 1480.96 1531.71 1481.15 1540.94 1480.8 1549.08 L 1478.46 1549.53 C 1477.93 1540.72 1478.11 1531.85 1478.18 1523.01 z" fill="rgb(178,214,254)" transform="translate(0,0)"></path>
<path d="M 1540.14 1489.5 C 1570.16 1488.64 1605.25 1488.44 1635.16 1489.44 L 1635.11 1515.93 L 1445.5 1516.14 C 1413.65 1516.33 1381.8 1515.97 1349.96 1515.05 C 1349.64 1506.66 1349.88 1498.42 1350.06 1490.04 C 1412.76 1488.89 1477.14 1489.9 1540.14 1489.5 z" fill="rgb(254,161,149)" transform="translate(0,0)"></path>
<path d="M 1597.01 1480.51 C 1596.74 1474.87 1595.43 1467.95 1602.84 1467.01 C 1607.86 1470.38 1607.27 1471.32 1607.09 1477.11 L 1606.97 1480.84 L 1597.01 1480.51 z" fill="rgb(88,10,45)" transform="translate(0,0)"></path>
<path d="M 1315.67 1181.77 C 1367.85 1179.05 1426.82 1183.35 1478.34 1180.62 C 1476.51 1220.68 1477.66 1270.81 1477.79 1311.41 C 1477.45 1368.01 1477.56 1424.61 1478.12 1481.21 C 1455.92 1480.66 1413.57 1482.79 1393.85 1480.58 C 1389.34 1480.74 1384.82 1480.83 1380.31 1480.85 C 1375.67 1481.81 1366.54 1482.18 1361.79 1482.15 C 1344.4 1482.06 1341.51 1481.86 1342.68 1501.14 C 1343.05 1507.3 1343 1516.05 1343.53 1522.83 C 1356.25 1523.72 1369.48 1523.38 1382.26 1523.29 C 1382.33 1529.55 1382.1 1542.4 1382.77 1548.14 C 1375.72 1553.59 1345.6 1542.61 1341.03 1554.46 C 1341.77 1558.34 1340.92 1556.71 1343.68 1559.52 C 1352.43 1562.2 1365.35 1561.27 1374.88 1561.11 C 1375.27 1579.35 1375.3 1597.85 1376.62 1616.01 L 1315.59 1616.01 C 1313.79 1472.3 1315.9 1325.82 1315.67 1181.77 z" fill="rgb(254,254,254)" transform="translate(0,0)"></path>
<path d="M 1380.31 1480.85 C 1381.41 1475.42 1380.41 1476.68 1383.64 1472.87 C 1387.39 1471.42 1385.52 1471.57 1389.47 1472.44 C 1393.1 1475.34 1393.06 1475.82 1393.85 1480.58 C 1389.34 1480.74 1384.82 1480.83 1380.31 1480.85 z" fill="rgb(88,10,45)" transform="translate(0,0)"></path>
<path d="M 346.448 1016.13 L 731.031 1016.32 L 730.948 1180.75 L 731.312 1616.96 L 707.639 1617.07 C 707.69 1600.23 708.547 1572.93 706.817 1556.93 C 703.294 1524.34 685.759 1488.94 662.792 1465.69 C 636.811 1439.89 601.8 1425.22 565.185 1424.8 L 562.961 1424.15 C 519.144 1426 481.212 1435.67 450.232 1469.37 C 434.173 1486.53 422.514 1507.32 416.255 1529.97 C 409.554 1553.56 408.734 1576.01 409.188 1600.31 C 409.272 1604.76 410.379 1613.94 407.513 1616.84 L 402.508 1616.86 C 384.984 1617.47 364.357 1616.94 346.587 1616.94 L 346.137 1257.5 L 346.448 1016.13 z" fill="rgb(254,254,254)" transform="translate(0,0)"></path>
<path d="M 346.448 1016.13 L 731.031 1016.32 L 730.948 1180.75 C 654.351 1181.82 575.873 1180.83 499.128 1180.81 L 433.768 1180.85 C 422.948 1180.88 405.368 1180.54 394.843 1181.73 C 394.436 1218.62 393.404 1612.93 395.488 1616.08 C 397.82 1616.4 400.161 1616.66 402.508 1616.86 C 384.984 1617.47 364.357 1616.94 346.587 1616.94 L 346.137 1257.5 L 346.448 1016.13 z" fill="rgb(178,214,254)" transform="translate(0,0)"></path>
<path d="M 562.961 1424.15 L 563.012 1264.47 C 563.023 1256.22 561.941 1188.66 564.655 1185.59 C 565.576 1191.43 565.263 1205.76 565.272 1212.16 L 565.267 1261.81 L 565.185 1424.8 L 562.961 1424.15 z" fill="rgb(111,143,191)" transform="translate(0,0)"></path>
<path d="M 203.528 965.209 C 234.574 964.291 268.223 964.701 299.398 964.679 L 483.023 965.044 L 947.051 964.969 L 1553.84 965.026 L 1736.02 964.844 C 1769.3 964.763 1802.1 964.683 1835.85 964.695 C 1856.01 964.703 1873.04 978.825 1862.45 1000.46 C 1859.28 1006.94 1852.31 1009.44 1845.49 1010.98 C 1804.7 1011.7 1764.7 1011.14 1724 1011.17 C 1654.9 1011.6 1585.8 1011.62 1516.7 1011.25 L 953.901 1011.24 L 447.064 1011.25 C 369.429 1011.3 291.704 1011.13 214.073 1012.05 C 175.558 1012.5 171.101 974.408 203.528 965.209 z" fill="rgb(206,85,91)" transform="translate(0,0)"></path>
<path d="M 541.595 1431.39 C 547.092 1430.52 555.159 1430.82 560.905 1430.63 C 634.227 1428 692.665 1487.93 701.904 1558.2 C 704.235 1575.93 702.984 1599.67 702.931 1617.93 C 661.717 1618.48 619.769 1618.19 578.5 1618.23 L 414.804 1618 C 413.293 1565.61 414.379 1523.79 448.354 1480.16 C 471.014 1451.07 505.263 1435.45 541.595 1431.39 z" fill="rgb(206,85,91)" transform="translate(0,0)"></path>
<path d="M 537.643 959.679 C 545.28 954.788 632.787 932.425 647.038 928.504 C 738.111 903.401 829.316 878.78 920.65 854.643 C 933.225 851.292 1015.18 827.329 1021.97 828.251 L 1022.99 830.019 C 1020.94 872.057 1023.16 918.259 1022.38 960.717 C 1016.3 959.422 990.423 959.874 982.808 959.89 L 903.485 960.062 L 669.946 960.343 C 627.366 960.358 579.936 961.261 537.643 959.679 z" fill="rgb(254,254,254)" transform="translate(0,0)"></path>
<path d="M 1028.31 828.54 C 1116.61 851.585 1205.07 877.112 1293.36 900.591 L 1414.85 933.117 C 1448.32 941.777 1484.48 950.197 1517.54 959.74 C 1508.8 960.072 1500.05 960.25 1491.3 960.273 C 1469.14 959.994 1443.47 959.303 1421.48 960.038 C 1407.89 959.247 1388.4 959.805 1374.49 959.82 L 1288.97 959.915 L 1028.15 960.135 C 1028.05 918.057 1027.02 870.193 1028.31 828.54 z" fill="rgb(254,254,254)" transform="translate(0,0)"></path>
<path d="M 416.363 1624.22 C 475.32 1622.51 540.715 1623.84 600.178 1623.8 L 653.842 1623.6 C 661.463 1623.57 682.112 1623.04 688.81 1624.84 C 708.592 1630.17 730.585 1639.24 750.068 1646.19 L 869.626 1687.57 C 858.466 1689.34 834.658 1688.46 822.25 1688.29 C 674.515 1687.24 526.775 1687.14 379.039 1687.99 C 374.425 1684.32 373.061 1683.3 367.841 1680.64 C 375.635 1667.46 405.021 1635.56 416.363 1624.22 z" fill="rgb(206,85,91)" transform="translate(0,0)"></path>
<path d="M 1477.04 1561.17 L 1559.85 1561.06 C 1565.99 1561.04 1592.64 1560.62 1597.45 1561.57 L 1597 1616.53 C 1572.62 1616.76 1548.24 1616.82 1523.87 1616.7 C 1511.64 1616.68 1492.71 1617.09 1480.85 1616.17 L 1478.3 1616.67 C 1477.72 1607.13 1479.35 1566.36 1477.04 1561.17 z" fill="rgb(254,254,254)" transform="translate(0,0)"></path>
<path d="M 1477.04 1561.17 L 1559.85 1561.06 C 1565.99 1561.04 1592.64 1560.62 1597.45 1561.57 C 1565.24 1563.66 1514.73 1562.04 1480.97 1561.98 C 1480.94 1579.89 1481.13 1598.29 1480.85 1616.17 L 1478.3 1616.67 C 1477.72 1607.13 1479.35 1566.36 1477.04 1561.17 z" fill="rgb(178,214,254)" transform="translate(0,0)"></path>
<path d="M 1390.01 1561.1 L 1477.04 1561.17 C 1479.35 1566.36 1477.72 1607.13 1478.3 1616.67 C 1472.6 1615.64 1454.63 1615.99 1447.79 1616 L 1390.37 1616.07 L 1390.01 1561.1 z" fill="rgb(254,254,254)" transform="translate(0,0)"></path>
<path d="M 162.488 1531.24 C 129.308 1530.41 97.8686 1516.22 75.2941 1491.89 C 48.5497 1463.61 39.7803 1433.2 41.2486 1395.03 C 45.5992 1281.92 185.581 1232.99 261.305 1315.72 C 308.382 1367.15 304.529 1452.17 253.051 1499.22 C 227.307 1522.75 200.129 1530.66 166.022 1531.25 C 166.447 1536.47 165.585 1536.88 168.237 1540.25 C 174.506 1543.15 181.362 1541.19 189.141 1541.23 C 183.324 1584.6 183.243 1630.4 178.629 1674.05 C 177.832 1681.59 176.981 1690.46 176.865 1697.93 C 170.544 1697.77 160.459 1699.38 155.062 1696.96 C 153.804 1696.39 153.881 1694.64 153.42 1692.69 C 150.895 1643.48 146.525 1591.72 143.553 1542.09 C 149.482 1541.53 155.822 1542.72 160.339 1540.38 C 162.963 1536.89 162.101 1536.51 162.488 1531.24 z" fill="rgb(206,85,91)" transform="translate(0,0)"></path>
<path d="M 161.569 1440.07 C 161.877 1439.95 162.203 1439.88 162.493 1439.72 C 170.575 1435.42 200.825 1384.36 209.288 1382.26 L 210.865 1383.51 C 210.929 1385.69 210.016 1387.32 208.629 1388.96 C 194.122 1406.15 179.172 1424.37 166.986 1443.35 C 166.96 1455.68 168.607 1522.22 166.022 1531.25 C 166.447 1536.47 165.585 1536.88 168.237 1540.25 C 174.506 1543.15 181.362 1541.19 189.141 1541.23 C 183.324 1584.6 183.243 1630.4 178.629 1674.05 C 177.832 1681.59 176.981 1690.46 176.865 1697.93 C 170.544 1697.77 160.459 1699.38 155.062 1696.96 C 153.804 1696.39 153.881 1694.64 153.42 1692.69 C 150.895 1643.48 146.525 1591.72 143.553 1542.09 C 149.482 1541.53 155.822 1542.72 160.339 1540.38 C 162.963 1536.89 162.101 1536.51 162.488 1531.24 C 160.111 1514.93 164.381 1464.28 161.475 1445.27 C 160.691 1444.38 159.908 1443.5 159.124 1442.62 C 153.854 1440.02 121.05 1416.9 121.157 1412.59 C 130.208 1414.77 152.845 1433.23 161.569 1440.07 z" fill="rgb(88,10,45)" transform="translate(0,0)"></path>
<path d="M 1761.92 1615.99 C 1764.48 1610.89 1762.82 1591.61 1765.42 1584.19 C 1774.44 1558.48 1783.73 1532.61 1792.28 1506.8 C 1806.14 1465.01 1800.23 1422.58 1800.99 1379.44 C 1801.19 1364.59 1799.79 1348.53 1802.63 1333.98 C 1807.22 1310.43 1839.19 1294.82 1861.25 1302.6 C 1897.88 1315.51 1894.5 1349.03 1894.43 1379.23 L 1894.72 1443.03 C 1894.81 1454.76 1894.5 1467.18 1895.47 1478.84 C 1899.94 1532.48 1947.65 1591.6 1915.07 1643.1 C 1900.06 1666.84 1877.23 1680.63 1849.01 1682.49 L 1849.1 1698.1 L 1843.15 1697.92 C 1819.75 1698.65 1784.92 1698.52 1762.09 1696.97 C 1761.49 1674.66 1761.85 1650.48 1761.78 1628.04 C 1761.33 1622.71 1761.21 1621.26 1761.92 1615.99 z" fill="rgb(178,214,254)" transform="translate(0,0)"></path>
<path d="M 1761.78 1628.04 C 1761.88 1626.29 1762.02 1619.44 1762.65 1618.25 C 1772.55 1644.92 1785.63 1662.21 1812.01 1675.68 C 1823.27 1681.43 1832.01 1679.78 1842.22 1683.14 C 1843.37 1687.52 1843.16 1689.82 1843.22 1694.42 L 1843.15 1697.92 C 1819.75 1698.65 1784.92 1698.52 1762.09 1696.97 C 1761.49 1674.66 1761.85 1650.48 1761.78 1628.04 z" fill="rgb(254,254,254)" transform="translate(0,0)"></path>
<path d="M 1842.96 1488.99 C 1844.82 1459.69 1842.82 1426.35 1843.15 1396.8 C 1843.19 1393.12 1843.87 1389.87 1845.59 1386.63 L 1847.04 1386.47 C 1850.46 1392.49 1848.99 1439.84 1849 1450.68 L 1848.93 1569.92 C 1854.87 1562.25 1879.24 1525.57 1884.53 1523.3 L 1886.21 1523.78 C 1886.38 1530.26 1871.8 1546.92 1867.31 1553.11 C 1861.27 1561.43 1854.97 1571.17 1848.81 1579.29 C 1849.63 1613.41 1848.69 1648.3 1849.01 1682.49 L 1849.1 1698.1 L 1843.15 1697.92 L 1843.22 1694.42 C 1844.54 1684.84 1843.86 1653.42 1843.88 1642.06 L 1844.03 1545.97 C 1844.04 1532.06 1843.41 1515.64 1843.95 1502.04 C 1840.22 1493.88 1819.15 1466.59 1819.96 1462.71 C 1828.24 1463.78 1838.22 1481.94 1842.96 1488.99 z" fill="rgb(88,10,45)" transform="translate(0,0)"></path>
<metadata><recraft-signature>{"signed_by": "recraft", "signature_b64": "feLNm3sQsoPJi8spxFx3+8B2Q0yNpPoG0S0AZ6r8+7hDEf+p8yvVCJt4Nmo1XOgitLNmnKlbW6S5PUTBoYc6BQ==", "signing_algo": "Ed25519", "generation_timestamp": 1771179014, "identifier": "872094c8-57da-4914-991a-8ed14bef7dc0"}</recraft-signature></metadata></svg>