<svg xmlns="http://www.w3.org/2000/svg" height="1024" preserveAspectRatio="none" style="display: block;" version="1.1" viewBox="0 0 2048 2048" width="1024">
<path d="M 0 0 L 2048 0 L 2048 2048 L 0 2048 L 0 0 z" fill="rgb(254,255,254)" transform="translate(0,0)"></path>
<path d="M 420.5 679.101 C 446.553 540.793 526.552 418.528 642.854 339.27 C 762.888 257.486 910.34 226.357 1053.19 252.643 C 1194.98 278.91 1318.42 359.386 1398.61 479.357 C 1443.99 547.244 1473.04 622.173 1515.1 691.983 C 1526.99 711.723 1537.39 732.143 1549.66 751.796 L 1509.94 797.494 C 1505.36 802.759 1491.75 818.79 1486.96 822.379 C 1489.48 826.631 1559.14 873.197 1567.94 878.124 C 1575.59 871.928 1583.08 864.783 1590.72 858.365 C 1627 875.08 1663.02 905.228 1672.03 945.836 C 1734.03 987.846 1799.08 1028.4 1860.89 1070.82 C 1864.46 1073.27 1866.9 1079.3 1867.66 1083.53 C 1869.03 1091.15 1867.1 1098.99 1862.35 1105.09 C 1849.66 1121.4 1833.19 1112.14 1819.38 1103.33 C 1820 1142.06 1820.23 1180.81 1820.05 1219.55 C 1820.08 1250.8 1820.59 1285.21 1819.73 1316.28 C 1819.87 1329.09 1819.94 1341.91 1819.93 1354.72 C 1868.27 1386.05 1899.57 1420.3 1912.74 1479.09 C 1932.66 1568.02 1894.27 1660.53 1856.39 1739.37 C 1844.19 1764.77 1823.7 1796.68 1815.6 1823.1 C 1814.57 1826.5 1814.48 1847.16 1814.44 1851.99 C 1822.33 1852.25 1836.75 1851.85 1843.47 1852.67 C 1852.52 1853.73 1857.57 1860.93 1858.23 1869.57 C 1859.21 1882.55 1849.18 1886.26 1838.16 1886.08 C 1809.06 1885.61 1780.01 1885.78 1750.93 1885.76 L 1513.58 1885.16 L 890.793 1885.24 L 358.335 1885.55 L 194.074 1885.38 C 164.151 1885.35 130.789 1886.01 101.096 1884.94 C 87.2396 1874.24 86.7934 1855.31 102.736 1853.73 C 128.717 1851.15 160.443 1854 186.527 1852.52 C 173.105 1832.16 165.759 1814.66 166.517 1789.86 C 167.971 1742.31 192.052 1716.6 223.506 1685.95 C 211.078 1673.96 200.814 1660.12 189.43 1649.09 C 184.895 1646.16 184.27 1643.94 182.839 1639.05 C 133.879 1575.89 108.193 1489.61 114.527 1410.34 C 120.105 1340.52 143.009 1266.65 182.331 1208.67 C 183.102 1203.36 184.741 1201.47 188.38 1197.79 C 190.066 1194.4 201.229 1178.88 203.892 1175.09 C 234.952 1131.24 275.044 1091.79 318.309 1060.08 C 357.699 1031.22 395.565 1011.42 415.818 963.652 C 430.913 928.052 427.513 897.296 422.987 860.08 C 419.965 835.234 417.561 809.545 416.987 784.62 C 388.529 783.129 124.898 785.916 121.128 783.42 C 119.809 780.697 120.204 777.531 121.224 774.775 C 137.139 731.786 178.856 729.698 214.999 741.539 C 217.479 704.502 225.706 675.164 258.493 653.515 C 279.247 640.078 304.461 635.363 328.668 640.392 C 359.967 647.159 376.669 667.982 392.966 693.076 C 403.708 684.725 407.287 682.131 420.5 679.101 z" fill="rgb(254,206,129)" transform="translate(0,0)"></path>
<path d="M 1116.65 1098.81 C 1079.27 1130.39 1047.71 1092.56 1074.47 1067.95 C 1084.87 1058.38 1120.72 1036.77 1134.39 1027.8 C 1176.75 999.871 1219.31 972.244 1262.07 944.924 L 1369.85 874.732 C 1393.74 859.05 1458.93 807.401 1486.96 822.379 C 1489.48 826.631 1559.14 873.197 1567.94 878.124 C 1575.59 871.928 1583.08 864.783 1590.72 858.365 C 1627 875.08 1663.02 905.228 1672.03 945.836 C 1734.03 987.846 1799.08 1028.4 1860.89 1070.82 C 1864.46 1073.27 1866.9 1079.3 1867.66 1083.53 C 1869.03 1091.15 1867.1 1098.99 1862.35 1105.09 C 1849.66 1121.4 1833.19 1112.14 1819.38 1103.33 C 1820 1142.06 1820.23 1180.81 1820.05 1219.55 C 1820.08 1250.8 1820.59 1285.21 1819.73 1316.28 C 1817.3 1320.43 1819.01 1442.72 1819.51 1457.62 C 1784.99 1438.31 1756.89 1432.93 1718.18 1442.61 C 1650.15 1459.62 1610.22 1531.28 1628.79 1598.24 C 1642.06 1646.09 1679.09 1670.45 1721.99 1688.96 C 1695.63 1703.14 1658.4 1724.78 1676.49 1760.83 C 1682.77 1773.33 1707.56 1787.94 1721.47 1787.51 C 1729.31 1789.55 1741.07 1795.31 1749.01 1798.54 C 1749.13 1816.38 1749.15 1834.22 1749.08 1852.06 L 1220.55 1851.71 C 1215.23 1850.42 1192.01 1850.78 1185.12 1850.78 L 1117.26 1850.82 C 1117.56 1830.02 1119.5 1635.27 1116.94 1630.57 C 1118.41 1627.56 1117.87 1540.81 1117.87 1530.41 L 1117.67 1202.24 C 1117.65 1189.38 1119.11 1105.11 1116.65 1098.81 z" fill="rgb(254,158,106)" transform="translate(0,0)"></path>
<path d="M 1116.65 1098.81 C 1079.27 1130.39 1047.71 1092.56 1074.47 1067.95 C 1084.87 1058.38 1120.72 1036.77 1134.39 1027.8 C 1176.75 999.871 1219.31 972.244 1262.07 944.924 L 1369.85 874.732 C 1393.74 859.05 1458.93 807.401 1486.96 822.379 C 1489.48 826.631 1559.14 873.197 1567.94 878.124 C 1575.59 871.928 1583.08 864.783 1590.72 858.365 C 1627 875.08 1663.02 905.228 1672.03 945.836 C 1734.03 987.846 1799.08 1028.4 1860.89 1070.82 C 1864.46 1073.27 1866.9 1079.3 1867.66 1083.53 C 1869.03 1091.15 1867.1 1098.99 1862.35 1105.09 C 1849.66 1121.4 1833.19 1112.14 1819.38 1103.33 C 1803.87 1090.74 1773.48 1072.27 1755.05 1059.18 C 1755.11 1070.68 1756.07 1136.35 1754.17 1142.95 C 1752.73 1142.42 1753.59 1142.83 1751.78 1141.4 C 1750.49 1134.95 1750.85 1117.68 1750.86 1110.45 L 1751.02 1056.06 C 1709 1029.92 1664.34 999.367 1623 971.812 C 1623.05 994.063 1624.22 1036.04 1622.18 1057.13 C 1621.25 1038.14 1622.65 1016.69 1622.12 997.495 C 1621.89 989.25 1622.59 979.08 1621.31 971.061 C 1618.61 976.342 1620.07 1022.13 1619.18 1033.51 C 1617.85 1016.13 1618.85 987.281 1618.91 969.151 C 1605.39 958.654 1475.05 871.713 1472.59 871.589 L 1471.71 873.852 L 1470.41 873.45 C 1469.29 881.134 1469.51 903.78 1469.57 912.489 C 1469.68 930.118 1469.01 950.752 1470 968.182 L 1469.26 968.091 C 1468.21 957.274 1468.67 940.194 1468.73 928.766 C 1468.83 908.547 1468.66 887.955 1468.95 867.774 L 1324.91 960.224 C 1324.84 972.106 1325.1 986.943 1324.19 998.508 C 1323.63 989.397 1324.9 970.29 1322.96 962.224 C 1321.4 966.604 1321.45 971.316 1321.17 976.017 L 1320.48 965.523 L 1319.65 965.025 C 1312.27 969.141 1306.88 973.675 1300.02 978.218 L 1237.49 1018.72 C 1220.37 1029.95 1190.84 1047.24 1176.04 1058.5 L 1175.85 1205.45 C 1175.82 1214 1176.71 1252 1175.27 1258.26 C 1173.62 1258.64 1174.53 1258.68 1172.61 1257.58 C 1171.5 1252.74 1172.11 1215.43 1172.12 1207.62 L 1172.16 1075.03 C 1172.03 1070.57 1171.82 1065.91 1171.82 1061.47 C 1162.47 1068.2 1120.96 1093.96 1116.65 1098.81 z" fill="rgb(243,109,83)" transform="translate(0,0)"></path>
<path d="M 1567.94 878.124 C 1575.59 871.928 1583.08 864.783 1590.72 858.365 C 1627 875.08 1663.02 905.228 1672.03 945.836 C 1661.12 940.525 1647.88 930.616 1637.48 924.047 C 1614.03 909.234 1591.26 893.036 1567.94 878.124 z" fill="rgb(254,158,106)" transform="translate(0,0)"></path>
<path d="M 1172.16 1075.03 C 1172.54 1069.65 1172.51 1066.03 1174.24 1060.89 C 1175.54 1070.57 1174.96 1103.46 1174.99 1114.58 L 1175.03 1205.75 C 1175.02 1222.39 1174.51 1241.89 1175.27 1258.26 C 1173.62 1258.64 1174.53 1258.68 1172.61 1257.58 C 1171.5 1252.74 1172.11 1215.43 1172.12 1207.62 L 1172.16 1075.03 z" fill="rgb(191,63,58)" transform="translate(0,0)"></path>
<path d="M 1751.78 1141.4 C 1752.04 1131.57 1751.07 1060.6 1752.71 1056.65 C 1755.54 1059.69 1753.82 1132.32 1754.17 1142.95 C 1752.73 1142.42 1753.59 1142.83 1751.78 1141.4 z" fill="rgb(163,48,46)" transform="translate(0,0)"></path>
<path d="M 1472.29 968.75 C 1506.17 969.401 1532.68 980.347 1556.67 1005.31 C 1575.95 1025.5 1587.23 1052.02 1588.42 1079.92 C 1589.31 1082.38 1589.41 1082.21 1588.8 1084.72 C 1550.84 1084.56 1510.57 1084.07 1472.72 1084.92 L 1469.86 1084.61 C 1434.06 1085.78 1390.39 1084.64 1353.81 1084.79 L 1353.33 1080 C 1385.88 1079.95 1434.71 1078.49 1466.64 1080.05 L 1472.25 1079.76 C 1471.8 1075.04 1472.01 1069.32 1472.07 1064.49 C 1472.53 1032.65 1471.44 1000.55 1472.29 968.75 z" fill="rgb(254,255,254)" transform="translate(0,0)"></path>
<path d="M 1466.64 1080.05 L 1472.25 1079.76 C 1510.97 1080.03 1549.69 1080.09 1588.42 1079.92 C 1589.31 1082.38 1589.41 1082.21 1588.8 1084.72 C 1550.84 1084.56 1510.57 1084.07 1472.72 1084.92 L 1469.86 1084.61 C 1434.06 1085.78 1390.39 1084.64 1353.81 1084.79 L 1353.33 1080 C 1385.88 1079.95 1434.71 1078.49 1466.64 1080.05 z" fill="rgb(57,19,69)" transform="translate(0,0)"></path>
<path d="M 1353.81 1084.79 C 1390.39 1084.64 1434.06 1085.78 1469.86 1084.61 L 1469.75 1086.06 C 1468.7 1097.9 1469.13 1115.11 1469.12 1127.49 L 1469.08 1198.26 C 1423.88 1194.06 1383.95 1171.67 1363.79 1129.58 C 1356.54 1114.44 1354.91 1101.3 1353.81 1084.79 z" fill="rgb(254,255,254)" transform="translate(0,0)"></path>
<path d="M 1472.72 1084.92 C 1510.57 1084.07 1550.84 1084.56 1588.8 1084.72 C 1585.18 1104.87 1583.3 1119.48 1572.76 1137.33 C 1549.73 1176.35 1517.21 1194.01 1472.99 1197.98 C 1472.41 1160.29 1472.32 1122.61 1472.72 1084.92 z" fill="rgb(254,255,254)" transform="translate(0,0)"></path>
<path d="M 1469.26 968.091 C 1470.31 973.389 1470.32 1013.06 1470.05 1020.36 C 1469.51 1034.7 1471.26 1065.27 1469.89 1078.35 C 1468.1 1079.57 1468.65 1079.37 1466.64 1080.05 C 1434.71 1078.49 1385.88 1079.95 1353.33 1080 C 1360.9 1015.63 1404.18 972.432 1469.26 968.091 z" fill="rgb(254,255,254)" transform="translate(0,0)"></path>
<path d="M 1469.86 1084.61 L 1472.72 1084.92 C 1472.32 1122.61 1472.41 1160.29 1472.99 1197.98 C 1472.98 1223.34 1474.17 1416.09 1471.45 1421.96 C 1469.94 1410.2 1470.41 1392.28 1470.41 1379.93 L 1470.32 1315.53 L 1469.75 1086.06 L 1469.86 1084.61 z" fill="rgb(163,48,46)" transform="translate(0,0)"></path>
<path d="M 1321.17 976.017 C 1321.45 971.316 1321.4 966.604 1322.96 962.224 C 1324.9 970.29 1323.63 989.397 1324.19 998.508 C 1322.95 1059.83 1324.75 1122.77 1323.83 1184.18 C 1323.65 1196.11 1324.7 1248.99 1323.07 1258.15 L 1322.03 1258.6 C 1319.18 1252.48 1321.12 1007.96 1321.17 976.017 z" fill="rgb(163,48,46)" transform="translate(0,0)"></path>
<path d="M 1619.18 1033.51 C 1620.07 1022.13 1618.61 976.342 1621.31 971.061 C 1622.59 979.08 1621.89 989.25 1622.12 997.495 C 1622.65 1016.69 1621.25 1038.14 1622.18 1057.13 L 1621.74 1183.12 C 1621.73 1190.45 1622.23 1230.4 1620.96 1234.5 L 1619.85 1234.21 C 1617.03 1226.75 1619.23 1057.97 1619.18 1033.51 z" fill="rgb(163,48,46)" transform="translate(0,0)"></path>
<path d="M 1470 968.182 C 1469.01 950.752 1469.68 930.118 1469.57 912.489 C 1469.51 903.78 1469.29 881.134 1470.41 873.45 L 1471.71 873.852 C 1472.54 904.623 1470.99 938.094 1472.32 968.155 L 1470 968.182 z" fill="rgb(163,48,46)" transform="translate(0,0)"></path>
<path d="M 1172.72 1546.23 L 1174.2 1547.25 C 1176.43 1551.22 1175.77 1772.73 1175.48 1795.75 L 1173.47 1795.65 C 1171.72 1793.13 1171.81 1790.97 1171.84 1787.6 C 1172.26 1736.89 1172.15 1686.03 1172.18 1635.33 L 1172.14 1580.41 C 1172.12 1570.23 1171.66 1556.03 1172.72 1546.23 z" fill="rgb(191,63,58)" transform="translate(0,0)"></path>
<path d="M 1470.81 1613.29 C 1472.01 1614.16 1471.94 1614.32 1472.87 1615.54 C 1473.8 1628.52 1473.27 1646.85 1473.27 1660.17 L 1473.34 1737.29 L 1473.42 1790.01 C 1473.43 1798.4 1473.95 1812.56 1472.73 1820.42 L 1470.93 1819.01 C 1469.77 1813.9 1470.06 1765.54 1470.18 1757.91 C 1470.9 1710.34 1469.21 1660.67 1470.81 1613.29 z" fill="rgb(191,63,58)" transform="translate(0,0)"></path>
<path d="M 1321.14 1433.35 C 1322.08 1433.94 1321.67 1433.61 1322.58 1434.57 C 1325.06 1437.21 1324.03 1584.93 1323.54 1600.87 C 1322.08 1600.68 1322.9 1600.89 1321.16 1599.99 C 1319.67 1579.07 1320.68 1543 1320.73 1520.5 C 1320.78 1495.13 1319.48 1457.86 1321.14 1433.35 z" fill="rgb(191,63,58)" transform="translate(0,0)"></path>
<path d="M 1618.87 1630.57 C 1619.04 1630.74 1619.23 1630.88 1619.38 1631.07 C 1619.4 1631.1 1620.52 1632.91 1620.55 1633 C 1621.96 1637.73 1621.85 1787.29 1620.45 1801.58 L 1618.83 1799.96 C 1617.67 1793.04 1618.1 1777.6 1618.09 1770.02 L 1618.03 1718.25 L 1617.99 1662.48 C 1617.99 1654.78 1617.41 1637.2 1618.87 1630.57 z" fill="rgb(191,63,58)" transform="translate(0,0)"></path>
<path d="M 1321 1694.57 L 1322.76 1696.52 C 1324 1711.21 1324.8 1819.6 1322.14 1830.44 L 1320.46 1828.43 C 1318.6 1808.11 1321.05 1774.21 1320.13 1752.68 C 1319.78 1744.52 1319.95 1699.8 1321 1694.57 z" fill="rgb(163,48,46)" transform="translate(0,0)"></path>
<path d="M 1173.23 1344.67 C 1178.44 1348.74 1174.75 1429.47 1175.98 1441.44 C 1176.32 1444.76 1175.98 1453.05 1174.74 1456.21 L 1173.75 1455.12 C 1172.52 1450.3 1171.91 1349.9 1173.23 1344.67 z" fill="rgb(191,63,58)" transform="translate(0,0)"></path>
<path d="M 1751 1242.37 C 1755.84 1245.5 1753.9 1293.94 1753.58 1302.41 L 1752.04 1301.8 C 1749.76 1297.17 1750.59 1250.35 1751 1242.37 z" fill="rgb(191,63,58)" transform="translate(0,0)"></path>
<path d="M 1751.41 1368.43 L 1753.22 1369.3 C 1755.14 1373.96 1754 1416.68 1753.9 1424.73 L 1752.12 1423.92 C 1750.03 1420.23 1751 1375.26 1751.41 1368.43 z" fill="rgb(191,63,58)" transform="translate(0,0)"></path>
<path d="M 1470.96 1481.4 L 1472.23 1482.3 C 1474.64 1486.39 1473.64 1513.27 1472.52 1518.86 C 1468.44 1514.77 1470.06 1488.06 1470.96 1481.4 z" fill="rgb(191,63,58)" transform="translate(0,0)"></path>
<path d="M 1619.14 1320.41 C 1623.17 1323.35 1621.63 1349.37 1620.04 1354.4 C 1616.49 1350.24 1618.42 1326.55 1619.14 1320.41 z" fill="rgb(191,63,58)" transform="translate(0,0)"></path>
<path d="M 1321.19 1345.67 C 1324.46 1349.62 1322.99 1372.42 1322.56 1378.67 C 1318.08 1374.53 1319.89 1351.7 1321.19 1345.67 z" fill="rgb(243,109,83)" transform="translate(0,0)"></path>
<path d="M 703.786 1078.76 C 710.756 1075.35 746.145 1078.44 753.017 1081.81 L 755.911 1081.9 C 771.519 1085.06 786.757 1092.48 801.017 1099.43 L 802.84 1100.34 L 804.751 1099.94 L 806.013 1104.94 L 805.763 1432.39 C 805.656 1487.47 806.369 1544.53 805.083 1599.46 C 809.889 1600.11 812.072 1600.08 816.975 1600.03 L 816.853 1601.23 C 815.925 1610.95 818.528 1626.35 814.912 1632.45 C 812.29 1633.83 811.309 1633.57 808.32 1633.65 C 813.822 1662.44 815.716 1689.78 820.481 1716.82 C 840.556 1716.56 868.24 1720.93 888.018 1725.31 C 893.986 1716.67 899.9 1705.68 906.408 1697.42 C 929.993 1667.5 988.588 1633.21 1026.07 1628.89 C 1028.79 1628.88 1029.09 1628.7 1031.82 1628.21 C 1059.21 1622.97 1089.75 1625.26 1116.94 1630.57 C 1119.5 1635.27 1117.56 1830.02 1117.26 1850.82 L 1185.12 1850.78 C 1192.01 1850.78 1215.23 1850.42 1220.55 1851.71 L 1749.08 1852.06 C 1749.15 1834.22 1749.13 1816.38 1749.01 1798.54 C 1741.07 1795.31 1729.31 1789.55 1721.47 1787.51 C 1707.56 1787.94 1682.77 1773.33 1676.49 1760.83 C 1658.4 1724.78 1695.63 1703.14 1721.99 1688.96 C 1679.09 1670.45 1642.06 1646.09 1628.79 1598.24 C 1610.22 1531.28 1650.15 1459.62 1718.18 1442.61 C 1756.89 1432.93 1784.99 1438.31 1819.51 1457.62 C 1819.01 1442.72 1817.3 1320.43 1819.73 1316.28 C 1819.87 1329.09 1819.94 1341.91 1819.93 1354.72 C 1868.27 1386.05 1899.57 1420.3 1912.74 1479.09 C 1932.66 1568.02 1894.27 1660.53 1856.39 1739.37 C 1844.19 1764.77 1823.7 1796.68 1815.6 1823.1 C 1814.57 1826.5 1814.48 1847.16 1814.44 1851.99 C 1822.33 1852.25 1836.75 1851.85 1843.47 1852.67 C 1852.52 1853.73 1857.57 1860.93 1858.23 1869.57 C 1859.21 1882.55 1849.18 1886.26 1838.16 1886.08 C 1809.06 1885.61 1780.01 1885.78 1750.93 1885.76 L 1513.58 1885.16 L 890.793 1885.24 L 358.335 1885.55 L 194.074 1885.38 C 164.151 1885.35 130.789 1886.01 101.096 1884.94 C 87.2396 1874.24 86.7934 1855.31 102.736 1853.73 C 128.717 1851.15 160.443 1854 186.527 1852.52 C 206.429 1851.56 230.025 1852.01 250.259 1851.93 L 353.166 1851.66 C 362.89 1851.69 409.122 1852.69 414.896 1851.13 C 408.923 1851.47 401.626 1851.34 395.539 1851.39 C 397.041 1834.85 400.124 1820.89 403.693 1804.78 C 404.982 1800.8 405.93 1793.14 406.611 1788.74 C 411.498 1758.99 415.618 1728.31 420.433 1698.45 C 422.573 1685.18 430.561 1645.35 430.936 1634.93 C 429.247 1634.51 429.706 1634.53 428.197 1633.33 C 426.175 1627.03 426.854 1608.67 426.942 1601.08 C 431.683 1600.63 432.389 1600.54 437.039 1601.17 L 440.333 1600.22 L 440.154 1124.45 C 440.955 1117.49 440.892 1108.41 441.035 1101.22 C 456.286 1094.15 471.222 1088.55 487.866 1085.72 C 490.071 1085.31 489.435 1084.97 490.848 1085.72 C 494.272 1082.28 530.641 1078.39 535.292 1081.33 C 540.332 1079.34 560.38 1079.99 566.857 1080.01 C 585.42 1098.6 645.075 1098.65 665.184 1079.49 C 673.16 1080.18 679.661 1079.96 687.687 1079.78 C 691.968 1079.34 700.693 1079.2 703.786 1078.76 z" fill="rgb(76,24,91)" transform="translate(0,0)"></path>
<path d="M 665.184 1079.49 C 673.16 1080.18 679.661 1079.96 687.687 1079.78 C 692.344 1079.57 694.943 1079.4 699.536 1079.83 L 700.691 1081 L 700.005 1083.2 C 683.645 1097.62 667.541 1113.6 651.534 1128.53 C 646.774 1132.97 629.986 1148.61 626.801 1153.1 L 623.146 1155.89 C 624.057 1193.64 623.237 1232.29 623.178 1270.08 L 623.07 1473.4 L 622.977 1553.9 C 622.966 1563.65 622.45 1588.19 623.573 1596.64 L 625.247 1596.49 L 626.387 1594.33 C 631.022 1599.95 649.085 1591.06 658.805 1599.86 C 659.052 1610.52 659.49 1623.62 658.713 1634.15 C 651.21 1641.63 642.925 1636.68 632.575 1638.75 L 628.628 1638.46 C 629.476 1670.49 636.284 1703.27 639.344 1735.21 C 641.464 1757.36 648.925 1783.3 632.392 1801.99 C 614.728 1821.97 604.306 1810.27 587.347 1811 L 586.15 1812.89 C 588.111 1818.06 600.981 1819.68 606.166 1820.36 L 606.671 1851.54 L 479.909 1851.89 C 467.268 1851.89 428.25 1852.81 417.343 1851.5 L 415.863 1851.1 L 414.896 1851.13 C 408.923 1851.47 401.626 1851.34 395.539 1851.39 C 397.041 1834.85 400.124 1820.89 403.693 1804.78 C 404.982 1800.8 405.93 1793.14 406.611 1788.74 C 411.498 1758.99 415.618 1728.31 420.433 1698.45 C 422.573 1685.18 430.561 1645.35 430.936 1634.93 C 429.247 1634.51 429.706 1634.53 428.197 1633.33 C 426.175 1627.03 426.854 1608.67 426.942 1601.08 C 431.683 1600.63 432.389 1600.54 437.039 1601.17 L 440.333 1600.22 L 440.154 1124.45 C 440.955 1117.49 440.892 1108.41 441.035 1101.22 C 456.286 1094.15 471.222 1088.55 487.866 1085.72 C 490.071 1085.31 489.435 1084.97 490.848 1085.72 C 494.272 1082.28 530.641 1078.39 535.292 1081.33 C 540.332 1079.34 560.38 1079.99 566.857 1080.01 C 585.42 1098.6 645.075 1098.65 665.184 1079.49 z" fill="rgb(254,255,254)" transform="translate(0,0)"></path>
<path d="M 665.184 1079.49 C 673.16 1080.18 679.661 1079.96 687.687 1079.78 C 692.344 1079.57 694.943 1079.4 699.536 1079.83 L 700.691 1081 L 700.005 1083.2 C 683.645 1097.62 667.541 1113.6 651.534 1128.53 C 646.774 1132.97 629.986 1148.61 626.801 1153.1 L 623.146 1155.89 C 624.057 1193.64 623.237 1232.29 623.178 1270.08 L 623.07 1473.4 L 622.977 1553.9 C 622.966 1563.65 622.45 1588.19 623.573 1596.64 C 614.926 1596.07 580.887 1593.99 575.832 1599.76 C 565.108 1600.57 551.757 1600.19 540.82 1600.16 C 539.614 1521.42 541.255 1438.92 541.055 1359.73 L 540.723 1156.51 C 540.721 1133.59 539.906 1108.61 540.242 1086.09 L 536.825 1083.88 L 535.292 1081.33 C 540.332 1079.34 560.38 1079.99 566.857 1080.01 C 585.42 1098.6 645.075 1098.65 665.184 1079.49 z" fill="rgb(254,255,254)" transform="translate(0,0)"></path>
<path d="M 665.184 1079.49 C 673.16 1080.18 679.661 1079.96 687.687 1079.78 C 692.344 1079.57 694.943 1079.4 699.536 1079.83 L 700.691 1081 L 700.005 1083.2 C 683.645 1097.62 667.541 1113.6 651.534 1128.53 C 646.774 1132.97 629.986 1148.61 626.801 1153.1 L 623.146 1155.89 C 596.767 1137.33 565.133 1107.76 540.242 1086.09 L 536.825 1083.88 L 535.292 1081.33 C 540.332 1079.34 560.38 1079.99 566.857 1080.01 C 585.42 1098.6 645.075 1098.65 665.184 1079.49 z" fill="rgb(57,19,69)" transform="translate(0,0)"></path>
<path d="M 430.936 1634.93 C 436.003 1633.78 445.259 1634.1 450.788 1634.1 C 451.462 1645.09 445.996 1666.7 443.978 1678.8 C 438.271 1714.85 432.246 1750.84 425.903 1786.78 C 423.491 1800.61 416.022 1838.99 415.863 1851.1 L 414.896 1851.13 C 408.923 1851.47 401.626 1851.34 395.539 1851.39 C 397.041 1834.85 400.124 1820.89 403.693 1804.78 C 404.982 1800.8 405.93 1793.14 406.611 1788.74 C 411.498 1758.99 415.618 1728.31 420.433 1698.45 C 422.573 1685.18 430.561 1645.35 430.936 1634.93 z" fill="rgb(254,255,254)" transform="translate(0,0)"></path>
<path d="M 626.387 1594.33 C 631.022 1599.95 649.085 1591.06 658.805 1599.86 C 659.052 1610.52 659.49 1623.62 658.713 1634.15 C 651.21 1641.63 642.925 1636.68 632.575 1638.75 L 628.628 1638.46 C 616.32 1636.86 598.628 1638.88 586.165 1637.84 C 574.712 1636.88 575.037 1634.58 561.868 1634.74 C 566.191 1634.42 571.947 1634.49 576.392 1634.41 C 576.152 1622.86 576.559 1611.31 575.832 1599.76 C 580.887 1593.99 614.926 1596.07 623.573 1596.64 L 625.247 1596.49 L 626.387 1594.33 z" fill="rgb(243,109,83)" transform="translate(0,0)"></path>
<path d="M 537.08 1600.46 L 540.82 1600.16 C 551.757 1600.19 565.108 1600.57 575.832 1599.76 C 576.559 1611.31 576.152 1622.86 576.392 1634.41 C 571.947 1634.49 566.191 1634.42 561.868 1634.74 L 509.036 1634.75 L 509.128 1600.47 C 518.445 1600.37 527.763 1600.37 537.08 1600.46 z" fill="rgb(57,19,69)" transform="translate(0,0)"></path>
<path d="M 487.866 1085.72 C 490.071 1085.31 489.435 1084.97 490.848 1085.72 L 490.765 1383.51 C 490.918 1435.62 490.803 1487.73 490.421 1539.84 C 490.325 1549.46 491.217 1593.03 488.498 1598.13 C 486.878 1596.12 486.912 1593.32 486.919 1590.5 C 487.031 1541.51 487.049 1492.42 486.99 1443.44 L 487.866 1085.72 z" fill="rgb(191,63,58)" transform="translate(0,0)"></path>
<path d="M 440.333 1600.22 C 449.353 1601.28 468.727 1600.89 478.495 1600.97 C 478.921 1611.99 479.087 1623.32 479.613 1634.28 C 471.515 1634.3 461.855 1634.06 453.888 1634.41 L 450.788 1634.1 C 445.259 1634.1 436.003 1633.78 430.936 1634.93 C 429.247 1634.51 429.706 1634.53 428.197 1633.33 C 426.175 1627.03 426.854 1608.67 426.942 1601.08 C 431.683 1600.63 432.389 1600.54 437.039 1601.17 L 440.333 1600.22 z" fill="rgb(57,19,69)" transform="translate(0,0)"></path>
<path d="M 536.825 1083.88 L 540.242 1086.09 C 539.906 1108.61 540.721 1133.59 540.723 1156.51 L 541.055 1359.73 C 541.255 1438.92 539.614 1521.42 540.82 1600.16 L 537.08 1600.46 L 537.755 1253.88 C 537.718 1198.12 538.645 1139.34 536.825 1083.88 z" fill="rgb(191,63,58)" transform="translate(0,0)"></path>
<path d="M 450.788 1634.1 L 453.888 1634.41 C 452.029 1654.01 444.983 1685.61 441.616 1707.07 C 436.732 1737.91 431.632 1768.72 426.315 1799.48 C 423.723 1814.87 420.741 1836.65 417.343 1851.5 L 415.863 1851.1 C 416.022 1838.99 423.491 1800.61 425.903 1786.78 C 432.246 1750.84 438.271 1714.85 443.978 1678.8 C 445.996 1666.7 451.462 1645.09 450.788 1634.1 z" fill="rgb(136,46,56)" transform="translate(0,0)"></path>
<path d="M 703.786 1078.76 C 710.756 1075.35 746.145 1078.44 753.017 1081.81 L 755.911 1081.9 C 771.519 1085.06 786.757 1092.48 801.017 1099.43 L 802.84 1100.34 L 804.751 1099.94 L 806.013 1104.94 L 805.763 1432.39 C 805.656 1487.47 806.369 1544.53 805.083 1599.46 C 809.889 1600.11 812.072 1600.08 816.975 1600.03 L 816.853 1601.23 C 815.925 1610.95 818.528 1626.35 814.912 1632.45 C 812.29 1633.83 811.309 1633.57 808.32 1633.65 C 802.553 1633.89 796.127 1633.82 790.301 1633.89 L 787.004 1633.97 C 788.353 1651.14 791.012 1670.09 793.981 1687.14 C 803.449 1741.53 807.024 1797.45 817.676 1851.52 C 750.486 1852.94 678.971 1851.72 611.445 1851.57 L 611.733 1819.7 C 660.901 1802.95 647.15 1759.58 642.181 1718.98 L 632.575 1638.75 C 642.925 1636.68 651.21 1641.63 658.713 1634.15 C 659.49 1623.62 659.052 1610.52 658.805 1599.86 C 649.085 1591.06 631.022 1599.95 626.387 1594.33 L 625.247 1596.49 L 623.573 1596.64 C 622.45 1588.19 622.966 1563.65 622.977 1553.9 L 623.07 1473.4 L 623.178 1270.08 C 623.237 1232.29 624.057 1193.64 623.146 1155.89 L 626.801 1153.1 C 629.986 1148.61 646.774 1132.97 651.534 1128.53 C 667.541 1113.6 683.645 1097.62 700.005 1083.2 L 700.691 1081 L 699.536 1079.83 C 694.943 1079.4 692.344 1079.57 687.687 1079.78 C 691.968 1079.34 700.693 1079.2 703.786 1078.76 z" fill="rgb(254,255,254)" transform="translate(0,0)"></path>
<path d="M 700.005 1083.2 C 702.41 1091.47 700.919 1153.53 700.905 1166.68 L 700.475 1411.02 L 700.817 1538.65 C 700.856 1554.89 701.774 1584.7 700.782 1599.58 C 687.279 1600.04 672.414 1599.81 658.805 1599.86 C 649.085 1591.06 631.022 1599.95 626.387 1594.33 L 625.247 1596.49 L 623.573 1596.64 C 622.45 1588.19 622.966 1563.65 622.977 1553.9 L 623.07 1473.4 L 623.178 1270.08 C 623.237 1232.29 624.057 1193.64 623.146 1155.89 L 626.801 1153.1 C 629.986 1148.61 646.774 1132.97 651.534 1128.53 C 667.541 1113.6 683.645 1097.62 700.005 1083.2 z" fill="rgb(254,255,254)" transform="translate(0,0)"></path>
<path d="M 623.146 1155.89 L 626.801 1153.1 C 626.124 1252.11 625.954 1351.13 626.289 1450.14 L 626.136 1542.39 C 626.112 1557.66 625.52 1579.49 626.387 1594.33 L 625.247 1596.49 L 623.573 1596.64 C 622.45 1588.19 622.966 1563.65 622.977 1553.9 L 623.07 1473.4 L 623.178 1270.08 C 623.237 1232.29 624.057 1193.64 623.146 1155.89 z" fill="rgb(191,63,58)" transform="translate(0,0)"></path>
<path d="M 700.782 1599.58 L 703.999 1599.68 C 713.468 1599.94 722.941 1600.03 732.413 1599.94 C 732.356 1610.75 732.601 1624.13 731.985 1634.68 C 715.326 1634.72 673.626 1635.83 658.713 1634.15 C 659.49 1623.62 659.052 1610.52 658.805 1599.86 C 672.414 1599.81 687.279 1600.04 700.782 1599.58 z" fill="rgb(57,19,69)" transform="translate(0,0)"></path>
<path d="M 805.083 1599.46 C 809.889 1600.11 812.072 1600.08 816.975 1600.03 L 816.853 1601.23 C 815.925 1610.95 818.528 1626.35 814.912 1632.45 C 812.29 1633.83 811.309 1633.57 808.32 1633.65 C 802.553 1633.89 796.127 1633.82 790.301 1633.89 L 787.004 1633.97 C 779.109 1634.37 769.575 1634.18 761.55 1634.22 C 761.764 1622.94 761.628 1611.19 761.647 1599.86 C 774.36 1599.93 789.798 1600.37 802.256 1599.5 L 805.083 1599.46 z" fill="rgb(57,19,69)" transform="translate(0,0)"></path>
<path d="M 687.687 1079.78 C 691.968 1079.34 700.693 1079.2 703.786 1078.76 L 703.85 1445.03 L 703.879 1547.69 C 703.888 1563.83 703.362 1583.77 703.999 1599.68 L 700.782 1599.58 C 701.774 1584.7 700.856 1554.89 700.817 1538.65 L 700.475 1411.02 L 700.905 1166.68 C 700.919 1153.53 702.41 1091.47 700.005 1083.2 L 700.691 1081 L 699.536 1079.83 C 694.943 1079.4 692.344 1079.57 687.687 1079.78 z" fill="rgb(243,109,83)" transform="translate(0,0)"></path>
<path d="M 802.84 1100.34 L 804.751 1099.94 L 806.013 1104.94 L 805.763 1432.39 C 805.656 1487.47 806.369 1544.53 805.083 1599.46 L 802.256 1599.5 L 802.84 1100.34 z" fill="rgb(191,63,58)" transform="translate(0,0)"></path>
<path d="M 753.017 1081.81 L 755.911 1081.9 C 755.214 1126.08 755.914 1172.26 755.958 1216.54 L 755.83 1455.15 L 755.86 1549.04 C 755.877 1560.49 756.586 1588.87 755.171 1598.93 C 753.545 1595.89 752.833 1590.11 752.779 1586.59 C 752.293 1501.4 752.368 1416.21 753.004 1331.03 C 753.069 1248.7 751.714 1163.9 753.017 1081.81 z" fill="rgb(191,63,58)" transform="translate(0,0)"></path>
<path d="M 1819.51 1457.62 C 1819.01 1442.72 1817.3 1320.43 1819.73 1316.28 C 1819.87 1329.09 1819.94 1341.91 1819.93 1354.72 C 1868.27 1386.05 1899.57 1420.3 1912.74 1479.09 C 1932.66 1568.02 1894.27 1660.53 1856.39 1739.37 C 1844.19 1764.77 1823.7 1796.68 1815.6 1823.1 C 1814.57 1826.5 1814.48 1847.16 1814.44 1851.99 C 1822.33 1852.25 1836.75 1851.85 1843.47 1852.67 C 1821.41 1853.3 1795.5 1852.82 1773.31 1852.34 C 1772.64 1785.39 1771.9 1713.85 1773 1647.04 C 1788.42 1641.06 1810.62 1637.87 1819.91 1623.74 C 1824.58 1616.63 1830.77 1600.11 1821.5 1594.32 C 1819.11 1594.39 1814.8 1596 1814.49 1597.01 C 1810.4 1610.24 1813.21 1612.15 1803.35 1622.62 C 1793.8 1625.75 1783.06 1627.65 1773.15 1629.67 L 1773.13 1524.94 C 1779.86 1520.08 1798.36 1507.91 1792.18 1497.88 C 1783.92 1494.68 1774.57 1502.47 1768.28 1507.01 C 1741.13 1495.73 1749 1529.08 1749.1 1546.86 C 1740.71 1543.23 1715.89 1530.07 1708.14 1535.41 C 1706.48 1538.49 1706.83 1539.31 1707.16 1542.77 C 1710.4 1549.93 1737.8 1558.85 1747.42 1564.38 L 1748.77 1565.16 C 1749.42 1637.07 1749.55 1708.97 1749.18 1780.88 C 1740.82 1778.47 1726.86 1769.94 1719.13 1773.45 C 1714.96 1779.54 1716.87 1782.85 1721.47 1787.51 C 1707.56 1787.94 1682.77 1773.33 1676.49 1760.83 C 1658.4 1724.78 1695.63 1703.14 1721.99 1688.96 C 1679.09 1670.45 1642.06 1646.09 1628.79 1598.24 C 1610.22 1531.28 1650.15 1459.62 1718.18 1442.61 C 1756.89 1432.93 1784.99 1438.31 1819.51 1457.62 z" fill="rgb(254,122,92)" transform="translate(0,0)"></path>
<path d="M 1819.51 1457.62 C 1819.01 1442.72 1817.3 1320.43 1819.73 1316.28 C 1819.87 1329.09 1819.94 1341.91 1819.93 1354.72 C 1868.27 1386.05 1899.57 1420.3 1912.74 1479.09 C 1932.66 1568.02 1894.27 1660.53 1856.39 1739.37 C 1844.19 1764.77 1823.7 1796.68 1815.6 1823.1 C 1814.57 1826.5 1814.48 1847.16 1814.44 1851.99 C 1810.08 1851.64 1802.35 1851.81 1797.74 1851.79 C 1797.6 1824.14 1793.67 1704.17 1807.41 1686.6 C 1812.63 1679.91 1820.84 1675.13 1827.54 1669.97 C 1839.46 1660.79 1850.29 1648.03 1858.12 1635.22 C 1876.41 1605.31 1881.58 1567.93 1873.41 1534 C 1864.93 1498.76 1850.33 1476.5 1819.51 1457.62 z" fill="rgb(254,206,129)" transform="translate(0,0)"></path>
<path d="M 1031.82 1628.21 C 1059.21 1622.97 1089.75 1625.26 1116.94 1630.57 C 1119.5 1635.27 1117.56 1830.02 1117.26 1850.82 L 1185.12 1850.78 C 1192.01 1850.78 1215.23 1850.42 1220.55 1851.71 C 1181.3 1852.9 1136.98 1851.44 1097.55 1851.25 C 1010.71 1850.8 923.865 1850.86 837.025 1851.45 C 833.636 1813.61 827.262 1754.26 820.481 1716.82 C 840.556 1716.56 868.24 1720.93 888.018 1725.31 C 893.986 1716.67 899.9 1705.68 906.408 1697.42 C 929.993 1667.5 988.588 1633.21 1026.07 1628.89 C 1028.79 1628.88 1029.09 1628.7 1031.82 1628.21 z" fill="rgb(243,109,83)" transform="translate(0,0)"></path>
<path d="M 790.301 1633.89 C 796.127 1633.82 802.553 1633.89 808.32 1633.65 C 813.822 1662.44 815.716 1689.78 820.481 1716.82 C 827.262 1754.26 833.636 1813.61 837.025 1851.45 C 831.244 1851.67 826.059 1852.07 820.308 1851.19 C 814.57 1826.48 809.26 1778.16 806.02 1751.61 C 801.613 1715.48 792.921 1669.26 790.301 1633.89 z" fill="rgb(254,255,254)" transform="translate(0,0)"></path>
<path d="M 436.874 1104.21 L 439.392 1103.83 C 440.827 1107.8 439.693 1119.06 440.154 1124.45 L 440.333 1600.22 L 437.039 1601.17 C 432.389 1600.54 431.683 1600.63 426.942 1601.08 L 426.309 1601.2 C 422.68 1605.42 370.964 1617.48 362.724 1618.76 C 364.913 1568.43 370.255 1520.27 380.688 1470.9 C 385.453 1448.34 392.371 1426.36 399.116 1404.36 L 390.379 1401.11 L 388.043 1400 C 378.827 1397.52 357.97 1387.14 348.742 1382.79 L 345.717 1381.08 C 335.799 1377.32 309.921 1363.75 302.608 1362.11 L 300.502 1360.51 C 304.82 1305.18 323.699 1244.65 348.641 1195.11 C 359.063 1174.4 374.22 1151.6 386.947 1132.11 L 389.896 1129.93 C 400.173 1122.99 409.056 1118.4 419.969 1112.69 L 425.808 1109.65 C 429.517 1107.63 432.893 1105.61 436.874 1104.21 z" fill="rgb(254,255,254)" transform="translate(0,0)"></path>
<path d="M 415.834 1356.98 C 417.224 1380.61 416.82 1594.46 419.819 1600.31 C 422.744 1601.4 423.232 1601.2 426.309 1601.2 C 422.68 1605.42 370.964 1617.48 362.724 1618.76 C 364.913 1568.43 370.255 1520.27 380.688 1470.9 C 385.453 1448.34 392.371 1426.36 399.116 1404.36 C 404.692 1388.63 409.512 1372.35 415.834 1356.98 z" fill="rgb(254,158,106)" transform="translate(0,0)"></path>
<path d="M 436.874 1104.21 L 439.392 1103.83 C 440.827 1107.8 439.693 1119.06 440.154 1124.45 L 440.333 1600.22 L 437.039 1601.17 C 435.851 1589.62 436.752 1560.23 436.8 1547.19 L 436.94 1440.06 C 436.286 1363.89 436.098 1287.72 436.379 1211.54 C 436.434 1176.29 435.984 1139.34 436.874 1104.21 z" fill="rgb(243,109,83)" transform="translate(0,0)"></path>
<path d="M 386.947 1132.11 L 389.896 1129.93 C 387.224 1137.4 376.462 1153.37 371.808 1160.58 C 340.539 1209.02 320.54 1263.2 309.068 1319.54 C 306.395 1332.66 305.952 1349.78 302.608 1362.11 L 300.502 1360.51 C 304.82 1305.18 323.699 1244.65 348.641 1195.11 C 359.063 1174.4 374.22 1151.6 386.947 1132.11 z" fill="rgb(191,63,58)" transform="translate(0,0)"></path>
<path d="M 345.717 1381.08 C 353.266 1328.71 361.817 1290 383.722 1241.1 C 385.87 1236.31 392.103 1220.1 394.91 1217.05 L 395.689 1217.8 C 392.877 1227.2 382.716 1250.26 378.386 1261.32 C 362.99 1300.68 352.092 1340.46 348.742 1382.79 L 345.717 1381.08 z" fill="rgb(191,63,58)" transform="translate(0,0)"></path>
<path d="M 410.009 1326.21 C 407.955 1343.85 395.035 1381.88 390.379 1401.11 L 388.043 1400 C 393.226 1381.21 402.711 1342.49 410.009 1326.21 z" fill="rgb(136,46,56)" transform="translate(0,0)"></path>
<path d="M 214.999 741.539 C 217.479 704.502 225.706 675.164 258.493 653.515 C 279.247 640.078 304.461 635.363 328.668 640.392 C 359.967 647.159 376.669 667.982 392.966 693.076 C 403.708 684.725 407.287 682.131 420.5 679.101 C 467.149 676.047 483.612 700.418 483.143 743.207 C 502.463 743.17 520.519 747.946 534.565 762.107 C 535.828 763.388 537.056 764.703 538.248 766.05 L 538.783 766.02 C 541.918 771.578 543.997 775.137 546.387 781.064 L 547.05 783.42 C 544.18 785.487 429.783 785.36 416.987 784.62 C 388.529 783.129 124.898 785.916 121.128 783.42 C 119.809 780.697 120.204 777.531 121.224 774.775 C 137.139 731.786 178.856 729.698 214.999 741.539 z" fill="rgb(57,19,69)" transform="translate(0,0)"></path>
<path d="M 219.214 748.106 C 218.716 727.959 221.247 708.179 230.285 690.596 C 259.585 633.594 339.411 625.661 377.631 677.919 C 382.833 685.032 388.489 691.969 391.905 700.192 C 418.456 672.036 465.25 675.487 477.969 715.511 C 480.819 724.479 479.982 736.461 480.158 746.006 C 501.711 745.889 518.055 748.192 534.405 764.099 C 535.322 764.999 536.207 765.931 537.059 766.893 C 540.679 772.209 541.729 775.337 544.069 781.205 L 245.001 780.858 C 227.36 780.83 134.024 782.482 125.731 779.563 C 124.792 776.796 125.337 774.045 126.722 771.451 C 147.398 732.739 185.268 734.667 219.214 748.106 z" fill="rgb(254,255,254)" transform="translate(0,0)"></path>
<path d="M 806.013 1104.94 C 827.931 1111.5 866.702 1142.09 884.607 1157.88 C 890.892 1163.42 898.368 1172.8 904.463 1178.86 C 905.913 1181.36 906.752 1182.94 908.488 1185.28 C 914.51 1192.34 918.711 1197.15 923.512 1205.12 L 927.016 1209.34 C 933.26 1227.59 983.423 1319.29 981.036 1330.25 C 975.789 1332.57 957.135 1341.91 953.04 1340.75 L 951.101 1341.8 C 948.572 1345.82 917.358 1357.66 910.778 1360.58 L 907.678 1361.16 C 902.893 1364.13 871.739 1378.69 867.396 1378.88 L 865.921 1380.69 C 855.892 1385.76 846.793 1390.28 836.501 1394.83 C 832.443 1371.14 829.834 1352.32 820.511 1329.92 C 819.093 1355.85 822.05 1591.8 816.975 1600.03 C 812.072 1600.08 809.889 1600.11 805.083 1599.46 C 806.369 1544.53 805.656 1487.47 805.763 1432.39 L 806.013 1104.94 z" fill="rgb(254,255,254)" transform="translate(0,0)"></path>
<path d="M 951.101 1341.8 C 932.323 1297.41 912.085 1247.25 887.793 1205.8 C 881.938 1195.71 875.833 1185.76 869.484 1175.97 C 865.041 1169.19 844.546 1142.04 843.558 1137.72 C 851.806 1145.44 857.791 1154.67 864.312 1163.78 C 893.187 1204.1 913.285 1245.48 932.395 1291.01 C 939.222 1307.27 947.426 1323.87 953.04 1340.75 L 951.101 1341.8 z" fill="rgb(76,24,91)" transform="translate(0,0)"></path>
<path d="M 840.106 1201.03 C 850.693 1214.26 865.911 1252.73 873.01 1269.48 C 885.942 1299.7 898.532 1330.07 910.778 1360.58 L 907.678 1361.16 C 894.833 1324.46 874.975 1283.04 860.385 1246.53 C 854.371 1231.49 845.852 1216.61 840.106 1201.03 z" fill="rgb(76,24,91)" transform="translate(0,0)"></path>
<path d="M 923.512 1205.12 L 927.016 1209.34 C 925.583 1211.76 923.215 1214.34 921.363 1216.53 C 929.178 1230.4 934.73 1244.42 941.592 1258.73 C 944.605 1265.02 948.334 1267.8 951.656 1273.55 L 950.443 1274.44 C 939.218 1269.68 921.536 1227.22 917.137 1215.14 C 920.047 1211.35 921.192 1209.32 923.512 1205.12 z" fill="rgb(76,24,91)" transform="translate(0,0)"></path>
<path d="M 865.921 1380.69 C 858.507 1366.43 851.053 1349 844.265 1334.15 C 837.932 1320.29 829.539 1303.04 824.246 1289.01 L 824.906 1289.07 C 834.497 1302.65 843.06 1325.27 850.28 1340.88 C 855.699 1352.6 862.752 1367.24 867.396 1378.88 L 865.921 1380.69 z" fill="rgb(76,24,91)" transform="translate(0,0)"></path>
<path d="M 266.99 1345.22 C 278.186 1350.26 289.357 1355.36 300.502 1360.51 L 302.608 1362.11 C 309.921 1363.75 335.799 1377.32 345.717 1381.08 L 348.742 1382.79 C 357.97 1387.14 378.827 1397.52 388.043 1400 L 390.379 1401.11 L 399.116 1404.36 C 392.371 1426.36 385.453 1448.34 380.688 1470.9 C 370.255 1520.27 364.913 1568.43 362.724 1618.76 L 362.133 1635.14 C 354.453 1635.2 345.048 1635.02 337.543 1635.79 C 322.453 1635.2 301.19 1636.07 285.606 1636.21 C 282.429 1628.99 279.049 1604.83 277.509 1595.85 C 263.39 1513.55 262.791 1428.61 266.99 1345.22 z" fill="rgb(57,19,69)" transform="translate(0,0)"></path>
<path d="M 541.818 878.787 C 573.719 871.001 597.778 872.079 630.012 871.395 C 643.803 871.102 658.541 869.452 672.256 871.159 C 679.469 872.057 684.801 876.137 691.008 878.961 C 702.563 886.093 713.526 894.58 705.714 909.394 C 694.515 919.593 690.258 921.501 688.574 936.057 L 691.762 940.468 C 690.916 963.301 684.891 989.388 664.956 1003.48 C 665.014 1013.36 665.508 1027.44 665.018 1036.99 C 665.595 1049.57 665.656 1066.88 665.184 1079.49 C 645.075 1098.65 585.42 1098.6 566.857 1080.01 C 568.063 1074.57 567.564 1054.04 567.54 1047.37 C 567.51 1031.46 567.583 1015.56 567.76 999.65 C 553.244 983.125 541.475 963.928 540.715 941.565 C 542.792 935.11 544.971 928.624 546.725 922.078 L 545.021 921.389 C 541.989 917.32 544.201 915.218 543.205 912.506 C 541.367 907.497 535.187 911.399 528.037 905.46 C 523.529 891.429 528.529 883.327 541.818 878.787 z" fill="rgb(254,158,106)" transform="translate(0,0)"></path>
<path d="M 541.818 878.787 C 573.719 871.001 597.778 872.079 630.012 871.395 C 643.803 871.102 658.541 869.452 672.256 871.159 C 679.469 872.057 684.801 876.137 691.008 878.961 C 702.563 886.093 713.526 894.58 705.714 909.394 C 694.515 919.593 690.258 921.501 688.574 936.057 C 683.548 929.397 684.653 917.996 684.505 909.281 C 662.686 901.738 643.948 891.384 620.23 889.26 C 593.625 886.878 570.956 895.884 548.336 908.79 C 547.508 913.315 547.168 917.513 546.725 922.078 L 545.021 921.389 C 541.989 917.32 544.201 915.218 543.205 912.506 C 541.367 907.497 535.187 911.399 528.037 905.46 C 523.529 891.429 528.529 883.327 541.818 878.787 z" fill="rgb(57,19,69)" transform="translate(0,0)"></path>
<path d="M 595.327 1013.35 C 620.325 1019.15 642.845 1015.87 664.956 1003.48 C 665.014 1013.36 665.508 1027.44 665.018 1036.99 C 646.125 1041.33 627.441 1037.38 610.634 1028.04 C 606.197 1025.57 596.698 1018.43 595.327 1013.35 z" fill="rgb(57,19,69)" transform="translate(0,0)"></path>
<path d="M 635.822 972.073 C 637.962 972.403 637.048 971.896 638.459 973.77 C 632.294 984.541 608.893 982.357 598.475 980.383 L 597.874 979.915 C 596.694 977.011 596.589 978.373 597.61 975.721 C 600.721 975.294 605.39 975.87 608.544 976.295 C 619.954 977.833 625.517 976.157 635.822 972.073 z" fill="rgb(243,109,83)" transform="translate(0,0)"></path>
<path d="M 652.853 916.484 C 653.816 916.791 656.66 917.721 657.405 918.209 C 659.362 919.471 660.582 921.607 660.675 923.933 C 660.804 927.338 659.37 929.121 657.513 931.713 C 647.102 930.091 647.557 923.516 652.853 916.484 z" fill="rgb(57,19,69)" transform="translate(0,0)"></path>
<path d="M 578.666 918.524 C 580.815 917.678 583.254 918.087 585.009 919.587 C 586.764 921.088 587.547 923.434 587.044 925.688 C 586.541 927.941 584.835 929.733 582.609 930.346 C 579.412 931.226 576.084 929.45 575.035 926.304 C 573.985 923.157 575.581 919.74 578.666 918.524 z" fill="rgb(57,19,69)" transform="translate(0,0)"></path>
<path d="M 625.741 948.483 C 627.96 949.668 627.239 949.312 628.972 951.439 C 630.623 960.189 620.234 965.924 613.376 968.463 C 610.917 966.379 611.305 967.539 610.887 965.164 C 621.688 962.375 622.726 957.967 625.741 948.483 z" fill="rgb(191,63,58)" transform="translate(0,0)"></path>
<path d="M 286.586 1642.74 C 291.635 1677.73 304.924 1712.26 314.011 1746.11 C 326.134 1791.26 334.891 1814.41 364.515 1850.86 L 384.169 1850.82 C 377.878 1835.93 359.865 1793.37 362.889 1779.09 C 369.317 1771.94 390.526 1799.83 402.833 1803.68 L 403.693 1804.78 C 400.124 1820.89 397.041 1834.85 395.539 1851.39 C 401.626 1851.34 408.923 1851.47 414.896 1851.13 C 409.122 1852.69 362.89 1851.69 353.166 1851.66 L 250.259 1851.93 C 230.025 1852.01 206.429 1851.56 186.527 1852.52 C 173.105 1832.16 165.759 1814.66 166.517 1789.86 C 167.971 1742.31 192.052 1716.6 223.506 1685.95 C 226.557 1684.12 240.809 1672.75 244.343 1670.08 C 258.785 1659.15 270.52 1651.33 286.586 1642.74 z" fill="rgb(243,109,83)" transform="translate(0,0)"></path>
<path d="M 981.036 1330.25 C 993.733 1360.27 1006.04 1386.36 1010.26 1419.32 C 1016.06 1464.5 1003.2 1514.73 958.435 1534.88 C 941.664 1542.43 927.467 1539.79 910.388 1535.99 L 910.07 1642.15 C 910.056 1651.04 910.979 1680.15 909.4 1686.56 L 907.393 1687.83 L 905.611 1687.37 C 903.905 1683.69 904.792 1547.06 904.956 1533.31 C 901.357 1531.28 896.872 1528.86 893.593 1526.46 C 855.637 1498.62 843.893 1438.57 836.501 1394.83 C 846.793 1390.28 855.892 1385.76 865.921 1380.69 L 867.396 1378.88 C 871.739 1378.69 902.893 1364.13 907.678 1361.16 L 910.778 1360.58 C 917.358 1357.66 948.572 1345.82 951.101 1341.8 L 953.04 1340.75 C 957.135 1341.91 975.789 1332.57 981.036 1330.25 z" fill="rgb(57,19,69)" transform="translate(0,0)"></path>
<path d="M 541.87 877.174 C 541.581 855.702 537.882 820.108 554.353 804.802 C 566.674 793.352 598.479 780.036 615.405 778.743 C 627.706 777.803 669.735 796.144 678.652 807.108 C 696.152 826.527 692.634 853.41 692.063 877.666 L 691.008 878.961 C 684.801 876.137 679.469 872.057 672.256 871.159 C 658.541 869.452 643.803 871.102 630.012 871.395 C 597.778 872.079 573.719 871.001 541.818 878.787 L 541.87 877.174 z" fill="rgb(57,19,69)" transform="translate(0,0)"></path>
<path d="M 541.87 877.174 C 567.042 870.008 590.557 869.653 616.483 869.56 C 640.173 869.475 666.53 863.24 688.142 875.385 C 689.459 876.128 690.766 876.888 692.063 877.666 L 691.008 878.961 C 684.801 876.137 679.469 872.057 672.256 871.159 C 658.541 869.452 643.803 871.102 630.012 871.395 C 597.778 872.079 573.719 871.001 541.818 878.787 L 541.87 877.174 z" fill="rgb(125,80,123)" transform="translate(0,0)"></path>
<path d="M 607.029 817.165 C 614.608 816.563 623.363 815.771 626.989 824.049 C 628.764 828.101 628.362 835.01 623.25 836.371 C 612.361 836.319 597.575 840.441 601.077 822.342 C 601.575 819.766 604.887 818.466 607.029 817.165 z" fill="rgb(254,206,129)" transform="translate(0,0)"></path>
<path d="M 426.309 1601.2 L 426.942 1601.08 C 426.854 1608.67 426.175 1627.03 428.197 1633.33 C 429.706 1634.53 429.247 1634.51 430.936 1634.93 C 430.561 1645.35 422.573 1685.18 420.433 1698.45 C 415.618 1728.31 411.498 1758.99 406.611 1788.74 C 403.556 1787.73 400.34 1781.09 398.233 1777.7 C 387.446 1760.39 377.86 1751.49 361.676 1739.63 C 360.953 1709.53 360.603 1665.75 361.96 1635.95 C 353.622 1636.06 345.89 1636.15 337.543 1635.79 C 345.048 1635.02 354.453 1635.2 362.133 1635.14 L 362.724 1618.76 C 370.964 1617.48 422.68 1605.42 426.309 1601.2 z" fill="rgb(243,109,83)" transform="translate(0,0)"></path>
<path d="M 308.667 1207.8 C 309.727 1206.53 316.838 1197.18 317.428 1196.1 C 324.46 1183.32 373.693 1133.98 386.947 1132.11 C 374.22 1151.6 359.063 1174.4 348.641 1195.11 C 323.699 1244.65 304.82 1305.18 300.502 1360.51 C 289.357 1355.36 278.186 1350.26 266.99 1345.22 C 264.265 1344.25 265.327 1345.05 263.62 1342.84 C 263.084 1334.28 265.332 1325.09 266.802 1316.66 C 273.171 1280.16 284.553 1249.3 303.202 1217.2 C 305.628 1213.7 306.696 1211.61 308.667 1207.8 z" fill="rgb(254,255,254)" transform="translate(0,0)"></path>
<path d="M 182.331 1208.67 C 183.102 1203.36 184.741 1201.47 188.38 1197.79 C 191.076 1211.53 189.323 1260.7 189.528 1278.57 C 189.903 1311.39 188.83 1346.57 189.571 1379.73 C 189.655 1383.48 188.851 1387.66 187.587 1391.22 L 186.419 1392.35 C 184.897 1391.56 183.385 1390.78 183.269 1388.68 C 182.688 1378.14 183.006 1364.3 183.013 1353.95 L 183.03 1258.98 C 183.025 1246.57 183.701 1220.11 182.331 1208.67 z" fill="rgb(76,24,91)" transform="translate(0,0)"></path>
<path d="M 528.037 905.46 C 535.187 911.399 541.367 907.497 543.205 912.506 C 544.201 915.218 541.989 917.32 545.021 921.389 L 546.725 922.078 C 544.971 928.624 542.792 935.11 540.715 941.565 C 525.352 947.705 518.063 944.381 510.107 930.476 C 509.42 914.732 511.245 909.18 528.037 905.46 z" fill="rgb(254,122,92)" transform="translate(0,0)"></path>
<path d="M 705.714 909.394 C 711.759 912.682 716.781 914.981 718.833 922.096 C 721.641 931.836 716.165 941.987 705.926 943.724 C 700.823 944.589 696.26 942.591 691.762 940.468 L 688.574 936.057 C 690.258 921.501 694.515 919.593 705.714 909.394 z" fill="rgb(254,122,92)" transform="translate(0,0)"></path>
<path d="M 303.202 1217.2 C 301.622 1208.9 302.824 1170.42 302.988 1160.25 C 303.167 1149.13 301.878 1096.19 304.37 1090.23 L 306.046 1089.73 C 307.466 1090.68 309.118 1092.58 309.122 1094.39 C 309.141 1105.5 309.069 1116.64 309.045 1127.76 L 308.667 1207.8 C 306.696 1211.61 305.628 1213.7 303.202 1217.2 z" fill="rgb(76,24,91)" transform="translate(0,0)"></path>
<path d="M 904.029 1088.22 C 908.65 1088.17 913.786 1087.69 918.034 1089.15 L 919.195 1091.57 C 916.516 1095.02 910.723 1093.58 910.543 1094.54 C 907.785 1109.22 911.892 1175.94 908.488 1185.28 C 906.752 1182.94 905.913 1181.36 904.463 1178.86 C 903.666 1148.91 904.207 1118.24 904.029 1088.22 z" fill="rgb(76,24,91)" transform="translate(0,0)"></path>
<path d="M 182.839 1639.05 C 182.952 1621.39 181.848 1575.58 183.824 1560.43 L 186.836 1559.56 L 183.907 1559.86 L 186.841 1559.22 C 191.263 1576.07 188.437 1594.34 189.328 1612.39 C 189.671 1619.34 190.046 1642.65 189.43 1649.09 C 184.895 1646.16 184.27 1643.94 182.839 1639.05 z" fill="rgb(76,24,91)" transform="translate(0,0)"></path>
<path d="M 1026.07 1628.89 C 1026.11 1615.86 1024.53 1536.59 1027.71 1531 L 1029.56 1530.5 C 1032.86 1535.06 1031.75 1617.26 1031.82 1628.21 C 1029.09 1628.7 1028.79 1628.88 1026.07 1628.89 z" fill="rgb(76,24,91)" transform="translate(0,0)"></path>
<path d="M 419.969 1112.69 C 419.898 1106.49 418.625 1094.63 423.167 1090.23 L 424.635 1091.62 C 426.687 1097.39 425.964 1103.4 425.808 1109.65 L 419.969 1112.69 z" fill="rgb(57,19,69)" transform="translate(0,0)"></path>
<path d="M 801.017 1099.43 C 801.011 1094.26 800.214 1094.23 802.373 1090.34 C 805.458 1088.69 803.948 1088.8 807.001 1089.55 C 809.806 1094.31 807.757 1095.59 804.751 1099.94 L 802.84 1100.34 L 801.017 1099.43 z" fill="rgb(57,19,69)" transform="translate(0,0)"></path>
<path d="M 538.783 766.02 C 544.577 765.723 547.328 769.124 548.604 774.442 C 547.891 777.602 547.92 778.134 546.387 781.064 C 543.997 775.137 541.918 771.578 538.783 766.02 z" fill="rgb(254,255,254)" transform="translate(0,0)"></path>
<path d="M 970.267 367.731 C 974.532 366.017 979.243 362.616 983.071 360 C 1034.48 324.864 1105.63 334.438 1146.69 381.008 C 1152.77 387.906 1158.3 394.668 1163.92 401.98 C 1167.23 402.955 1167.55 402.83 1170.32 405.038 C 1171.57 409.419 1170.62 409.554 1167.24 412.523 C 1191.95 462.381 1178.01 525.418 1138.25 563.277 C 1135.63 565.399 1132.84 567.758 1130.09 569.669 C 1076.18 604.644 1023.36 603.79 969.787 565.838 C 962.034 560.346 955.093 549.534 947.248 542.946 C 943.964 540.034 943.932 539.538 942.048 535.425 C 930.046 512.936 922.764 491.065 923.991 465.476 C 925.679 430.285 937.367 399.526 963.314 375.357 C 962.94 370.405 962.406 372.61 964.73 368.443 C 968.352 366.898 966.562 367.055 970.267 367.731 z" fill="rgb(254,255,254)" transform="translate(0,0)"></path>
<path d="M 963.314 375.357 C 992.07 432.195 985.975 488.883 942.048 535.425 C 930.046 512.936 922.764 491.065 923.991 465.476 C 925.679 430.285 937.367 399.526 963.314 375.357 z" fill="rgb(254,255,254)" transform="translate(0,0)"></path>
<path d="M 1167.24 412.523 C 1191.95 462.381 1178.01 525.418 1138.25 563.277 C 1117.59 519.557 1132.22 445.195 1167.24 412.523 z" fill="rgb(254,255,254)" transform="translate(0,0)"></path>
<path d="M 963.314 375.357 C 962.94 370.405 962.406 372.61 964.73 368.443 C 968.352 366.898 966.562 367.055 970.267 367.731 C 973.882 377.743 979.655 389.762 982.546 399.336 C 992.949 433.7 990.381 470.688 975.328 503.285 C 968.088 518.648 958.58 530.43 947.248 542.946 C 943.964 540.034 943.932 539.538 942.048 535.425 C 985.975 488.883 992.07 432.195 963.314 375.357 z" fill="rgb(76,24,91)" transform="translate(0,0)"></path>
<path d="M 1163.92 401.98 C 1167.23 402.955 1167.55 402.83 1170.32 405.038 C 1171.57 409.419 1170.62 409.554 1167.24 412.523 C 1132.22 445.195 1117.59 519.557 1138.25 563.277 C 1135.63 565.399 1132.84 567.758 1130.09 569.669 C 1114.12 534.991 1118.62 490.775 1131.12 455.511 C 1138.19 435.578 1150.88 418.393 1163.92 401.98 z" fill="rgb(57,19,69)" transform="translate(0,0)"></path>
<path d="M 955.673 834.367 C 980.775 832.752 995.901 847.893 1005.53 869.052 C 1012.82 861.576 1020.48 854.668 1031.65 854.145 C 1038.4 853.769 1044.99 856.272 1049.79 861.031 C 1058.45 869.576 1058.21 879.326 1058.18 890.315 C 1073.7 892.586 1082.65 900.564 1093.32 911.008 L 1002.5 910.666 C 952.845 910.706 901.841 911.846 852.389 910.898 C 866.229 888.47 886.492 885.316 910.294 890.804 C 910.074 889.522 909.883 888.236 909.722 886.945 C 906.243 858.507 928.597 837.433 955.673 834.367 z" fill="rgb(254,255,254)" transform="translate(0,0)"></path>
<path d="M 685.554 565.187 C 704.703 564.198 714.049 572.786 720.339 590.389 C 740.514 579.993 754.549 586.998 757.12 609.39 C 768.248 611.574 770.391 612.382 779.475 619.086 C 750.788 619.862 720.082 619.272 691.24 619.172 C 657.96 619.147 626.058 619.056 592.788 620.143 C 606.692 606.837 615.011 605.9 633.603 609.169 C 643.083 598.593 649.227 590.557 664.516 590.944 C 667.124 575.532 670.341 569.939 685.554 565.187 z" fill="rgb(254,255,254)" transform="translate(0,0)"></path>
<path d="M 1348.75 676.217 C 1350.02 676.265 1351.29 676.349 1352.55 676.471 C 1368.9 678.169 1365.79 689.379 1372.37 700.767 C 1376.05 707.117 1393.1 716.26 1391.88 722.456 C 1386.39 723.184 1381.66 722.802 1376.17 722.641 C 1353.9 721.985 1331.59 722.09 1309.32 722.049 C 1301.07 721.987 1276.89 722.615 1270.29 719.896 L 1269.83 718.508 C 1275.75 712.472 1286.84 712.959 1294.78 712.875 C 1294.88 691.197 1310.46 686.945 1328.55 694.753 C 1333.47 683.475 1336.3 678.531 1348.75 676.217 z" fill="rgb(254,255,254)" transform="translate(0,0)"></path>
<path d="M 1026.73 1093.08 C 1022.35 1093.3 1018.05 1094.41 1015.58 1090.34 L 1017.15 1088.11 C 1020.21 1086.53 1021.41 1086.63 1024.78 1086.3 C 1028.75 1087.06 1029.06 1086.44 1031.58 1088.72 C 1032.51 1099.07 1032.1 1112.67 1032.09 1123.26 L 1032.03 1180.94 C 1032.02 1217.02 1033.54 1268.72 1031.46 1304 L 1030.01 1305.59 L 1028.11 1305.39 C 1025.34 1301.02 1025.93 1295.39 1025.89 1290.39 C 1025.37 1225.28 1029 1158.01 1026.73 1093.08 z" fill="rgb(57,19,69)" transform="translate(0,0)"></path>
<path d="M 1026.1 1357.23 C 1027.59 1357.52 1028.95 1357.97 1030.42 1358.39 C 1032.08 1363.65 1031.15 1404.04 1031.07 1412.59 L 1026.94 1411.65 C 1024.61 1407.11 1025.87 1365.55 1026.1 1357.23 z" fill="rgb(57,19,69)" transform="translate(0,0)"></path>
<path d="M 183.693 1439.27 C 186.107 1439.69 186.01 1439.6 188.113 1440.82 C 190.814 1447.65 190.05 1472.46 188.457 1479.85 C 186.445 1479.18 186.714 1479.23 184.863 1478.18 C 181.737 1471.33 183.237 1447.74 183.693 1439.27 z" fill="rgb(57,19,69)" transform="translate(0,0)"></path>
<path d="M 1589.45 708.017 C 1581.73 700.847 1567.76 688.231 1561.46 680.326 C 1545.33 660.11 1535.16 631.762 1534.16 605.994 C 1532.79 577.683 1542.91 550.018 1562.23 529.279 C 1604.96 483.142 1672.42 498.482 1713.3 539.7 C 1744.43 571.088 1756.4 592.192 1775.87 632.698 C 1809.25 702.183 1846.66 863.997 1726.45 867.498 C 1684.15 868.73 1664 845.675 1636.67 817.176 L 1590.72 858.365 C 1583.08 864.783 1575.59 871.928 1567.94 878.124 C 1559.14 873.197 1489.48 826.631 1486.96 822.379 C 1491.75 818.79 1505.36 802.759 1509.94 797.494 L 1549.66 751.796 C 1565.36 736.366 1575.24 725.021 1589.45 708.017 z" fill="rgb(254,206,129)" transform="translate(0,0)"></path>
<path d="M 1589.45 708.017 C 1612.04 684.365 1629.64 653.166 1664.53 652.844 C 1679.8 652.703 1694.12 657.27 1705.4 667.898 C 1716.83 678.748 1723.37 693.77 1723.52 709.529 C 1723.83 726.416 1717.33 742.259 1705.11 753.606 C 1683 774.138 1659.54 797.76 1636.67 817.176 L 1590.72 858.365 C 1583.08 864.783 1575.59 871.928 1567.94 878.124 C 1559.14 873.197 1489.48 826.631 1486.96 822.379 C 1491.75 818.79 1505.36 802.759 1509.94 797.494 L 1549.66 751.796 C 1565.36 736.366 1575.24 725.021 1589.45 708.017 z" fill="rgb(57,19,69)" transform="translate(0,0)"></path>
<path d="M 1907.02 1852.52 C 1914.97 1852.12 1919.33 1851.35 1925.82 1856.56 C 1933.2 1862.06 1934.98 1875.13 1927.68 1881.38 C 1920.06 1887.9 1902.48 1885.9 1892.75 1885.73 C 1876.65 1886.09 1862.66 1874.21 1873.98 1857.69 C 1878.43 1851.19 1898.54 1852.47 1907.02 1852.52 z" fill="rgb(57,19,69)" transform="translate(0,0)"></path>
<metadata><recraft-signature>{"signed_by": "recraft", "signature_b64": "ZgAeUT6SYxESghdmGf1gtw14/hKK2eg6IwMS4oUaItfTKIIgr/U+P5AhQPgmBhxZdGw2jbYtecn65kZ/BAqaCg==", "signing_algo": "Ed25519", "generation_timestamp": 1771174263, "identifier": "3a1c5519-48ae-4d73-bae1-32466b1050a4"}</recraft-signature></metadata></svg>