<svg xmlns="http://www.w3.org/2000/svg" height="1024" preserveAspectRatio="none" style="display: block;" version="1.1" viewBox="0 0 2048 2048" width="1024">
<path d="M 0 0 L 2048 0 L 2048 2048 L 0 2048 L 0 0 z" fill="rgb(253,252,252)" transform="translate(0,0)"></path>
<path d="M 371.332 984.359 C 357.118 979.811 255.274 949.468 249.973 944.825 C 247.979 939.263 247.339 879.434 249.591 873.705 C 256.459 868.413 562.901 791.711 597.805 782.674 C 706.137 753.589 814.762 725.603 923.661 698.721 C 953.881 691.096 984 682.872 1014.19 675.136 C 1027.26 671.787 1045.57 679.131 1058.8 682.507 L 1111.24 695.425 C 1171.93 711.101 1232.72 726.409 1293.59 741.348 C 1424.13 773.117 1554.34 806.254 1684.19 840.754 C 1720.17 850.459 1766.99 860.224 1801.14 870.921 C 1801.29 880.712 1802.41 941.384 1799.23 945.162 C 1790.62 949.943 1776.33 953.499 1766.67 956.351 C 1736.72 965.189 1706.98 974.946 1677.02 983.719 L 1677.17 1505.41 C 1677.19 1581.85 1676.29 1659.75 1677.12 1736.05 L 1855.1 1736.12 C 1867.75 1736.13 1943.81 1734.78 1950.32 1737.93 C 1952.53 1740.84 1952.03 1739.24 1951.86 1742.9 C 1950.1 1746.04 1949.7 1745.91 1946.56 1747.56 C 1941.77 1753.19 1941.05 1772.87 1932.16 1780.5 C 1913.24 1796.74 1880.14 1792.44 1856.55 1792.25 L 1782.81 1791.95 C 1696.8 1791.79 1610.4 1790.96 1524.5 1794.71 C 1503.38 1795.63 1482.22 1793.18 1461.06 1793.06 L 1289.73 1792.43 L 835.369 1791.37 L 404.399 1791.57 L 233.564 1792.02 C 203.623 1792.05 173.425 1792.15 143.492 1791.91 C 133.055 1791.53 124.013 1790.1 116.389 1782.18 C 107.696 1773.15 102.954 1759.51 103.047 1747.08 C 99.6311 1747.14 96.8842 1747.64 94.0741 1745.91 C 91.7097 1742.26 92.0975 1744.13 92.1362 1740.32 C 97.2348 1733.43 117.606 1735.68 125.889 1735.76 C 141.628 1735.96 157.369 1736.03 173.11 1735.97 L 371.739 1736.11 L 371.332 984.359 z" fill="rgb(24,26,64)" transform="translate(0,0)"></path>
<path d="M 1676.93 1747.02 L 1802.91 1746.98 C 1822.07 1746.97 1852.69 1746.02 1870.97 1747.76 L 1871.63 1748.85 C 1878.45 1759.84 1885.38 1755.41 1896.98 1755.99 C 1901.66 1756.23 1911.21 1756.42 1914.57 1753.4 C 1914.67 1751.59 1914.74 1749.78 1914.76 1747.97 C 1917.59 1746.37 1942.56 1746.76 1946.56 1747.56 C 1941.77 1753.19 1941.05 1772.87 1932.16 1780.5 C 1913.24 1796.74 1880.14 1792.44 1856.55 1792.25 L 1782.81 1791.95 C 1696.8 1791.79 1610.4 1790.96 1524.5 1794.71 C 1503.38 1795.63 1482.22 1793.18 1461.06 1793.06 L 1289.73 1792.43 L 835.369 1791.37 L 404.399 1791.57 L 233.564 1792.02 C 203.623 1792.05 173.425 1792.15 143.492 1791.91 C 133.055 1791.53 124.013 1790.1 116.389 1782.18 C 107.696 1773.15 102.954 1759.51 103.047 1747.08 L 371.901 1747.15 C 371.451 1776.91 370.539 1783.61 405.349 1781.11 C 422.491 1779.87 418.965 1760.09 418.821 1747.67 L 670.933 1747.17 L 740.442 1747.23 C 748.609 1747.23 771.578 1745.9 777.222 1749.14 L 777.255 1750.52 C 770.935 1754.19 760.34 1747.69 754.076 1754.59 C 752.797 1769.98 791.988 1762.44 801.409 1763.53 C 803.135 1763.73 805.371 1762.34 806.612 1761.19 C 808.695 1757.31 807.656 1752.2 807.628 1747.39 L 1239.04 1747.17 C 1238.97 1752.54 1238.43 1758.73 1239.95 1763.73 C 1243.82 1767.23 1268.33 1766.58 1273.48 1764.42 C 1274.76 1759.21 1274.28 1752.57 1274.2 1747.06 L 1629.02 1747.5 C 1628.72 1767.22 1627.14 1781.45 1652.97 1781.05 C 1679.65 1780.64 1677.35 1766.75 1676.93 1747.02 z" fill="rgb(251,242,173)" transform="translate(0,0)"></path>
<path d="M 1023.64 1775 C 1036.13 1774.81 1048.77 1774.58 1061.26 1774.51 C 1066.92 1774.47 1072.85 1774.55 1075.83 1779.8 C 1075.91 1783.3 1075.25 1783.96 1073.57 1786.99 C 1060.5 1787.17 1047.28 1787.48 1034.21 1787.38 C 1028.7 1787.34 1024.66 1786.66 1021.47 1782.09 C 1021.13 1778.56 1021.8 1778.01 1023.64 1775 z" fill="rgb(24,26,64)" transform="translate(0,0)"></path>
<path d="M 1487.1 1779.12 C 1498.22 1779.1 1509.44 1778.57 1520.54 1778.82 C 1526.29 1778.95 1532.74 1778.88 1535.12 1784.72 C 1534.81 1788.18 1534.22 1788.32 1531.92 1790.95 C 1522.64 1790.91 1513.31 1791.36 1504.04 1791.29 C 1497.22 1791.24 1488.31 1792.57 1484.47 1786.16 C 1484.39 1782.6 1485.11 1782.05 1487.1 1779.12 z" fill="rgb(24,26,64)" transform="translate(0,0)"></path>
<path d="M 1744.4 1757.17 C 1753.72 1757.51 1763.1 1756.81 1772.41 1756.92 C 1779.15 1756.99 1788.58 1755.49 1791.93 1762.22 C 1791.71 1765.85 1791.1 1766.2 1788.81 1768.97 C 1778.04 1768.95 1767.23 1769.38 1756.47 1769.28 C 1750.45 1769.22 1743.89 1769.64 1741.08 1763.74 C 1741.36 1760.31 1742.19 1759.79 1744.4 1757.17 z" fill="rgb(24,26,64)" transform="translate(0,0)"></path>
<path d="M 546.047 1758.23 C 555.834 1758.03 586.462 1754.65 591.018 1763.27 C 590.272 1767.76 590.727 1766.18 587.594 1770.04 C 578.53 1770.89 555.857 1771.15 546.701 1769.08 C 544.099 1768.49 543.475 1766.73 542.579 1764.81 C 542.981 1761.08 543.54 1761.01 546.047 1758.23 z" fill="rgb(24,26,64)" transform="translate(0,0)"></path>
<path d="M 218.138 1760.12 C 227.35 1759.91 257.118 1756.67 261.304 1764.78 C 261.074 1768.46 260.551 1768.57 258.284 1771.47 C 249.238 1772.32 229.964 1772.85 221.038 1771.1 C 218.11 1770.52 217.307 1768.73 216.11 1766.63 C 215.979 1763.12 216.346 1763.07 218.138 1760.12 z" fill="rgb(24,26,64)" transform="translate(0,0)"></path>
<path d="M 490.378 1133.15 L 832.816 1133.02 L 832.995 1265.51 C 832.992 1286.83 833.65 1312.51 832.818 1333.55 C 833.538 1349.26 832.985 1369.27 832.962 1385.45 L 832.552 1488.74 L 763.507 1488.41 C 748.751 1488.35 729.206 1487.08 714.762 1490.19 C 704.041 1492.5 697.795 1507.64 702.236 1517.89 C 713.759 1544.47 765.687 1524.33 784.364 1533.44 C 786.903 1536.8 786.172 1534.95 786.566 1539.2 C 786.255 1539.88 785.945 1540.56 785.634 1541.24 C 767.277 1544.08 722.479 1536.05 708.956 1546.98 C 704.394 1550.67 701.592 1556.11 701.23 1561.97 C 700.832 1568.04 703.079 1573.97 707.39 1578.25 C 712.375 1583.28 718.53 1585.2 725.513 1585.16 C 746.443 1585.06 767.359 1584.66 788.291 1584.88 L 788.279 1601.25 L 715.762 1601.04 C 701.751 1600.97 676.09 1598.16 665.461 1606.62 C 652.536 1616.92 657.294 1639.75 674.404 1642.19 C 685.734 1643.81 698.751 1642.88 710.151 1642.85 L 776.793 1642.72 L 776.943 1736.12 L 465.124 1736.33 L 465.189 1346.51 C 465.211 1277.32 463.798 1201.88 465.648 1133.13 C 473.764 1132.97 482.232 1133.12 490.378 1133.15 z" fill="rgb(251,242,173)" transform="translate(0,0)"></path>
<path d="M 490.378 1133.15 L 832.816 1133.02 L 832.995 1265.51 C 832.992 1286.83 833.65 1312.51 832.818 1333.55 C 831.383 1327.35 831.895 1296 831.9 1287.86 L 831.852 1188.91 C 733.079 1177.34 632.522 1156.94 533.914 1142.75 C 524.555 1141.4 505.412 1138.4 496.902 1135.39 L 490.378 1133.15 z" fill="rgb(244,203,190)" transform="translate(0,0)"></path>
<path d="M 1215.66 1132.97 L 1581.3 1133.01 L 1581.64 1398.49 C 1581.61 1440.51 1582.2 1483.83 1581.51 1525.74 L 1581.09 1736.01 L 1273.64 1736.07 C 1273.22 1704.98 1273.03 1673.89 1273.07 1642.8 C 1301.7 1642.4 1330.51 1643.34 1359.17 1643.1 C 1363.27 1642.8 1368.96 1643.39 1372.87 1642.25 C 1395.72 1636.17 1393.3 1605.28 1370.44 1601.99 C 1358.17 1600.23 1342.65 1601.19 1330.15 1601.21 L 1251.53 1601.3 L 1251.59 1584.92 L 1305.45 1584.92 C 1310.27 1584.92 1327.94 1585.21 1332.03 1584.33 C 1335.96 1583.52 1339.55 1581.52 1342.32 1578.62 C 1346.83 1573.92 1348.7 1567.74 1348.36 1561.31 C 1347.12 1537.85 1316.74 1541.17 1300.09 1541.32 L 1266.5 1541.61 C 1262.59 1541.62 1255.16 1542.08 1252.46 1539.62 C 1252.91 1526.77 1268.65 1532.79 1276.53 1531.76 C 1297.09 1529.08 1344.76 1542.34 1348.09 1511.56 C 1348.93 1503.88 1342.28 1493.11 1335.45 1490.94 C 1322.52 1486.83 1303.77 1488.5 1289.76 1488.56 L 1215.76 1488.77 L 1215.68 1257 L 1215.66 1132.97 z" fill="rgb(253,252,252)" transform="translate(0,0)"></path>
<path d="M 1215.66 1132.97 L 1581.3 1133.01 L 1581.64 1398.49 C 1581.61 1440.51 1582.2 1483.83 1581.51 1525.74 C 1579.76 1523.34 1580.58 1339.81 1580.59 1319.85 C 1554.33 1316.47 1520.19 1309.64 1493.54 1305.06 L 1342.18 1279.02 L 1260 1264.91 C 1247.33 1262.79 1227.22 1260.17 1215.68 1257 L 1215.66 1132.97 z" fill="rgb(244,203,190)" transform="translate(0,0)"></path>
<path d="M 1019.63 753.14 C 1022.99 752.423 1025.16 752.946 1028.55 753.835 C 1091.26 770.274 1154.03 786.685 1216.92 802.394 C 1354.68 836.641 1492.27 871.58 1629.69 907.208 L 1629.63 951.275 C 1615.4 954.524 1597 959.627 1583.13 964.031 L 1582.23 973.992 L 957.75 973.917 L 615.728 973.591 L 516.97 973.588 C 500.737 973.595 480.227 974.006 464.294 972.886 C 453.903 972.156 430.417 962.093 419.564 957.676 C 419.233 941.16 419.457 923.989 419.449 907.422 C 461.459 894.523 511.045 883.583 554.089 872.623 L 782.945 813.869 C 784.44 815.5 787.3 818.709 789.55 818.747 C 814.246 819.151 839.146 819.236 863.846 818.689 C 867.207 818.614 872.728 816.78 873.148 812.953 C 867.742 805.549 855.098 807.742 847.059 807.859 C 831.817 808.081 816.562 808.014 801.353 809.112 C 871.347 789.363 948.692 771.007 1019.63 753.14 z" fill="rgb(185,220,228)" transform="translate(0,0)"></path>
<path d="M 1141.79 861.485 C 1155.52 861.479 1212.74 859.369 1221.77 863.777 C 1225.08 868.473 1223.06 870.7 1218.25 872.434 C 1208.07 872.191 1141.36 873.744 1136.92 870.508 C 1135.55 867.684 1135.83 867.738 1136.37 864.566 C 1139.01 861.58 1137.41 862.792 1141.79 861.485 z" fill="rgb(24,26,64)" transform="translate(0,0)"></path>
<path d="M 727.115 945.373 C 749.959 945.386 773.017 945.03 795.868 945.288 C 801.344 945.35 806.139 945.887 809.03 950.704 C 808.55 955.097 809.244 953.055 806.447 956.898 C 780.265 955.807 754.077 956.683 727.911 955.83 C 725.82 955.762 725.167 953.568 724.423 952.062 C 724.774 948.139 724.838 948.33 727.115 945.373 z" fill="rgb(24,26,64)" transform="translate(0,0)"></path>
<path d="M 1349.61 916.992 C 1369.25 916.988 1389.09 916.62 1408.72 916.928 C 1413.18 916.998 1414.02 917.433 1416.62 920.332 C 1417.14 923.873 1416.6 924.392 1415.04 927.565 C 1412.04 927.982 1408.55 928.184 1404.29 928.048 C 1387.29 927.502 1367.56 929.622 1350.92 926.818 C 1350.13 926.045 1349.35 925.271 1348.57 924.497 C 1347.65 921.111 1348.33 920.261 1349.61 916.992 z" fill="rgb(24,26,64)" transform="translate(0,0)"></path>
<path d="M 842.94 1132.98 L 1204.92 1132.94 L 1205.03 1258.33 L 1205 1488.71 L 842.664 1488.61 L 842.922 1194.15 L 842.94 1132.98 z" fill="rgb(253,252,252)" transform="translate(0,0)"></path>
<path d="M 842.94 1132.98 L 1204.92 1132.94 L 1205.03 1258.33 C 1203.91 1256.71 1203.04 1255.88 1201 1255.52 C 1185.51 1252.78 1169.98 1250.27 1154.47 1247.68 L 1059.87 1231.61 L 927.892 1208.12 C 900.132 1203.24 870.703 1197.56 842.922 1194.15 L 842.94 1132.98 z" fill="rgb(244,203,190)" transform="translate(0,0)"></path>
<path d="M 465.266 984.354 C 505.01 983.536 547.47 984.292 587.399 984.289 L 877.232 984.712 L 1331.18 984.71 C 1414.55 984.515 1497.92 984.789 1581.29 985.532 L 1581.23 1097.59 C 1434.67 1099.24 1284.76 1098.06 1138.07 1097.86 L 465.233 1098.12 L 465.266 984.354 z" fill="rgb(253,252,252)" transform="translate(0,0)"></path>
<path d="M 842.586 1642.74 C 888.569 1641.91 937.359 1642.8 983.535 1642.85 L 1204.22 1642.95 C 1205.5 1670.07 1205.25 1708.96 1204.58 1736.19 L 842.618 1735.88 C 841.198 1708.6 842.434 1670.84 842.586 1642.74 z" fill="rgb(244,203,190)" transform="translate(0,0)"></path>
<path d="M 1626.63 991 L 1628.86 991.226 C 1630.94 997.351 1628.99 1121.32 1628.99 1140.13 L 1628.98 1736.23 L 1592.96 1736.14 L 1592.98 1170.93 L 1592.94 1049.14 C 1592.94 1042.12 1592.42 1000.78 1593.84 996.003 L 1595.5 995.485 L 1600.19 998.752 C 1603.31 999.173 1622.02 992.507 1626.63 991 z" fill="rgb(204,232,241)" transform="translate(0,0)"></path>
<path d="M 419.421 993.545 C 431.071 997.275 442.221 1000.89 454.046 1004.05 L 453.622 1736.95 L 419.31 1737.02 L 419.421 993.545 z" fill="rgb(253,252,252)" transform="translate(0,0)"></path>
<path d="M 405.664 910.188 L 407.486 910.165 C 409.252 912.462 408.664 925.446 408.666 929.189 C 408.685 968.175 408.627 1007.16 408.667 1046.15 L 408.165 1770.88 L 385.893 1770.96 L 384.087 1770.45 C 382.151 1767.95 382.02 1766.83 382.014 1763.11 C 381.969 1731.13 381.981 1698.92 381.972 1666.96 L 381.93 1472.04 L 381.869 915.596 L 405.664 910.188 z" fill="rgb(185,220,228)" transform="translate(0,0)"></path>
<path d="M 1027.28 713.519 C 1108.26 733.049 1189.07 753.264 1269.7 774.161 L 1537.71 841.396 C 1621.6 863.081 1705.92 885.829 1790 906.581 L 1789.91 938.293 C 1772.35 934.227 1752.98 928.455 1735.23 923.909 L 1538.79 871.985 L 1228.66 793.048 L 1027.36 741.889 C 1027.21 732.433 1027.19 722.975 1027.28 713.519 z" fill="rgb(52,127,134)" transform="translate(0,0)"></path>
<path d="M 1640.61 910.26 C 1648.42 911.994 1658.43 915.308 1666.25 917.659 L 1665.82 1469.27 L 1665.91 1657.13 C 1665.98 1691.07 1666.15 1725.1 1666 1759.04 C 1665.98 1763.35 1665.83 1765.22 1663.71 1768.83 C 1656.72 1769.43 1648.57 1771.23 1642.8 1767.96 C 1638.05 1762.01 1640.01 1742.4 1640.01 1734.05 L 1639.99 1669.26 L 1639.99 1471.54 L 1640.61 910.26 z" fill="rgb(191,227,235)" transform="translate(0,0)"></path>
<path d="M 1012.64 715.062 L 1015.13 715.305 C 1017.03 719.595 1016.17 737.089 1016.07 742.293 L 263.475 935.883 L 260.825 935.675 C 258.767 931.432 259.701 914.234 259.823 909.011 C 281.43 901.282 319.306 892.51 342.633 886.509 C 396.945 872.505 451.341 858.835 505.821 845.498 C 598.85 821.918 691.757 797.856 784.537 773.315 C 860.672 754.297 936.705 734.879 1012.64 715.062 z" fill="rgb(106,181,203)" transform="translate(0,0)"></path>
<path d="M 930.855 1108.49 L 1581.54 1108.74 L 1581.43 1122.37 L 1117.5 1122.11 L 465.449 1122.13 L 465.462 1108.96 L 930.855 1108.49 z" fill="rgb(244,203,190)" transform="translate(0,0)"></path>
<path d="M 675.839 1612.12 C 699.815 1610.77 737.787 1611.83 762.793 1611.75 L 963.682 1611.89 L 1215.62 1611.69 L 1320.79 1611.87 C 1333.61 1611.92 1346.47 1611.92 1359.27 1611.57 C 1371.32 1611.24 1388.47 1621.9 1371.95 1631.96 C 1327.31 1632.91 1279.29 1632.03 1234.43 1632.01 L 962.998 1631.69 L 765.937 1631.9 C 739.133 1631.87 712.116 1631.77 685.299 1632.04 C 682.022 1632.07 675.776 1631.14 672.925 1629.5 C 669.392 1627.48 669.305 1626.89 668.288 1623.56 C 669.142 1617.77 671.49 1615.85 675.839 1612.12 z" fill="rgb(238,115,117)" transform="translate(0,0)"></path>
<path d="M 720.745 1552.13 C 740.561 1551.35 762.781 1551.78 782.727 1551.76 L 891.937 1551.75 L 1188.34 1551.68 L 1286.36 1551.95 C 1298.54 1551.98 1330.66 1547.91 1337.14 1559.48 C 1340.98 1566.35 1334.46 1571.72 1328.64 1574.52 C 1283.19 1576.23 1227.43 1574.47 1181.27 1574.3 L 935.969 1574.25 L 784.675 1574.18 C 771.436 1574.16 758.198 1574.22 744.961 1574.34 C 739.767 1574.43 728.225 1575.58 723.689 1574.83 C 709.272 1572.43 706.534 1559.26 720.745 1552.13 z" fill="rgb(238,115,117)" transform="translate(0,0)"></path>
<path d="M 719.296 1499.34 L 1110.64 1499.71 L 1266.1 1499.31 C 1284.27 1499.41 1302.47 1499.53 1320.65 1499.39 C 1334.53 1499.28 1346.39 1509.49 1330.69 1520.67 C 1320.41 1521.91 1300.59 1521.2 1289.49 1521.17 L 1215.8 1521.05 L 962.584 1520.84 L 787.036 1521.7 L 746.533 1521.79 C 736.622 1521.91 719.504 1524.7 713.298 1515.04 C 708.692 1507.87 712.491 1502.51 719.296 1499.34 z" fill="rgb(238,115,117)" transform="translate(0,0)"></path>
<path d="M 1012.7 688.17 C 1013.77 687.99 1014.23 688.258 1015.4 688.514 C 1016.71 692.075 1016.14 698.318 1016.03 702.363 C 996.844 708.764 967.945 715.557 948.072 720.749 L 777.061 763.677 L 263.244 895.804 C 261.013 896.338 262.141 896.374 259.864 895.607 C 258.506 891.991 259.231 886.408 259.439 882.344 C 295.849 871.388 335.458 862.506 372.456 852.893 L 598.737 794.429 L 824.002 736.56 C 885.742 720.416 950.727 702.741 1012.7 688.17 z" fill="rgb(106,181,203)" transform="translate(0,0)"></path>
<path d="M 1028.03 687.434 L 1790.87 878.728 L 1790.78 894.361 C 1778.33 892.893 1735.18 880.162 1721.26 876.571 L 1564.83 836.474 L 1349.53 782.872 C 1242.58 754.944 1135.38 727.982 1027.94 701.99 L 1028.03 687.434 z" fill="rgb(52,127,134)" transform="translate(0,0)"></path>
<path d="M 843.032 1584.63 C 962.678 1584.32 1085.15 1583.41 1204.62 1584.76 L 1204.66 1601.1 C 1165.78 1602.42 1117.14 1600.98 1077.56 1600.94 L 843.037 1601.35 L 843.032 1584.63 z" fill="rgb(253,252,252)" transform="translate(0,0)"></path>
<path d="M 896.139 1531.5 L 1099.46 1531.54 C 1131.74 1531.64 1171.89 1530.51 1203.5 1532.08 C 1205.89 1533.93 1204.94 1532.75 1205.97 1536.04 L 1204.62 1538.38 C 1196.98 1542.96 1163.43 1541.15 1152.08 1541.06 L 926.509 1541.14 L 869.197 1541.13 C 863.744 1541.13 845.28 1542.65 842.973 1539.12 C 843.015 1534.7 842.149 1536.14 844.254 1533.5 C 852.58 1530.02 885.121 1531.43 896.139 1531.5 z" fill="rgb(253,252,252)" transform="translate(0,0)"></path>
<path d="M 1215.45 1642.13 L 1239.13 1642.13 C 1239.32 1672.69 1240.41 1706 1239.63 1736.25 L 1215.44 1736.22 C 1214.64 1705.8 1215.26 1672.69 1215.45 1642.13 z" fill="rgb(253,252,252)" transform="translate(0,0)"></path>
<path d="M 808.613 1642.13 L 831.999 1642.24 C 832.629 1672.58 832.199 1705.12 831.91 1735.57 L 808.378 1735.62 L 808.613 1642.13 z" fill="rgb(253,252,252)" transform="translate(0,0)"></path>
<path d="M 368.379 919.059 C 369.922 919.245 369.052 918.958 370.685 920.552 C 371.57 927.398 371.171 936.919 371.089 944.064 C 361.382 941.367 351.79 938.274 342.335 934.795 C 336.656 932.912 333.456 931.754 327.951 929.241 C 341.745 926.4 354.842 922.866 368.379 919.059 z" fill="rgb(185,220,228)" transform="translate(0,0)"></path>
<path d="M 1677.3 919.714 C 1687.09 922.544 1701.08 925.949 1710.04 929.142 L 1710.08 929.853 L 1702.24 932.389 C 1695.44 934.884 1684.52 937.814 1677.28 940.017 C 1677.15 933.38 1677.28 926.383 1677.3 919.714 z" fill="rgb(185,220,228)" transform="translate(0,0)"></path>
<path d="M 810.045 1584.83 C 816.589 1584.56 824.429 1584.77 831.079 1584.79 L 831.064 1601.02 L 810.043 1601 L 810.045 1584.83 z" fill="rgb(253,252,252)" transform="translate(0,0)"></path>
<path d="M 1215.18 1584.78 C 1220.72 1584.48 1226.51 1584.77 1232.08 1584.91 L 1232.21 1600.98 L 1215.14 1601.09 L 1215.18 1584.78 z" fill="rgb(253,252,252)" transform="translate(0,0)"></path>
<path d="M 786.568 1730.26 C 789.685 1730.94 794.777 1730.79 798.148 1730.84 L 797.992 1751.25 C 794.805 1751.32 793.017 1751.27 789.835 1751.04 C 784.525 1746.52 787.497 1737.93 786.568 1730.26 z" fill="rgb(106,181,203)" transform="translate(0,0)"></path>
<path d="M 811.491 1531.73 C 817.948 1531.57 825.642 1530.34 830.963 1532.57 C 833.722 1536.06 832.793 1535.78 833.078 1541.29 C 825.551 1541.12 818.632 1543.06 812.641 1540.18 C 810.478 1536.98 811.347 1536.58 811.491 1531.73 z" fill="rgb(253,252,252)" transform="translate(0,0)"></path>
<path d="M 1251.59 1739.11 C 1257.15 1738.77 1258.62 1738.08 1262.87 1740.99 C 1265.11 1744.81 1263.81 1749.79 1262.85 1754.1 L 1250.18 1754.04 C 1250.23 1748.74 1249.6 1743.89 1251.59 1739.11 z" fill="rgb(106,181,203)" transform="translate(0,0)"></path>
<path d="M 1216.86 1531.96 C 1222.06 1531.98 1227.68 1530.77 1232.19 1532.62 C 1234.84 1536 1233.94 1535.51 1234.06 1540.92 C 1228.59 1540.92 1221.25 1542.04 1217.32 1539.95 C 1215.55 1536.44 1216.31 1536.69 1216.86 1531.96 z" fill="rgb(253,252,252)" transform="translate(0,0)"></path>
<path d="M 1261.43 1706.22 L 1262.75 1706.96 C 1263.03 1710.04 1263.52 1708.8 1261.96 1710.99 C 1256.91 1711.51 1255.03 1710.75 1252.08 1714.95 L 1252.66 1716.87 C 1257.29 1719.41 1258.61 1716.08 1264.25 1718.22 L 1262.91 1720.54 C 1257.82 1723.44 1254.7 1723.14 1251.12 1718.53 C 1249.69 1709.53 1254.38 1708.74 1261.43 1706.22 z" fill="rgb(106,181,203)" transform="translate(0,0)"></path>
<path d="M 1261.31 1726.27 L 1262.91 1726.93 L 1262.99 1730 C 1260.22 1732.74 1255.19 1734.06 1251.36 1735.43 C 1249.82 1732.92 1249.95 1733.09 1249.88 1730.11 C 1251.98 1727.99 1256.36 1727.96 1260.41 1726.58 L 1261.31 1726.27 z" fill="rgb(106,181,203)" transform="translate(0,0)"></path>
<path d="M 1253.38 1644.58 C 1257.76 1644.69 1260.55 1643.62 1262.36 1647.57 C 1261.67 1654.32 1259.31 1659.49 1251.32 1657.8 L 1252.22 1656.17 C 1253.05 1655.87 1253.87 1655.58 1254.7 1655.27 C 1259.29 1653.53 1259.92 1653.44 1261.92 1649.05 L 1260.94 1648.13 L 1261.69 1649.91 C 1258.16 1645.74 1257.44 1651.07 1250.19 1649.66 C 1250.41 1646.69 1250.72 1647.33 1253.38 1644.58 z" fill="rgb(185,220,228)" transform="translate(0,0)"></path>
<path d="M 1261.43 1697.49 L 1262.4 1697.46 L 1263.1 1699.64 C 1261.93 1701.76 1255.47 1703.86 1252.07 1705.6 L 1251.03 1706.11 C 1250.39 1703.3 1250.48 1703.5 1251.52 1700.78 C 1255.15 1699.22 1257.6 1698.58 1261.43 1697.49 z" fill="rgb(106,181,203)" transform="translate(0,0)"></path>
<path d="M 1258.58 1689.21 C 1259.04 1689.14 1261.7 1689.19 1262.25 1689.19 L 1262.76 1690.53 C 1259.76 1693.32 1258.61 1693.14 1254.34 1693.88 C 1252.83 1695.81 1253.43 1695.28 1251.44 1696.71 L 1250.46 1694.68 C 1252.15 1689.06 1253.29 1690.01 1258.58 1689.21 z" fill="rgb(106,181,203)" transform="translate(0,0)"></path>
<path d="M 786.272 1693.33 C 789.003 1690.21 791.682 1689.23 795.725 1690.29 L 796.945 1691.83 C 795.289 1694.32 794.234 1694.45 790.941 1695.11 C 789.348 1695.42 787.751 1695.7 786.151 1695.97 L 786.272 1693.33 z" fill="rgb(106,181,203)" transform="translate(0,0)"></path>
<path d="M 1261.88 1661.02 L 1262.1 1664.56 L 1260.84 1665.57 C 1256.59 1665.92 1255.48 1666.05 1251.41 1667.36 L 1250.5 1667.66 C 1250.35 1666.71 1250.5 1665.27 1250.55 1664.24 C 1252.47 1662.65 1257.32 1662.44 1260.96 1661.31 L 1261.88 1661.02 z" fill="rgb(106,181,203)" transform="translate(0,0)"></path>
<path d="M 797.103 1710.78 C 798.818 1712.63 798.166 1711.54 798.455 1714.42 C 795.813 1715.74 792.394 1714.85 788.991 1714.55 L 787.008 1714.37 L 787.278 1712.42 C 790.85 1710.56 792.937 1710.9 797.103 1710.78 z" fill="rgb(106,181,203)" transform="translate(0,0)"></path>
<path d="M 786.951 1656 L 788.074 1654.76 C 792.557 1652.91 793.262 1653.11 798.257 1653 L 797.038 1655.88 C 793.621 1656.82 790.836 1657.65 787.494 1658.94 L 786.951 1656 z" fill="rgb(185,220,228)" transform="translate(0,0)"></path>
<path d="M 785.941 1684.74 C 790.237 1683.5 792.028 1682.9 796.071 1681.02 L 797.57 1681.29 C 796.972 1684.37 796.74 1684.23 794.654 1686.69 C 790.993 1686.56 788.793 1686.94 785.941 1684.74 z" fill="rgb(106,181,203)" transform="translate(0,0)"></path>
<path d="M 571.86 456.433 C 558.135 425.447 559.75 388.212 571.878 357.012 C 585.113 321.94 611.949 293.697 646.299 278.687 C 761.928 227.806 883.234 339.539 836.898 459.072 C 823.772 492.931 798.249 519.133 764.975 533.767 C 769.665 542.057 770.936 546.958 773.216 555.994 C 789.821 539.496 807.899 540.257 824.06 556.404 C 827.373 549.946 829.742 545.168 834.402 539.599 C 848.838 522.345 872.636 519.602 889.535 535.52 C 896.662 542.222 900.78 551.518 900.953 561.299 C 901.066 570.962 897.508 580.594 890.562 587.344 C 880.007 597.749 864.462 598.282 850.555 598.211 C 833.393 598.123 816.195 597.955 799.027 598.08 L 625.755 598.029 L 335.805 597.927 C 288.572 597.906 241.243 597.839 194.006 597.857 C 174.65 597.865 157.649 590.516 144.228 576.369 C 131.558 563.181 124.676 545.481 125.11 527.198 C 125.592 508.357 133.659 490.507 147.482 477.695 C 183.095 444.469 226.333 454.297 257.219 487.863 C 268.007 461.165 293.355 444.437 322.727 448.022 C 327.782 448.639 333.061 450.36 337.962 451.797 C 338.87 447.486 339.989 443.223 341.315 439.021 C 348.334 416.773 363.129 398.343 383.934 387.606 C 404.311 376.914 428.12 374.822 450.05 381.795 C 475.884 390.072 489.251 405.394 501.233 428.608 C 532.15 422.909 548.981 434.217 564.39 460.594 L 571.86 456.433 z" fill="rgb(185,220,228)" transform="translate(0,0)"></path>
<path d="M 571.86 456.433 C 558.135 425.447 559.75 388.212 571.878 357.012 C 585.113 321.94 611.949 293.697 646.299 278.687 C 761.928 227.806 883.234 339.539 836.898 459.072 C 823.772 492.931 798.249 519.133 764.975 533.767 C 762.613 529.519 759.911 524.708 757.072 520.77 C 748.27 508.627 734.913 500.58 720.063 498.478 C 700.737 495.695 689.323 501.382 674.85 512.3 C 670.398 510.097 666.722 508.753 662.108 507.004 C 662.248 495.595 661.951 488.066 656.8 477.098 C 650.901 464.503 640.132 454.849 626.969 450.357 C 606.925 443.37 590.164 447.881 571.86 456.433 z" fill="rgb(244,203,190)" transform="translate(0,0)"></path>
<path d="M 1605.08 260.419 C 1653.17 261.861 1680 288.59 1694.72 332.492 C 1730.56 323.535 1763.22 336.286 1783.38 367.464 C 1785.72 364.719 1788.39 361.36 1790.98 358.913 C 1817.54 333.803 1860.18 333.766 1886.15 359.028 C 1900.06 372.499 1907.94 391.006 1908.03 410.364 C 1908.03 429.247 1899.76 449.842 1886.27 463.12 C 1875.37 473.651 1861.48 480.546 1846.5 482.856 C 1832.17 485.143 1804.85 484.329 1789.64 484.262 L 1700.74 484.046 L 1375.25 484.053 L 1229.81 484.38 C 1207.84 484.473 1181.61 485.296 1159.77 483.731 C 1148.6 481.554 1138.15 475.032 1132.18 465.552 C 1112.36 434.129 1140.9 391.939 1177.47 402.143 C 1191.48 406.051 1198.2 416.893 1204.19 428.875 C 1222.04 411.569 1241 412.112 1259.26 428.312 C 1262.74 399.572 1279.93 381.765 1311.21 387.681 C 1322.26 389.771 1329.9 397.249 1337.59 404.917 C 1343.04 394.23 1346.25 390.554 1355.57 383.802 C 1354.99 380.044 1354.21 375.305 1354.28 371.581 C 1354.41 359.657 1359.31 348.282 1367.88 339.995 C 1376.3 331.861 1387.62 327.427 1399.32 327.681 C 1417.12 328.141 1426.06 337.232 1437.53 348.86 C 1447.48 342.268 1450.38 342.481 1462.3 340.035 C 1465.27 337.357 1467.91 330.121 1469.73 326.287 C 1480.83 302.883 1504.93 301.184 1525.87 312.335 C 1542.47 279.901 1568.86 262.466 1605.08 260.419 z" fill="rgb(185,220,228)" transform="translate(0,0)"></path>
<path d="M 1773.17 628.264 C 1798.39 626.711 1814.78 633.032 1830.18 653.537 C 1836.97 662.574 1840.19 672.672 1845.94 682.21 L 1846.59 683.273 C 1850.09 682.925 1853.59 682.629 1857.09 682.385 C 1867.38 681.672 1877.51 685.257 1885.06 692.285 C 1892.35 698.951 1896.77 707.872 1897.2 717.784 C 1897.65 727.164 1894.24 736.32 1887.76 743.115 C 1875.02 756.28 1856.24 753.075 1839.19 753.056 L 1787.21 753.062 L 1593.5 753.043 C 1587.3 753.061 1576.98 752.416 1571.23 753.121 C 1542.91 756.596 1512.58 743.949 1518.62 708.833 C 1520.43 698.179 1526.42 688.69 1535.26 682.465 C 1555.71 668.175 1576.68 675.063 1589.68 694.833 C 1605.82 685.268 1613.65 687.309 1629.53 696.368 C 1632.97 687.83 1635.15 683.567 1642.12 677.011 C 1650.62 668.981 1662.01 664.746 1673.69 665.279 C 1691.75 666.203 1700.48 676.199 1710.47 688.773 C 1711.87 690.535 1714.56 690.275 1716.76 690.269 C 1720.42 674.833 1722.55 661.315 1733.32 649.126 C 1744.37 636.625 1757.03 630.879 1773.17 628.264 z" fill="rgb(185,220,228)" transform="translate(0,0)"></path>
<path d="M 1167.25 1830.07 C 1177.13 1829.73 1187.44 1829.69 1197.34 1829.7 C 1204.8 1829.7 1218.33 1827.96 1222.75 1834.64 C 1222.51 1839.02 1223.11 1836.99 1220.54 1840.85 C 1211.34 1841.69 1201.14 1841.82 1191.87 1841.95 C 1183.9 1842.06 1170.15 1844.3 1165.34 1837.12 C 1164.93 1833.67 1165.57 1833.09 1167.25 1830.07 z" fill="rgb(24,26,64)" transform="translate(0,0)"></path>
<path d="M 1674.69 1834.06 C 1682.46 1833.7 1691.25 1833.46 1699 1833.54 C 1706.65 1833.62 1721.1 1831.15 1724.94 1838.73 C 1724.93 1842.36 1724.39 1842.85 1722.63 1845.94 C 1708.87 1846.41 1690.52 1846.51 1676.72 1845.59 C 1673.91 1845.4 1673.96 1844.56 1672.7 1842.67 C 1672.27 1838.95 1673.25 1837.51 1674.69 1834.06 z" fill="rgb(24,26,64)" transform="translate(0,0)"></path>
<path d="M 231.257 1837.18 C 244.485 1836.95 258.061 1836.58 271.315 1836.66 C 276.379 1836.69 280.724 1837.02 283.192 1841.64 C 283.109 1845.4 282.749 1845.4 280.616 1848.41 C 269.732 1849.36 244.495 1849.7 233.143 1847.95 C 230.618 1847.56 229.803 1845.6 228.886 1843.77 C 228.976 1840.14 229.298 1840.14 231.257 1837.18 z" fill="rgb(24,26,64)" transform="translate(0,0)"></path>
<path d="M 903.495 1831.18 C 914.505 1831.22 925.537 1830.76 936.541 1830.81 C 942.823 1830.83 948.975 1830.36 952.096 1836.31 C 952.04 1839.87 951.586 1839.98 949.599 1842.89 C 937.612 1843.47 917.01 1844.59 905.095 1842.4 C 902.559 1841.94 901.8 1840.09 900.842 1838.24 C 900.846 1834.62 901.482 1834.15 903.495 1831.18 z" fill="rgb(24,26,64)" transform="translate(0,0)"></path>
<path d="M 557.2 1852.48 C 567.553 1852.36 592.076 1850.74 600.023 1855.33 C 603.182 1860.07 600.883 1862.16 596.249 1864.24 C 585.441 1864.01 558.034 1866.19 550.617 1861.29 C 548.974 1857.81 549.201 1859.63 550.332 1855.61 C 553.593 1852.57 552.333 1853.51 557.2 1852.48 z" fill="rgb(24,26,64)" transform="translate(0,0)"></path>
<path d="M 1831.16 1814.06 C 1843.22 1813.8 1855.44 1813.36 1867.49 1813.56 C 1872.78 1813.64 1877.2 1813.93 1879.77 1818.75 C 1879.76 1822.07 1879.02 1822.71 1877.24 1825.47 C 1865.2 1825.25 1853.21 1825.55 1841.19 1825.53 C 1836.13 1825.52 1831.78 1825.12 1829.02 1820.71 C 1828.91 1817.13 1829.3 1817.06 1831.16 1814.06 z" fill="rgb(24,26,64)" transform="translate(0,0)"></path>
<path d="M 391.214 1803.06 C 401.508 1802.92 412.105 1802.58 422.381 1802.98 C 428.244 1803.21 433.67 1803.24 435.661 1809.21 C 434.931 1812.47 434.518 1812.53 432.303 1814.97 C 422.308 1815.01 412.247 1815.5 402.262 1815.34 C 396.295 1815.24 390.543 1815.61 387.96 1809.76 C 388.349 1806.22 389 1805.8 391.214 1803.06 z" fill="rgb(24,26,64)" transform="translate(0,0)"></path>
<metadata><recraft-signature>{"signed_by": "recraft", "signature_b64": "D7rNyiNA9Wve1v5aceNp9DMV9FOij5mACwF0xFvD+1o2HcyR7AvIkPXg99r1mafFNcUw98Os/WBIfOGZVc8sCg==", "signing_algo": "Ed25519", "generation_timestamp": 1771179091, "identifier": "69455e9e-000c-4c37-9279-ced51b260712"}</recraft-signature></metadata></svg>