<svg xmlns="http://www.w3.org/2000/svg" height="1024" preserveAspectRatio="none" style="display: block;" version="1.1" viewBox="0 0 2048 2048" width="1024">
<path d="M 0 0 L 2048 0 L 2048 2048 L 0 2048 L 0 0 z" fill="rgb(255,255,255)" transform="translate(0,0)"></path>
<path d="M 1263.62 142.911 C 1271.13 141.939 1363.1 184.7 1378.15 191.215 L 1766.83 360.693 C 1784.89 368.494 1803.69 375.467 1821.89 383.178 C 1856.05 397.643 1889.97 412.018 1923.7 427.436 C 1937.61 433.795 1952.04 438.812 1965.98 445.591 C 1968.58 491.913 1964.59 541.231 1966.6 587.825 C 1966.88 594.162 1968.04 615.684 1962.49 618.981 C 1952.64 619.358 1929.38 609.516 1918.65 605.742 L 1918.27 1710.46 C 1902.13 1715.42 1881.66 1719.24 1864.85 1723.23 C 1822.27 1733.35 1778.79 1741.45 1736.26 1751.64 L 1199.62 1875.04 C 1150.65 1886.58 1099.07 1897.22 1050.68 1909.8 C 1035.3 1901.04 1017.44 1892.3 1001.62 1884.05 L 922.021 1842.47 C 850.295 1805.1 778.3 1768.25 706.041 1731.92 C 576.994 1665.77 447.242 1601.01 316.808 1537.63 C 254.013 1506.68 194.455 1476.55 130.753 1446.93 C 129.912 1435.99 130.654 1414.75 130.72 1403.24 C 148.189 1399.65 191.128 1396.31 209.866 1394.47 C 258.357 1389.98 306.802 1385 355.193 1379.54 L 355.158 1331.05 C 346.29 1329.27 321.174 1324.34 314.261 1318.92 C 311.896 1317.07 312.605 1301.33 312.565 1296.74 C 326.494 1293.17 345.197 1292.62 359.808 1291.74 C 360.444 1258.72 359.923 1223.63 359.917 1190.5 L 359.938 1003.23 C 352.048 997.933 337.339 985.935 329.232 979.782 L 255.601 924.008 C 243.068 914.413 229.95 903.066 217.243 894.211 C 178.671 891.469 136.407 893.217 99.9942 880.823 C 78.7989 873.61 77.7984 841.691 95.6139 830.598 C 120.229 815.27 145.241 800.563 170.025 785.515 C 227.382 750.684 285.015 716.308 342.916 682.39 L 691.328 475.38 L 1076.3 250.279 C 1094.56 239.696 1112.93 228.834 1131.45 218.734 C 1175.61 194.647 1218.09 164.39 1263.62 142.911 z" fill="rgb(26,52,44)" transform="translate(0,0)"></path>
<path d="M 461.731 1395.6 C 480.679 1400.19 510.543 1411.05 531.097 1417 C 531.181 1424.18 529.792 1438.04 535.953 1442.63 C 540.826 1442.59 570.985 1437.85 574.345 1435.02 C 574.795 1432.16 574.468 1431.65 576.097 1429.6 C 582.267 1430.17 602.886 1436.86 610.198 1439 L 678.366 1458.65 C 678.397 1465.46 677.189 1481.86 682.637 1486.46 C 690.925 1487.63 714.494 1481.39 723.297 1478.93 C 723.297 1478.93 726.221 1474.94 726.585 1474.44 C 731.14 1472.51 843.672 1506.57 858.224 1511.19 C 858.395 1518.83 857.036 1539.92 861.082 1543.76 C 865.918 1548.36 905.754 1537.36 913.263 1535.47 C 914.324 1535.2 916.902 1531 918.591 1529.59 C 933.131 1532.28 967.561 1543.84 983.17 1548.66 C 1016.49 1558.93 1049.57 1568.27 1082.96 1578.14 C 1082.86 1586.02 1082.8 1593.9 1082.8 1601.78 C 1082.83 1607.56 1082.98 1613.9 1087.22 1618.1 C 1096.43 1620.49 1131.43 1608.65 1142.15 1607.55 C 1146.24 1607.14 1147.92 1605.04 1150.51 1602.06 C 1156.32 1601.31 1333.05 1656.26 1355.51 1663.8 C 1355.5 1701.48 1344.51 1707.8 1382.66 1719.78 L 1382.61 1759.29 C 1300.14 1777.59 1215.49 1795.55 1133.65 1815.18 C 1107 1820.91 1079.41 1826.68 1053.1 1833.6 C 1033.8 1822 1011.15 1811.98 990.79 1802.25 L 917.804 1766.93 C 845.577 1731.97 773 1697.75 700.084 1664.26 L 307.216 1481.55 C 262.351 1460.15 217.311 1439.11 172.1 1418.45 C 233.834 1413.45 295.65 1404.04 357.436 1399.53 C 362.298 1399.22 376.753 1407.27 380.315 1406.57 C 392.899 1404.09 455.448 1401.02 461.731 1395.6 z" fill="rgb(255,255,255)" transform="translate(0,0)"></path>
<path d="M 1488.41 895.103 C 1602.6 900.768 1719.42 901.42 1833.91 907.008 L 1834.87 1351.59 C 1822.79 1352.75 1810.33 1354.32 1798.24 1355.67 C 1772.21 1358.26 1746.29 1361.93 1720.3 1364.93 L 1584.39 1380.34 C 1554.67 1383.89 1518.16 1389.48 1488.84 1391.53 C 1488.29 1369.83 1488.56 1347.18 1488.72 1325.44 C 1489.79 1182.14 1486.55 1038.34 1488.41 895.103 z" fill="rgb(255,255,255)" transform="translate(0,0)"></path>
<path d="M 1368.43 897.405 C 1371.06 896.946 1378.98 896.796 1382.03 896.659 C 1382.94 1037.1 1382.95 1177.54 1382.07 1317.98 C 1317.36 1312.65 1250.67 1303.67 1185.55 1297.81 C 1175.27 1296.17 1159.68 1295.15 1148.97 1294.14 L 1149 922.369 C 1172.31 920.514 1197.99 916.938 1221.47 914.163 C 1270.42 908.285 1319.41 902.699 1368.43 897.405 z" fill="rgb(255,255,255)" transform="translate(0,0)"></path>
<path d="M 1251.52 312.023 C 1263.54 317.82 1281.06 324.708 1293.8 330.188 C 1330.42 345.995 1367.15 361.515 1404 376.747 L 1741.03 521.382 C 1789.58 542.164 1848.19 563.976 1894.94 585.916 L 1894.68 1690.53 C 1883.05 1693.8 1867.5 1696.45 1855.35 1698.81 C 1854.9 1667.17 1855.49 1634.83 1855.45 1603.12 L 1855.34 1354.83 L 1855.12 586.87 C 1842.12 580.829 1829.19 576.203 1816.03 570.758 C 1711.49 527.519 1604.91 487.7 1500.75 443.648 L 1360.97 387.165 C 1331.13 374.79 1296.76 359.412 1266.4 348.949 C 1225.42 366.08 1185.85 386.617 1145.82 405.671 L 960.358 492.53 L 272.8 808.483 C 235.66 825.244 198.735 842.193 162.03 859.885 C 155.967 862.807 128.451 876.944 123.725 873.033 C 129.259 866.851 145.74 859.728 153.699 855.944 C 229.785 819.765 306.634 783.85 381.92 746.045 C 537.459 667.322 693.485 589.566 849.989 512.78 L 1119.85 378.563 L 1202.38 337.301 C 1218.58 329.024 1235.14 319.546 1251.52 312.023 z" fill="rgb(255,255,255)" transform="translate(0,0)"></path>
<path d="M 1252.02 171.734 C 1275.29 180.586 1299.62 191.506 1322.73 201.171 L 1479.67 268.104 L 1736.86 376.617 C 1802.72 404.366 1874.27 435.795 1940.61 461.214 C 1941.51 502.545 1940.86 547.405 1940.7 588.887 C 1931.39 586.392 1907.3 575.523 1897.48 571.341 C 1867.98 558.897 1838.6 546.159 1809.35 533.128 L 1542.29 416.752 C 1470.2 385.844 1398.33 354.446 1326.67 322.558 C 1312.38 316.07 1298.02 309.747 1283.58 303.591 C 1274.72 299.852 1259.82 294.116 1252.04 289.599 L 1252.02 171.734 z" fill="rgb(255,255,255)" transform="translate(0,0)"></path>
<path d="M 1226.65 190.824 L 1227.41 191.494 C 1229.41 197.231 1228.16 282.439 1228.15 294.631 C 1217.72 300.422 1205.41 306.048 1194.56 311.643 L 1104.72 357.819 L 706.185 560.919 C 545.813 644.547 384.634 726.618 222.671 807.12 L 127.408 854.343 C 121.201 857.419 115.361 861.671 109.527 865.388 C 107.283 866.817 104.45 865.307 101.653 864.477 C 96.7934 858.262 95.9522 849.499 103.099 844.909 C 163.653 806.015 227.47 769.449 289.362 732.961 C 476.025 622.152 663.662 512.993 852.252 405.496 C 937.285 357.341 1022.05 308.712 1106.54 259.611 C 1146.61 236.596 1187.06 214.701 1226.65 190.824 z" fill="rgb(255,255,255)" transform="translate(0,0)"></path>
<path d="M 1830.53 1397.42 C 1833.56 1397.01 1832.37 1396.56 1834.41 1398.11 C 1835.43 1401.97 1834.88 1440.62 1834.89 1446.99 L 1835.09 1591.23 C 1808.9 1595.74 1779 1603.23 1752.26 1608.69 L 1492.34 1662.76 C 1490.29 1662.92 1491.34 1663.11 1489.27 1661.88 C 1488.07 1656.82 1488.22 1605.11 1488.32 1596.51 C 1488.96 1545.51 1487.49 1492.96 1488.93 1442.13 C 1499.91 1440.08 1517.89 1438.55 1529.41 1437.16 C 1549.98 1434.6 1570.52 1431.88 1591.04 1428.98 L 1830.53 1397.42 z" fill="rgb(255,255,255)" transform="translate(0,0)"></path>
<path d="M 1665.19 534.14 C 1679.33 537.583 1706.01 548.973 1720.49 554.242 C 1758.76 568.172 1796.73 583.77 1834.97 597.752 L 1835.09 770.314 C 1815.91 769.176 1795.26 766.429 1775.97 764.621 L 1672.05 755.405 C 1610.7 749.265 1549.23 744.422 1487.68 740.879 C 1487.25 688.698 1487.31 636.515 1487.86 584.335 C 1547.06 566.075 1605.98 552.278 1665.19 534.14 z" fill="rgb(255,255,255)" transform="translate(0,0)"></path>
<path d="M 1105.57 926.451 C 1108.25 926.075 1107.26 925.938 1109.78 926.831 C 1112.39 932.647 1110.93 955.594 1110.96 963.412 L 1110.99 1051.48 L 1110.74 1289.13 L 949.2 1273.24 C 941.595 1272.81 933.034 1271.82 925.375 1271.11 L 925.322 947.275 C 941.679 946.253 960.796 942.961 977.381 941.347 C 1020 937.198 1063.06 930.735 1105.57 926.451 z" fill="rgb(255,255,255)" transform="translate(0,0)"></path>
<path d="M 891.825 950.474 L 892.417 950.934 C 893.385 955.503 893.009 972.773 893.007 978.384 L 892.948 1037.78 L 892.697 1267.92 L 771.242 1255.21 L 753.926 1253.64 L 754.155 967.216 C 768.784 964.642 790.282 962.83 805.44 961 C 834.215 957.331 863.011 953.822 891.825 950.474 z" fill="rgb(255,255,255)" transform="translate(0,0)"></path>
<path d="M 417.055 1235.16 C 738.965 1266.62 1060.62 1300.68 1381.98 1337.31 L 1382.08 1398.66 C 1331.52 1391.96 1276.33 1382.31 1225.46 1374.42 L 1010.12 1342.4 L 416.995 1257.86 L 417.055 1235.16 z" fill="rgb(255,255,255)" transform="translate(0,0)"></path>
<path d="M 417.018 1262.94 L 1382.77 1405.27 C 1382.87 1425.35 1382.85 1445.44 1382.74 1465.52 C 1351.79 1459.98 1321.3 1453.25 1290.44 1447.28 L 1120.15 1415.17 C 886.184 1370.86 651.779 1328.93 416.967 1289.37 L 417.018 1262.94 z" fill="rgb(255,255,255)" transform="translate(0,0)"></path>
<path d="M 144.963 1421.3 C 167.531 1431.01 188.471 1441.52 210.662 1451.77 C 263.957 1476.3 317.095 1501.16 370.072 1526.37 C 530.638 1601.33 690.575 1677.64 849.867 1755.28 C 898.209 1778.39 946.316 1801.99 994.18 1826.08 C 1004.92 1831.38 1041.75 1847.8 1048.73 1853.93 C 1140.28 1832.93 1231.93 1812.43 1323.7 1792.44 L 1835.07 1678.18 C 1835.15 1686.37 1835.57 1697.34 1834.78 1705.28 C 1800.26 1711.17 1757.48 1721.58 1723.02 1729.39 L 1551.39 1768.24 L 1051.78 1882.57 C 816.253 1761.5 579.544 1642.73 341.691 1526.29 C 326.256 1518.78 149.251 1434.66 146.447 1431 C 144.104 1427.95 144.898 1424.95 144.963 1421.3 z" fill="rgb(255,255,255)" transform="translate(0,0)"></path>
<path d="M 1171.96 421.955 C 1176.43 425.349 1222.09 492.916 1228.65 502.37 L 1298.18 601.661 C 1342.94 666.818 1386.3 731.615 1432.12 796.099 C 1433.35 831.345 1432.45 871.934 1432.52 907.669 L 1432.67 1130.89 L 1432.95 1744 C 1424.52 1746.19 1415.73 1748.2 1407.24 1750.26 C 1404.07 1748.69 1404.91 1745.44 1404.89 1740.97 L 1404.01 1324.54 L 1403.71 914.972 C 1403.58 883.336 1402.93 851.509 1403.47 819.897 C 1403.6 812.336 1407.44 803.378 1406.38 796.096 C 1405.06 786.963 1174.62 468.364 1149.98 432.332 L 1171.96 421.955 z" fill="rgb(255,255,255)" transform="translate(0,0)"></path>
<path d="M 720.572 970.369 C 723.785 969.792 723.732 969.698 726.928 970.1 C 728.877 973.404 728.384 1020.77 728.424 1027.09 L 728.833 1251.88 C 698 1249.21 665.836 1245.01 634.859 1241.72 C 628.815 1241.13 622.779 1240.46 616.753 1239.71 C 614.73 1217.87 615.974 1173.84 615.983 1150.24 L 616.331 983.277 C 627.222 981.078 644.952 979.6 656.289 978.333 C 677.759 976.037 699.19 973.382 720.572 970.369 z" fill="rgb(255,255,255)" transform="translate(0,0)"></path>
<path d="M 1264.68 645.039 L 1266.1 644.714 C 1269.56 645.792 1274.64 653.976 1277.15 657.34 C 1300.57 688.719 1322.7 720.957 1346.79 751.855 C 1355.45 762.958 1364.38 774.889 1372.08 786.672 C 1351.8 788.697 1330.94 793.032 1310.76 796.212 C 1287.05 799.948 1263.82 803.63 1240.22 808.157 C 1209.99 813.641 1179.7 818.808 1149.36 823.657 C 1149.1 774.676 1149.21 725.694 1149.7 676.715 C 1185.46 667.203 1230.08 656.087 1264.68 645.039 z" fill="rgb(255,255,255)" transform="translate(0,0)"></path>
<path d="M 1107.65 688.027 L 1109.98 688.59 C 1111.66 692.534 1111 816.523 1111.01 829.675 C 1050.38 841.199 989.671 850.666 929.221 862.917 C 926.886 863.276 927.743 863.259 925.411 862.776 C 923.621 857.728 925.277 752.011 925.336 739.056 C 986.375 723.024 1047.15 706.013 1107.65 688.027 z" fill="rgb(255,255,255)" transform="translate(0,0)"></path>
<path d="M 348.586 1300.41 C 363.652 1300.17 384.334 1300.86 399.48 1301.08 C 410.566 1301.23 432.136 1306.57 443.886 1308.73 L 523.6 1323.09 C 603.042 1336.81 682.354 1351.27 761.524 1366.48 C 968.728 1404.48 1175.63 1444.1 1382.21 1485.35 L 1382.2 1521.07 L 1380.94 1522.12 C 1373.01 1521.27 1355.56 1516.32 1347.04 1514.19 C 1329.79 1509.93 1312.5 1505.84 1295.17 1501.91 C 1227.18 1485.9 1159.04 1470.5 1090.77 1455.71 L 573.909 1347.11 C 511.824 1334.92 449.872 1322.07 388.062 1308.56 C 379.139 1306.62 355.6 1303.74 348.586 1300.41 z" fill="rgb(255,255,255)" transform="translate(0,0)"></path>
<path d="M 586.523 986.353 C 590.554 985.807 590.691 985.028 593.271 986.72 C 594.157 992.416 593.793 1006.77 593.806 1013.01 L 593.862 1063.21 C 594.156 1121.3 593.964 1179.39 593.286 1237.47 C 568.879 1235.85 543.631 1233.39 519.244 1231.18 L 502.053 1229.82 L 501.873 997.31 C 530.119 993.888 558.337 990.236 586.523 986.353 z" fill="rgb(255,255,255)" transform="translate(0,0)"></path>
<path d="M 1191.71 533.969 C 1194.29 534.98 1213.66 564.631 1217.13 569.608 C 1198.88 574.611 1176.68 582.459 1158.56 588.434 C 1112.37 603.965 1066.27 619.764 1020.26 635.829 L 724.435 736.205 C 685.74 749.201 646.844 763.649 607.99 775.908 L 605.962 776.468 C 601.521 775.668 588.345 764.5 584.303 761.29 C 644.165 736.475 708.383 714.092 769.469 691.698 C 875.406 653.196 981.085 613.989 1086.5 574.079 C 1121.47 560.658 1157.29 548.647 1191.71 533.969 z" fill="rgb(255,255,255)" transform="translate(0,0)"></path>
<path d="M 477.486 1000.41 C 480.204 999.859 480.081 999.93 482.851 1000.34 C 484.918 1004.12 483.891 1207.55 483.364 1227.21 C 461.903 1225.48 440.451 1223.64 419.009 1221.68 C 415.361 1221.22 410.806 1221.02 407.065 1220.75 L 407.019 1010.96 C 426.918 1006.89 457.173 1002.75 477.486 1000.41 z" fill="rgb(255,255,255)" transform="translate(0,0)"></path>
<path d="M 890.236 750.23 L 892.364 750.298 C 894.192 753.059 893.001 856.034 893.014 868.49 C 878.739 869.782 856.426 874.177 841.54 876.768 C 813.567 881.639 782.966 886.414 755.382 892.599 L 753.918 892.436 C 752.105 888.603 753.175 801.479 753.253 788.178 C 769.234 782.723 792.468 776.998 809.229 772.19 C 834.447 764.957 864.818 755.551 890.236 750.23 z" fill="rgb(255,255,255)" transform="translate(0,0)"></path>
<path d="M 1150.85 1517.58 C 1164.22 1520.29 1180.19 1524.73 1193.73 1527.99 L 1290.45 1551.38 C 1311.94 1556.79 1333.48 1563 1355.07 1567.78 L 1354.95 1641.38 C 1337.38 1637.18 1313.85 1629.33 1295.84 1624.17 C 1246.97 1610.34 1198.32 1595.76 1149.91 1580.45 C 1149.51 1562.36 1149.14 1535.38 1150.85 1517.58 z" fill="rgb(255,255,255)" transform="translate(0,0)"></path>
<path d="M 330.157 1307.35 C 358.497 1308.89 407.643 1320.7 436.519 1326.65 L 640.554 1369.98 L 1382.57 1532.47 C 1382.73 1539.37 1382.52 1546.64 1382.42 1553.58 C 1354.81 1548.05 1324.87 1540.17 1297.21 1533.63 L 1085.49 1482.08 C 897.199 1436.82 708.514 1393.22 519.455 1351.29 C 480.935 1342.77 442.372 1334.44 403.767 1326.31 C 381.482 1321.59 358.547 1316.88 336.404 1311.38 C 332.368 1310.38 331.977 1310.05 330.157 1307.35 z" fill="rgb(255,255,255)" transform="translate(0,0)"></path>
<path d="M 1445.09 445.033 C 1448.41 445.181 1502.76 468.397 1510.73 471.439 C 1497.79 476.813 1473.26 484.144 1459.13 488.946 L 1327.89 532.949 L 1298.02 543.677 C 1289.53 531.465 1280.56 519.723 1272.15 507.347 C 1288.26 499.895 1313.66 491.642 1330.78 485.549 L 1445.09 445.033 z" fill="rgb(255,255,255)" transform="translate(0,0)"></path>
<path d="M 918.871 1460.82 C 957.319 1472.45 1001.5 1480.34 1040.6 1490.81 C 1054.69 1494.59 1069.53 1497.24 1083.5 1501.66 C 1084.14 1520.5 1083.75 1540.47 1083.66 1559.39 C 1029.37 1540.71 971.021 1529.16 918.197 1510.15 C 918.075 1493.7 918.3 1477.26 918.871 1460.82 z" fill="rgb(255,255,255)" transform="translate(0,0)"></path>
<path d="M 583.958 836.062 C 585.99 836.038 591.567 837.556 591.64 839.796 C 592.533 867.193 592.088 895.441 592.147 922.83 C 565.178 928.039 536.875 931.742 509.219 937.046 C 506.53 937.646 504.321 938.734 502.158 937.352 C 500.598 920.013 501.922 879.365 502.009 860.309 C 527.398 853.547 559.203 844.544 583.958 836.062 z" fill="rgb(255,255,255)" transform="translate(0,0)"></path>
<path d="M 726.454 1414.24 C 770.328 1424.07 814.051 1434.56 857.609 1445.7 C 857.474 1461.14 857.666 1476.57 858.183 1491.99 C 852.768 1490.73 847.431 1489.1 842.131 1487.42 C 803.809 1475.28 764.94 1465.27 726.4 1453.87 C 726.262 1440.72 725.95 1427.37 726.454 1414.24 z" fill="rgb(255,255,255)" transform="translate(0,0)"></path>
<path d="M 482.089 866.061 L 483.587 866.268 C 485.183 869.597 484.36 932.785 484.335 941.72 C 462.166 944.876 432.186 950.581 410.197 955.298 L 409.424 955.021 C 407.008 951.672 408.328 897.745 408.384 889.678 C 430.06 881.297 459.17 873.189 482.089 866.061 z" fill="rgb(255,255,255)" transform="translate(0,0)"></path>
<path d="M 522.403 779.888 C 527.472 780.946 542.953 793.397 547.32 796.945 C 516.749 805.498 481.948 817.833 451.381 827.727 C 397.169 845.002 343.059 862.593 289.053 880.5 L 273.338 885.692 L 265.546 878.574 C 290.105 867.825 315.685 859.74 340.488 849.908 C 400.767 826.012 462.537 804.527 522.403 779.888 z" fill="rgb(255,255,255)" transform="translate(0,0)"></path>
<path d="M 1376.68 805.377 C 1379.84 804.84 1378.3 804.739 1381.46 805.896 L 1382.37 807.959 L 1381.33 810.606 C 1375.03 814.966 1353.43 817.113 1344.69 818.617 C 1319.33 823.089 1293.92 827.312 1268.47 831.285 C 1208.66 841.197 1148.77 850.595 1088.79 859.477 L 854.922 896.512 C 822.534 901.547 788.574 907.348 756.216 911.585 C 753.24 912.19 753.34 912.384 750.502 911.491 L 750.812 909.963 C 760.68 904.476 805.554 899.131 819.471 896.838 L 976.74 871.532 L 1376.68 805.377 z" fill="rgb(255,255,255)" transform="translate(0,0)"></path>
<path d="M 1430.31 574.045 L 1431.89 575.013 C 1432.79 579.483 1432.31 615.177 1432.31 621.368 L 1431.98 736.84 C 1427.99 729.025 1425.8 725.443 1420.77 718.222 C 1414.59 709.474 1408.6 700.593 1402.8 691.586 L 1402.03 583.743 C 1411.57 580.178 1420.65 577.187 1430.31 574.045 z" fill="rgb(255,255,255)" transform="translate(0,0)"></path>
<path d="M 574.966 1378.72 C 587.401 1382.87 604.716 1386.46 617.629 1389.39 C 638.051 1393.88 658.407 1398.66 678.694 1403.73 L 678.69 1441.37 C 674.681 1440.61 669.873 1439.24 665.888 1438.16 C 635.54 1429.97 605.558 1420.85 574.972 1413.54 L 574.966 1378.72 z" fill="rgb(255,255,255)" transform="translate(0,0)"></path>
<path d="M 725.544 796.018 C 727.581 795.948 726.7 795.621 728.194 796.983 C 729.572 823.964 728.578 859.365 728.457 886.751 C 716.21 875.014 703.49 863.781 690.328 853.079 C 676.496 841.465 663.128 830.121 648.687 819.233 L 725.544 796.018 z" fill="rgb(255,255,255)" transform="translate(0,0)"></path>
<path d="M 508.909 735.739 C 510.238 735.779 511.566 735.819 512.895 735.859 C 529.734 749.613 561.876 778.616 577.106 791.58 C 600.481 811.475 619.514 826.664 639.966 844.922 C 670.371 872.411 700.503 900.203 730.355 928.292 C 731.252 931.56 730.827 930.768 729.22 934.72 C 719.514 931.4 608.466 828.057 591.9 813.408 L 532.668 760.961 C 528.217 757.004 511.097 742.337 508.294 738.406 L 508.909 735.739 z" fill="rgb(255,255,255)" transform="translate(0,0)"></path>
<path d="M 459.361 1352.28 L 530.644 1369.98 C 530.889 1380.07 530.839 1390.65 530.927 1400.78 C 507.119 1393.49 482.814 1385.19 459.004 1377.57 C 458.947 1369.23 458.718 1360.57 459.361 1352.28 z" fill="rgb(255,255,255)" transform="translate(0,0)"></path>
<path d="M 614.1 857.482 C 619.999 860.84 665.826 901.445 670.181 907.504 C 668.004 909.327 664.324 909.383 661.301 909.815 C 644.472 912.628 630.592 914.962 614.104 919.167 L 614.1 857.482 z" fill="rgb(255,255,255)" transform="translate(0,0)"></path>
<path d="M 377.5 1001.22 C 380.143 1001.77 379.551 1001.61 381.978 1002.66 C 383.083 1012.91 382.707 1031.69 382.743 1042.7 L 382.815 1114.29 L 382.812 1227.88 C 382.809 1237.76 383.699 1287.61 381.466 1292.14 C 377.749 1291.69 379.033 1292.49 376.466 1290.59 C 375.545 1231.11 376.768 1167.7 376.761 1107.89 L 376.767 1040.54 C 376.776 1029.56 376.318 1011.58 377.5 1001.22 z" fill="rgb(255,255,255)" transform="translate(0,0)"></path>
<path d="M 358.013 899.182 L 358.579 899.436 C 360.775 902.789 359.596 944.808 359.524 952.142 C 351.1 945.076 342.754 938.828 333.985 932.218 C 325.492 926.044 317.257 919.372 309.025 912.842 L 358.013 899.182 z" fill="rgb(255,255,255)" transform="translate(0,0)"></path>
<path d="M 678.247 919.313 C 682.383 918.528 682.749 918.819 685.953 920.463 L 685.966 921.964 C 678.173 926.577 441.737 963.831 415.048 968.23 C 412.244 968.753 411.594 968.813 408.74 968.873 L 407.911 967.941 C 414.656 964.215 509.492 949.576 521.638 947.489 L 678.247 919.313 z" fill="rgb(255,255,255)" transform="translate(0,0)"></path>
<path d="M 234.265 879.445 C 244.515 885.968 269.832 907.849 281.193 916.574 C 300.878 931.509 320.476 946.557 339.987 961.719 C 350.896 970.182 364.99 980.636 374.737 990.042 C 375.158 992.906 375.342 991.529 373.615 994.156 C 359.781 984.738 236.133 889.195 233.044 884.734 C 232.645 884.157 232.647 883.389 232.448 882.716 L 234.265 879.445 z" fill="rgb(255,255,255)" transform="translate(0,0)"></path>
<path d="M 1378.56 613.081 L 1379.1 613.168 C 1381.46 616.061 1380.46 652.567 1380.43 659.166 C 1377.38 653.796 1373.48 648.054 1370.09 642.821 C 1364.96 635.326 1359.06 628.005 1353.47 620.821 L 1378.56 613.081 z" fill="rgb(255,255,255)" transform="translate(0,0)"></path>
<path d="M 375.708 1333.67 L 379.935 1335.38 C 382.218 1340.71 380.347 1384.07 380.06 1392.84 L 376.522 1391.46 C 373.785 1385.72 375.362 1342.45 375.708 1333.67 z" fill="rgb(255,255,255)" transform="translate(0,0)"></path>
<path d="M 377.225 890.306 L 379.702 891.37 C 382.464 896.24 381.063 953.772 380.713 963.489 L 378.235 962.621 C 375.603 957.67 376.91 899.888 377.225 890.306 z" fill="rgb(255,255,255)" transform="translate(0,0)"></path>
<metadata><recraft-signature>{"signed_by": "recraft", "signature_b64": "75hgFhqyPBfE53EtrlV6jgjtgHP2pO0l15/Mt0X7rPCYM+ncf4UeLJy/9ot8DyBrHeNJavWOBvhdS2dh44txAQ==", "signing_algo": "Ed25519", "generation_timestamp": 1771178992, "identifier": "1556a736-12bd-497b-8708-d86802240950"}</recraft-signature></metadata></svg>